<?xml version="1.0" encoding="UTF-8"?>
<!DOCTYPE svg PUBLIC "-//W3C//DTD SVG 1.1//EN" "http://www.w3.org/Graphics/SVG/1.1/DTD/svg11.dtd">
<svg xmlns="http://www.w3.org/2000/svg" version="1.1" width="3507px" height="2480px" style="shape-rendering:geometricPrecision; text-rendering:geometricPrecision; image-rendering:optimizeQuality; fill-rule:evenodd; clip-rule:evenodd" xmlns:xlink="http://www.w3.org/1999/xlink">
<g><path style="opacity:0.977" fill="#050505" d="M 1855.5,478.5 C 1856.62,479.757 1857.29,479.424 1857.5,477.5C 1861.79,476.575 1866.12,475.909 1870.5,475.5C 1871.62,476.757 1872.29,476.424 1872.5,474.5C 1875.81,473.949 1879.14,473.616 1882.5,473.5C 1883.27,474.147 1884.27,474.48 1885.5,474.5C 1887.03,474.36 1888.03,473.693 1888.5,472.5C 1890.17,472.5 1891.83,472.5 1893.5,472.5C 1901.32,473.492 1909.32,473.826 1917.5,473.5C 1919.41,473.784 1921.08,473.451 1922.5,472.5C 1924.83,472.5 1927.17,472.5 1929.5,472.5C 1930.05,474.552 1931.05,474.885 1932.5,473.5C 1933.5,473.5 1934.5,473.5 1935.5,473.5C 1935.62,474.586 1936.29,475.253 1937.5,475.5C 1938.42,475.457 1939.08,475.124 1939.5,474.5C 1944.3,474.994 1948.97,475.994 1953.5,477.5C 1944.52,485.47 1939.85,495.47 1939.5,507.5C 1929.73,504.545 1919.73,502.879 1909.5,502.5C 1909.39,501.883 1909.06,501.383 1908.5,501C 1901.17,500.333 1893.83,500.333 1886.5,501C 1885.58,501.278 1884.92,501.778 1884.5,502.5C 1882.17,502.5 1879.83,502.5 1877.5,502.5C 1876.73,501.853 1875.73,501.52 1874.5,501.5C 1872.65,501.34 1871.31,502.007 1870.5,503.5C 1864.83,504.167 1859.17,504.833 1853.5,505.5C 1852.22,504.285 1851.22,504.618 1850.5,506.5C 1845.83,507.5 1841.17,508.5 1836.5,509.5C 1833.42,509.179 1831.09,510.179 1829.5,512.5C 1825.73,513.555 1822.06,514.888 1818.5,516.5C 1815.8,516.67 1814.13,518.003 1813.5,520.5C 1812.71,521.401 1811.71,522.068 1810.5,522.5C 1806.75,524.88 1805.75,528.213 1807.5,532.5C 1807.96,533.298 1808.62,533.631 1809.5,533.5C 1811.07,536.231 1813.4,538.065 1816.5,539C 1844.91,545.919 1873.58,547.252 1902.5,543C 1917.11,540.519 1929.11,533.685 1938.5,522.5C 1939.91,522.027 1940.57,521.027 1940.5,519.5C 1940.5,519.167 1940.5,518.833 1940.5,518.5C 1943.87,524.052 1947.87,529.219 1952.5,534C 1956.9,536.527 1961.23,539.027 1965.5,541.5C 1964.17,541.833 1962.83,542.167 1961.5,542.5C 1961.57,542.062 1961.4,541.728 1961,541.5C 1959.58,542.078 1958.75,543.078 1958.5,544.5C 1948.37,549.063 1938.37,553.897 1928.5,559C 1902.35,569.37 1875.35,572.37 1847.5,568C 1830.24,565.102 1813.24,561.102 1796.5,556C 1765.07,546.189 1734.07,535.189 1703.5,523C 1668.09,510.685 1631.76,502.518 1594.5,498.5C 1592.08,497.186 1589.25,496.519 1586,496.5C 1582.75,496.519 1579.92,497.186 1577.5,498.5C 1558.52,499.936 1541.19,505.936 1525.5,516.5C 1523.97,516.427 1522.97,517.094 1522.5,518.5C 1522.5,519.167 1522.17,519.5 1521.5,519.5C 1516.93,522.563 1512.76,526.23 1509,530.5C 1508.52,531.448 1508.35,532.448 1508.5,533.5C 1508.5,534.167 1508.17,534.5 1507.5,534.5C 1505.09,534.694 1504.09,536.027 1504.5,538.5C 1502.09,538.694 1501.09,540.027 1501.5,542.5C 1499.95,542.821 1499.29,543.821 1499.5,545.5C 1496.23,550.37 1493.23,555.37 1490.5,560.5C 1488.71,562.426 1487.71,564.759 1487.5,567.5C 1484.47,573.57 1481.8,579.903 1479.5,586.5C 1479.62,587.107 1479.96,587.44 1480.5,587.5C 1478.99,593.876 1477.32,600.209 1475.5,606.5C 1474.88,606.611 1474.38,606.944 1474,607.5C 1473.32,610.55 1472.49,613.55 1471.5,616.5C 1471.62,617.107 1471.96,617.44 1472.5,617.5C 1470.83,624.833 1469.17,632.167 1467.5,639.5C 1464.81,643.197 1463.48,647.53 1463.5,652.5C 1463.5,653.167 1463.5,653.833 1463.5,654.5C 1461.69,655.918 1461.03,657.918 1461.5,660.5C 1459.1,670.364 1456.1,680.031 1452.5,689.5C 1451.14,691.22 1450.14,693.22 1449.5,695.5C 1449.62,696.107 1449.96,696.44 1450.5,696.5C 1450.5,696.833 1450.5,697.167 1450.5,697.5C 1449.62,697.369 1448.96,697.702 1448.5,698.5C 1447.35,699.687 1447.35,700.687 1448.5,701.5C 1448.5,701.833 1448.5,702.167 1448.5,702.5C 1447.62,702.369 1446.96,702.702 1446.5,703.5C 1443.15,710.855 1439.82,718.188 1436.5,725.5C 1435.92,728.331 1434.59,730.664 1432.5,732.5C 1430.9,733.287 1430.23,734.62 1430.5,736.5C 1428.95,736.821 1428.29,737.821 1428.5,739.5C 1426.95,739.821 1426.29,740.821 1426.5,742.5C 1425.17,742.5 1424.5,743.167 1424.5,744.5C 1423.92,746.749 1422.59,748.415 1420.5,749.5C 1417.5,751.833 1414.83,754.5 1412.5,757.5C 1411.83,758.833 1410.83,759.833 1409.5,760.5C 1409.57,760.062 1409.4,759.728 1409,759.5C 1405.08,762.213 1400.91,764.547 1396.5,766.5C 1395.7,766.957 1395.37,767.624 1395.5,768.5C 1391.02,770.436 1386.36,771.769 1381.5,772.5C 1380.79,771.596 1379.79,771.263 1378.5,771.5C 1381.35,761.715 1381.02,752.049 1377.5,742.5C 1385.92,739.792 1393.59,735.792 1400.5,730.5C 1404.24,729.095 1406.57,726.429 1407.5,722.5C 1408.93,719.953 1410.6,717.619 1412.5,715.5C 1415.71,713.082 1417.38,709.748 1417.5,705.5C 1417.5,705.167 1417.5,704.833 1417.5,704.5C 1418.38,704.631 1419.04,704.298 1419.5,703.5C 1420.8,700.573 1421.8,697.573 1422.5,694.5C 1422.63,692.784 1422.96,691.117 1423.5,689.5C 1425.61,688.216 1426.61,686.216 1426.5,683.5C 1434.94,655.255 1443.6,627.088 1452.5,599C 1451.94,598.617 1451.61,598.117 1451.5,597.5C 1452.5,597.53 1453.16,597.03 1453.5,596C 1454.76,591.804 1456.09,587.637 1457.5,583.5C 1457.38,582.893 1457.04,582.56 1456.5,582.5C 1456.5,581.833 1456.5,581.167 1456.5,580.5C 1458.19,579.816 1459.19,578.483 1459.5,576.5C 1459.38,575.893 1459.04,575.56 1458.5,575.5C 1458.5,574.833 1458.5,574.167 1458.5,573.5C 1459.5,573.53 1460.16,573.03 1460.5,572C 1461.07,570.128 1461.73,568.295 1462.5,566.5C 1462.38,565.893 1462.04,565.56 1461.5,565.5C 1461.5,565.167 1461.5,564.833 1461.5,564.5C 1463.96,562.182 1465.29,559.182 1465.5,555.5C 1483.95,510.074 1517.29,482.241 1565.5,472C 1592.72,468.767 1619.72,470.434 1646.5,477C 1683.11,485.648 1718.61,497.481 1753,512.5C 1780.65,502.265 1808.48,492.431 1836.5,483C 1842.73,481.024 1849.07,479.524 1855.5,478.5 Z"/></g>
<g><path style="opacity:0.151" fill="#929292" d="M 1917.5,471.5 C 1919.22,471.629 1920.88,471.962 1922.5,472.5C 1921.08,473.451 1919.41,473.784 1917.5,473.5C 1917.5,472.833 1917.5,472.167 1917.5,471.5 Z"/></g>
<g><path style="opacity:0.973" fill="#c39321" d="M 2009.5,511.5 C 2007.4,521.049 2002.73,529.049 1995.5,535.5C 1986.33,541.026 1976.33,543.026 1965.5,541.5C 1961.23,539.027 1956.9,536.527 1952.5,534C 1947.87,529.219 1943.87,524.052 1940.5,518.5C 1939.76,514.881 1939.42,511.215 1939.5,507.5C 1939.85,495.47 1944.52,485.47 1953.5,477.5C 1962.67,471.81 1972.67,469.977 1983.5,472C 2002.3,478.419 2010.97,491.586 2009.5,511.5 Z"/></g>
<g><path style="opacity:0.51" fill="#515151" d="M 1917.5,471.5 C 1917.5,472.167 1917.5,472.833 1917.5,473.5C 1909.32,473.826 1901.32,473.492 1893.5,472.5C 1901.46,471.597 1909.46,471.264 1917.5,471.5 Z"/></g>
<g><path style="opacity:0.557" fill="#5b5b5b" d="M 1888.5,472.5 C 1888.03,473.693 1887.03,474.36 1885.5,474.5C 1884.27,474.48 1883.27,474.147 1882.5,473.5C 1884.44,472.85 1886.44,472.517 1888.5,472.5 Z"/></g>
<g><path style="opacity:0.212" fill="#9a9a9a" d="M 1929.5,472.5 C 1930.61,472.557 1931.61,472.89 1932.5,473.5C 1931.05,474.885 1930.05,474.552 1929.5,472.5 Z"/></g>
<g><path style="opacity:0.396" fill="#6d6d6d" d="M 1935.5,473.5 C 1936.96,473.433 1938.29,473.766 1939.5,474.5C 1939.08,475.124 1938.42,475.457 1937.5,475.5C 1936.29,475.253 1935.62,474.586 1935.5,473.5 Z"/></g>
<g><path style="opacity:0.447" fill="#747474" d="M 1872.5,474.5 C 1872.29,476.424 1871.62,476.757 1870.5,475.5C 1870.84,474.662 1871.51,474.328 1872.5,474.5 Z"/></g>
<g><path style="opacity:0.51" fill="#6d6d6d" d="M 1857.5,477.5 C 1857.29,479.424 1856.62,479.757 1855.5,478.5C 1855.84,477.662 1856.51,477.328 1857.5,477.5 Z"/></g>
<g><path style="opacity:1" fill="#e4b441" d="M 1969.5,484.5 C 1987.85,483.688 1996.69,492.355 1996,510.5C 1991.75,523.216 1982.91,528.716 1969.5,527C 1957.53,522.244 1952.37,513.411 1954,500.5C 1956.69,492.65 1961.85,487.316 1969.5,484.5 Z"/></g>
<g><path style="opacity:0.837" fill="#2a2a2a" d="M 1594.5,498.5 C 1588.83,498.5 1583.17,498.5 1577.5,498.5C 1579.92,497.186 1582.75,496.519 1586,496.5C 1589.25,496.519 1592.08,497.186 1594.5,498.5 Z"/></g>
<g><path style="opacity:0.682" fill="#535353" d="M 1909.5,502.5 C 1901.18,501.407 1892.85,501.407 1884.5,502.5C 1884.92,501.778 1885.58,501.278 1886.5,501C 1893.83,500.333 1901.17,500.333 1908.5,501C 1909.06,501.383 1909.39,501.883 1909.5,502.5 Z"/></g>
<g><path style="opacity:0.698" fill="#4d4d4d" d="M 1877.5,502.5 C 1875.24,503.219 1872.9,503.552 1870.5,503.5C 1871.31,502.007 1872.65,501.34 1874.5,501.5C 1875.73,501.52 1876.73,501.853 1877.5,502.5 Z"/></g>
<g><path style="opacity:0.047" fill="#787878" d="M 1853.5,505.5 C 1852.61,506.11 1851.61,506.443 1850.5,506.5C 1851.22,504.618 1852.22,504.285 1853.5,505.5 Z"/></g>
<g><path style="opacity:0.384" fill="#4d4d4d" d="M 1836.5,509.5 C 1834.32,510.677 1831.99,511.677 1829.5,512.5C 1831.09,510.179 1833.42,509.179 1836.5,509.5 Z"/></g>
<g><path style="opacity:0.944" fill="#030303" d="M 2009.5,511.5 C 2026.62,528.377 2039.79,548.044 2049,570.5C 2061.69,600.935 2069.19,632.602 2071.5,665.5C 2070.86,666.097 2070.53,666.93 2070.5,668C 2070.68,669.376 2071.35,670.209 2072.5,670.5C 2072.5,670.833 2072.5,671.167 2072.5,671.5C 2071.85,672.274 2071.52,673.274 2071.5,674.5C 2071.64,676.03 2072.31,677.03 2073.5,677.5C 2073.5,678.167 2073.5,678.833 2073.5,679.5C 2072.86,680.097 2072.53,680.93 2072.5,682C 2072.68,683.376 2073.35,684.209 2074.5,684.5C 2074.5,685.833 2074.5,687.167 2074.5,688.5C 2073.86,689.097 2073.53,689.93 2073.5,691C 2073.68,692.376 2074.35,693.209 2075.5,693.5C 2075.5,695.5 2075.5,697.5 2075.5,699.5C 2074.85,700.274 2074.52,701.274 2074.5,702.5C 2074.64,704.03 2075.31,705.03 2076.5,705.5C 2076.84,724.838 2077.01,744.171 2077,763.5C 2070.55,820.88 2060.21,877.547 2046,933.5C 2041.01,952.972 2034.18,971.639 2025.5,989.5C 2018.81,981.139 2010.48,975.139 2000.5,971.5C 2001.87,970.488 2003.2,969.488 2004.5,968.5C 2006.31,966.911 2007.64,964.911 2008.5,962.5C 2008.38,961.893 2008.04,961.56 2007.5,961.5C 2007.5,960.833 2007.5,960.167 2007.5,959.5C 2008.5,959.53 2009.16,959.03 2009.5,958C 2011.17,953 2012.83,948 2014.5,943C 2014.43,942.235 2014.1,941.735 2013.5,941.5C 2013.5,941.167 2013.5,940.833 2013.5,940.5C 2015.42,940.289 2015.76,939.623 2014.5,938.5C 2014.5,938.167 2014.5,937.833 2014.5,937.5C 2015.5,937.53 2016.16,937.03 2016.5,936C 2017.61,934.323 2017.61,932.823 2016.5,931.5C 2016.5,931.167 2016.5,930.833 2016.5,930.5C 2018.42,930.289 2018.76,929.623 2017.5,928.5C 2017.63,926.784 2017.96,925.117 2018.5,923.5C 2019.5,923.53 2020.16,923.03 2020.5,922C 2021.61,920.323 2021.61,918.823 2020.5,917.5C 2021.04,915.883 2021.37,914.216 2021.5,912.5C 2023.55,911.947 2023.89,910.947 2022.5,909.5C 2022.5,909.167 2022.5,908.833 2022.5,908.5C 2023.5,908.53 2024.16,908.03 2024.5,907C 2025.61,905.323 2025.61,903.823 2024.5,902.5C 2024.5,902.167 2024.5,901.833 2024.5,901.5C 2026.38,900.779 2026.72,899.779 2025.5,898.5C 2025.5,898.167 2025.5,897.833 2025.5,897.5C 2027.98,895.915 2028.65,893.915 2027.5,891.5C 2027.5,890.833 2027.5,890.167 2027.5,889.5C 2028.59,889.38 2029.25,888.713 2029.5,887.5C 2030.09,884.978 2030.76,882.478 2031.5,880C 2031.43,879.235 2031.1,878.735 2030.5,878.5C 2030.52,876.435 2030.85,874.435 2031.5,872.5C 2034.05,870.2 2034.72,867.533 2033.5,864.5C 2033.83,862.5 2034.17,860.5 2034.5,858.5C 2036.38,857.779 2036.72,856.779 2035.5,855.5C 2035.5,854.833 2035.5,854.167 2035.5,853.5C 2037.38,852.779 2037.72,851.779 2036.5,850.5C 2037.61,844.853 2038.61,839.186 2039.5,833.5C 2041.52,832.462 2041.85,831.128 2040.5,829.5C 2041.7,822.143 2043.04,814.81 2044.5,807.5C 2046.29,803.897 2047.63,799.897 2048.5,795.5C 2048.46,794.584 2048.12,793.917 2047.5,793.5C 2051.35,766.645 2052.52,739.645 2051,712.5C 2050,710.833 2049,709.167 2048,707.5C 2038.58,740.523 2021.42,768.69 1996.5,792C 1981.7,804.213 1964.7,811.047 1945.5,812.5C 1938.17,812.5 1930.83,812.5 1923.5,812.5C 1922.17,812.5 1920.83,812.5 1919.5,812.5C 1918.78,810.618 1917.78,810.285 1916.5,811.5C 1907.77,810.033 1899.43,807.366 1891.5,803.5C 1888.66,800.244 1885,798.244 1880.5,797.5C 1860.84,787.339 1841.51,776.672 1822.5,765.5C 1821.61,763.191 1819.95,761.524 1817.5,760.5C 1816.89,760.624 1816.56,760.957 1816.5,761.5C 1815.5,761.167 1814.83,760.5 1814.5,759.5C 1813.43,758.115 1812.09,756.949 1810.5,756C 1809.56,755.308 1808.9,755.475 1808.5,756.5C 1802.5,752.833 1796.5,749.167 1790.5,745.5C 1789.97,743.554 1788.63,742.554 1786.5,742.5C 1772.94,735.535 1758.94,729.535 1744.5,724.5C 1747.12,714.835 1747.12,705.168 1744.5,695.5C 1763.26,700.365 1780.92,707.865 1797.5,718C 1805.55,724.387 1813.89,730.387 1822.5,736C 1841.67,747.696 1860.67,759.53 1879.5,771.5C 1881.32,773.441 1883.32,774.108 1885.5,773.5C 1886.17,773.5 1886.5,773.833 1886.5,774.5C 1886.37,775.376 1886.7,776.043 1887.5,776.5C 1890.08,777.706 1892.58,779.039 1895,780.5C 1895.4,780.272 1895.57,779.938 1895.5,779.5C 1896.17,779.5 1896.83,779.5 1897.5,779.5C 1897.58,780.75 1898.24,781.583 1899.5,782C 1900.87,782.402 1902.21,782.902 1903.5,783.5C 1904.11,783.376 1904.44,783.043 1904.5,782.5C 1945.2,790.99 1978.03,778.657 2003,745.5C 2017.4,723.7 2027.73,700.033 2034,674.5C 2039.14,656.05 2040.64,637.383 2038.5,618.5C 2039.1,618.265 2039.43,617.765 2039.5,617C 2038.92,615.189 2038.42,613.355 2038,611.5C 2037.58,610.244 2036.75,609.577 2035.5,609.5C 2027.88,581.578 2014.54,556.911 1995.5,535.5C 2002.73,529.049 2007.4,521.049 2009.5,511.5 Z"/></g>
<g><path style="opacity:0.059" fill="#818181" d="M 1525.5,516.5 C 1525.03,517.906 1524.03,518.573 1522.5,518.5C 1522.97,517.094 1523.97,516.427 1525.5,516.5 Z"/></g>
<g><path style="opacity:0.329" fill="#555555" d="M 1818.5,516.5 C 1817.06,518.063 1815.39,519.396 1813.5,520.5C 1814.13,518.003 1815.8,516.67 1818.5,516.5 Z"/></g>
<g><path style="opacity:0.176" fill="#898989" d="M 1940.5,519.5 C 1940.57,521.027 1939.91,522.027 1938.5,522.5C 1938.43,520.973 1939.09,519.973 1940.5,519.5 Z"/></g>
<g><path style="opacity:0.027" fill="#979797" d="M 1521.5,519.5 C 1517.14,524.193 1512.81,528.859 1508.5,533.5C 1508.35,532.448 1508.52,531.448 1509,530.5C 1512.76,526.23 1516.93,522.563 1521.5,519.5 Z"/></g>
<g><path style="opacity:0.525" fill="#6e6e6e" d="M 1810.5,522.5 C 1807.71,526.111 1807.37,529.778 1809.5,533.5C 1808.62,533.631 1807.96,533.298 1807.5,532.5C 1805.75,528.213 1806.75,524.88 1810.5,522.5 Z"/></g>
<g><path style="opacity:0.076" fill="#8a8a8a" d="M 1507.5,534.5 C 1506.49,535.872 1505.49,537.205 1504.5,538.5C 1504.09,536.027 1505.09,534.694 1507.5,534.5 Z"/></g>
<g><path style="opacity:0.1" fill="#818181" d="M 1504.5,538.5 C 1503.49,539.872 1502.49,541.205 1501.5,542.5C 1501.09,540.027 1502.09,538.694 1504.5,538.5 Z"/></g>
<g><path style="opacity:0.188" fill="#7f7f7f" d="M 1501.5,542.5 C 1501.07,543.71 1500.4,544.71 1499.5,545.5C 1499.29,543.821 1499.95,542.821 1501.5,542.5 Z"/></g>
<g><path style="opacity:0.008" fill="#868686" d="M 1961.5,542.5 C 1960.71,543.401 1959.71,544.068 1958.5,544.5C 1958.75,543.078 1959.58,542.078 1961,541.5C 1961.4,541.728 1961.57,542.062 1961.5,542.5 Z"/></g>
<g><path style="opacity:0.455" fill="#4f4f4f" d="M 1465.5,555.5 C 1465.29,559.182 1463.96,562.182 1461.5,564.5C 1462.46,561.256 1463.8,558.256 1465.5,555.5 Z"/></g>
<g><path style="opacity:0.314" fill="#5f5f5f" d="M 1490.5,560.5 C 1490.29,563.241 1489.29,565.574 1487.5,567.5C 1487.71,564.759 1488.71,562.426 1490.5,560.5 Z"/></g>
<g><path style="opacity:0.333" fill="#898989" d="M 1461.5,565.5 C 1462.04,565.56 1462.38,565.893 1462.5,566.5C 1461.73,568.295 1461.07,570.128 1460.5,572C 1460.16,573.03 1459.5,573.53 1458.5,573.5C 1459.51,570.748 1460.51,568.081 1461.5,565.5 Z"/></g>
<g><path style="opacity:0.212" fill="#868686" d="M 1458.5,575.5 C 1459.04,575.56 1459.38,575.893 1459.5,576.5C 1459.19,578.483 1458.19,579.816 1456.5,580.5C 1457.02,578.694 1457.69,577.028 1458.5,575.5 Z"/></g>
<g><path style="opacity:0.553" fill="#4d4d4d" d="M 1487.5,567.5 C 1485.56,574.31 1483.23,580.977 1480.5,587.5C 1479.96,587.44 1479.62,587.107 1479.5,586.5C 1481.8,579.903 1484.47,573.57 1487.5,567.5 Z"/></g>
<g><path style="opacity:0.416" fill="#797979" d="M 1456.5,582.5 C 1457.04,582.56 1457.38,582.893 1457.5,583.5C 1456.09,587.637 1454.76,591.804 1453.5,596C 1453.16,597.03 1452.5,597.53 1451.5,597.5C 1453.03,592.368 1454.69,587.368 1456.5,582.5 Z"/></g>
<g><path style="opacity:0.647" fill="#525252" d="M 1475.5,606.5 C 1474.65,610.227 1473.65,613.893 1472.5,617.5C 1471.96,617.44 1471.62,617.107 1471.5,616.5C 1472.49,613.55 1473.32,610.55 1474,607.5C 1474.38,606.944 1474.88,606.611 1475.5,606.5 Z"/></g>
<g><path style="opacity:0.906" fill="#464646" d="M 2035.5,609.5 C 2036.75,609.577 2037.58,610.244 2038,611.5C 2038.42,613.355 2038.92,615.189 2039.5,617C 2039.43,617.765 2039.1,618.265 2038.5,618.5C 2037.36,615.632 2036.36,612.632 2035.5,609.5 Z"/></g>
<g><path style="opacity:0.725" fill="#3c3c3c" d="M 1467.5,639.5 C 1466.3,643.98 1464.97,648.313 1463.5,652.5C 1463.48,647.53 1464.81,643.197 1467.5,639.5 Z"/></g>
<g><path style="opacity:0.776" fill="#505050" d="M 1463.5,654.5 C 1463.12,656.698 1462.46,658.698 1461.5,660.5C 1461.03,657.918 1461.69,655.918 1463.5,654.5 Z"/></g>
<g><path style="opacity:0.027" fill="#515151" d="M 2071.5,665.5 C 2072.3,667.042 2072.63,668.708 2072.5,670.5C 2072.63,668.708 2072.3,667.042 2071.5,665.5 Z"/></g>
<g><path style="opacity:0.959" fill="#c39320" d="M 1744.5,695.5 C 1747.12,705.168 1747.12,714.835 1744.5,724.5C 1733.36,743.053 1717.36,748.886 1696.5,742C 1690.41,739.069 1685.41,734.902 1681.5,729.5C 1681.74,728.209 1681.4,727.209 1680.5,726.5C 1676.52,717.859 1675.52,708.859 1677.5,699.5C 1681.35,686.817 1689.68,678.65 1702.5,675C 1721.75,671.459 1735.75,678.293 1744.5,695.5 Z"/></g>
<g><path style="opacity:0.024" fill="#5a5a5a" d="M 2072.5,671.5 C 2072.83,673.5 2073.17,675.5 2073.5,677.5C 2072.31,677.03 2071.64,676.03 2071.5,674.5C 2071.52,673.274 2071.85,672.274 2072.5,671.5 Z"/></g>
<g><path style="opacity:0.012" fill="#808080" d="M 2073.5,679.5 C 2074.04,681.117 2074.37,682.784 2074.5,684.5C 2073.35,684.209 2072.68,683.376 2072.5,682C 2072.53,680.93 2072.86,680.097 2073.5,679.5 Z"/></g>
<g><path style="opacity:0.255" fill="#5c5c5c" d="M 1426.5,683.5 C 1426.61,686.216 1425.61,688.216 1423.5,689.5C 1424.13,687.25 1425.13,685.25 1426.5,683.5 Z"/></g>
<g><path style="opacity:1" fill="#e4b441" d="M 1706.5,687.5 C 1724.85,686.688 1733.69,695.355 1733,713.5C 1728.75,726.216 1719.91,731.716 1706.5,730C 1694.53,725.244 1689.37,716.411 1691,703.5C 1693.69,695.65 1698.85,690.316 1706.5,687.5 Z"/></g>
<g><path style="opacity:0.2" fill="#878787" d="M 2074.5,688.5 C 2075.04,690.117 2075.37,691.784 2075.5,693.5C 2074.35,693.209 2073.68,692.376 2073.5,691C 2073.53,689.93 2073.86,689.097 2074.5,688.5 Z"/></g>
<g><path style="opacity:0.027" fill="#707070" d="M 1452.5,689.5 C 1452.23,691.965 1451.57,694.299 1450.5,696.5C 1449.96,696.44 1449.62,696.107 1449.5,695.5C 1450.14,693.22 1451.14,691.22 1452.5,689.5 Z"/></g>
<g><path style="opacity:0.376" fill="#636363" d="M 1422.5,694.5 C 1421.8,697.573 1420.8,700.573 1419.5,703.5C 1419.04,704.298 1418.38,704.631 1417.5,704.5C 1418.66,700.853 1420.32,697.52 1422.5,694.5 Z"/></g>
<g><path style="opacity:0.208" fill="#757575" d="M 1450.5,697.5 C 1449.83,698.833 1449.17,700.167 1448.5,701.5C 1447.35,700.687 1447.35,699.687 1448.5,698.5C 1448.96,697.702 1449.62,697.369 1450.5,697.5 Z"/></g>
<g><path style="opacity:0.99" fill="#080808" d="M 1677.5,699.5 C 1675.52,708.859 1676.52,717.859 1680.5,726.5C 1676.67,728.464 1672.67,730.131 1668.5,731.5C 1661.27,734.783 1654.27,738.616 1647.5,743C 1636.62,751.268 1625.95,759.768 1615.5,768.5C 1614.24,767.984 1613.24,768.65 1612.5,770.5C 1585.57,793.301 1558.24,815.635 1530.5,837.5C 1530.57,837.062 1530.4,836.728 1530,836.5C 1528.96,837.244 1528.46,838.244 1528.5,839.5C 1527.5,840.167 1526.5,840.833 1525.5,841.5C 1525.57,841.062 1525.4,840.728 1525,840.5C 1523.96,841.244 1523.46,842.244 1523.5,843.5C 1522.83,843.833 1522.17,844.167 1521.5,844.5C 1520.24,843.984 1519.24,844.65 1518.5,846.5C 1485.44,875.369 1447.44,895.369 1404.5,906.5C 1403.05,905.115 1402.05,905.448 1401.5,907.5C 1399.19,907.993 1396.86,908.326 1394.5,908.5C 1393.05,907.115 1392.05,907.448 1391.5,909.5C 1390.5,909.5 1389.5,909.5 1388.5,909.5C 1388.08,908.876 1387.42,908.543 1386.5,908.5C 1385.29,908.747 1384.62,909.414 1384.5,910.5C 1383.5,910.5 1382.5,910.5 1381.5,910.5C 1380.22,909.285 1379.22,909.618 1378.5,911.5C 1376.17,911.5 1373.83,911.5 1371.5,911.5C 1370.9,910.861 1370.07,910.528 1369,910.5C 1367.3,910.387 1366.13,911.053 1365.5,912.5C 1355.83,912.5 1346.17,912.5 1336.5,912.5C 1336.38,911.414 1335.71,910.747 1334.5,910.5C 1333.58,910.543 1332.92,910.876 1332.5,911.5C 1313.2,910.34 1294.2,907.34 1275.5,902.5C 1284.98,896.548 1291.31,888.214 1294.5,877.5C 1308.6,884.978 1323.6,889.645 1339.5,891.5C 1340.88,893.597 1342.55,893.93 1344.5,892.5C 1365.49,893.034 1385.82,889.701 1405.5,882.5C 1405.56,883.043 1405.89,883.376 1406.5,883.5C 1408.39,882.391 1410.39,881.557 1412.5,881C 1413.76,880.583 1414.42,879.75 1414.5,878.5C 1428.07,873.051 1441.4,867.051 1454.5,860.5C 1454.43,860.938 1454.6,861.272 1455,861.5C 1456.42,860.54 1457.92,859.707 1459.5,859C 1460.25,858.329 1460.59,857.496 1460.5,856.5C 1491.1,840.039 1519.43,820.372 1545.5,797.5C 1548.17,796.833 1549.83,795.167 1550.5,792.5C 1550.97,791.094 1551.97,790.427 1553.5,790.5C 1556.17,789.833 1557.83,788.167 1558.5,785.5C 1559.5,783.833 1560.83,782.5 1562.5,781.5C 1562.9,782.525 1563.56,782.692 1564.5,782C 1566.46,780.549 1567.8,778.716 1568.5,776.5C 1588.06,758.447 1608.39,741.28 1629.5,725C 1633.07,722.579 1636.74,720.413 1640.5,718.5C 1642.63,718.446 1643.97,717.446 1644.5,715.5C 1644.5,714.833 1644.83,714.5 1645.5,714.5C 1645.56,715.043 1645.89,715.376 1646.5,715.5C 1652.96,712.284 1658.96,708.618 1664.5,704.5C 1668.72,702.559 1673.05,700.892 1677.5,699.5 Z"/></g>
<g><path style="opacity:0.004" fill="#7b7b7b" d="M 2075.5,699.5 C 2075.83,701.5 2076.17,703.5 2076.5,705.5C 2075.31,705.03 2074.64,704.03 2074.5,702.5C 2074.52,701.274 2074.85,700.274 2075.5,699.5 Z"/></g>
<g><path style="opacity:0.663" fill="#5b5b5b" d="M 1417.5,705.5 C 1417.38,709.748 1415.71,713.082 1412.5,715.5C 1414.17,712.123 1415.84,708.789 1417.5,705.5 Z"/></g>
<g><path style="opacity:0.442" fill="#4a4a4a" d="M 1664.5,704.5 C 1658.96,708.618 1652.96,712.284 1646.5,715.5C 1645.89,715.376 1645.56,715.043 1645.5,714.5C 1651.68,710.912 1658.01,707.578 1664.5,704.5 Z"/></g>
<g><path style="opacity:0.027" fill="#858585" d="M 1448.5,702.5 C 1445.26,710.642 1441.26,718.309 1436.5,725.5C 1439.82,718.188 1443.15,710.855 1446.5,703.5C 1446.96,702.702 1447.62,702.369 1448.5,702.5 Z"/></g>
<g><path style="opacity:0.455" fill="#757575" d="M 1644.5,715.5 C 1643.97,717.446 1642.63,718.446 1640.5,718.5C 1641.44,717.026 1642.77,716.026 1644.5,715.5 Z"/></g>
<g><path style="opacity:0.954" fill="#c39321" d="M 1377.5,742.5 C 1381.02,752.049 1381.35,761.715 1378.5,771.5C 1379.79,771.263 1380.79,771.596 1381.5,772.5C 1380.45,772.351 1379.45,772.517 1378.5,773C 1369.48,789.841 1355.48,796.508 1336.5,793C 1313.27,784.026 1305.43,767.526 1313,743.5C 1323.93,724.851 1339.77,719.018 1360.5,726C 1367.99,729.661 1373.66,735.161 1377.5,742.5 Z"/></g>
<g><path style="opacity:0.729" fill="#535353" d="M 1407.5,722.5 C 1406.57,726.429 1404.24,729.095 1400.5,730.5C 1402.86,727.808 1405.2,725.141 1407.5,722.5 Z"/></g>
<g><path style="opacity:0.467" fill="#40403f" d="M 1680.5,726.5 C 1681.4,727.209 1681.74,728.209 1681.5,729.5C 1677.14,730.007 1672.81,730.673 1668.5,731.5C 1672.67,730.131 1676.67,728.464 1680.5,726.5 Z"/></g>
<g><path style="opacity:0.055" fill="#b1b1b1" d="M 1432.5,732.5 C 1432.34,734.153 1431.67,735.486 1430.5,736.5C 1430.23,734.62 1430.9,733.287 1432.5,732.5 Z"/></g>
<g><path style="opacity:1" fill="#e4b441" d="M 1340.5,737.5 C 1358.85,736.688 1367.69,745.355 1367,763.5C 1362.75,776.216 1353.91,781.716 1340.5,780C 1328.53,775.244 1323.37,766.411 1325,753.5C 1327.69,745.65 1332.85,740.316 1340.5,737.5 Z"/></g>
<g><path style="opacity:0.088" fill="#989898" d="M 1430.5,736.5 C 1430.07,737.71 1429.4,738.71 1428.5,739.5C 1428.29,737.821 1428.95,736.821 1430.5,736.5 Z"/></g>
<g><path style="opacity:0.086" fill="#959595" d="M 1428.5,739.5 C 1428.07,740.71 1427.4,741.71 1426.5,742.5C 1426.29,740.821 1426.95,739.821 1428.5,739.5 Z"/></g>
<g><path style="opacity:0.039" fill="#9e9e9e" d="M 1426.5,742.5 C 1426.17,743.5 1425.5,744.167 1424.5,744.5C 1424.5,743.167 1425.17,742.5 1426.5,742.5 Z"/></g>
<g><path style="opacity:0.573" fill="#6f6f6f" d="M 1786.5,742.5 C 1788.63,742.554 1789.97,743.554 1790.5,745.5C 1788.77,744.974 1787.44,743.974 1786.5,742.5 Z"/></g>
<g><path style="opacity:0.02" fill="#525252" d="M 1420.5,749.5 C 1418.83,753.167 1416.17,755.833 1412.5,757.5C 1414.83,754.5 1417.5,751.833 1420.5,749.5 Z"/></g>
<g><path style="opacity:0.212" fill="#5a5a5a" d="M 1808.5,756.5 C 1808.9,755.475 1809.56,755.308 1810.5,756C 1812.09,756.949 1813.43,758.115 1814.5,759.5C 1812.22,759.025 1810.22,758.025 1808.5,756.5 Z"/></g>
<g><path style="opacity:0.004" fill="#6d6d6d" d="M 1816.5,761.5 C 1816.56,760.957 1816.89,760.624 1817.5,760.5C 1819.95,761.524 1821.61,763.191 1822.5,765.5C 1820.5,764.167 1818.5,762.833 1816.5,761.5 Z"/></g>
<g><path style="opacity:0.004" fill="#5b5b5b" d="M 1409.5,760.5 C 1405.16,763.671 1400.5,766.338 1395.5,768.5C 1395.37,767.624 1395.7,766.957 1396.5,766.5C 1400.91,764.547 1405.08,762.213 1409,759.5C 1409.4,759.728 1409.57,760.062 1409.5,760.5 Z"/></g>
<g><path style="opacity:0.088" fill="#9c9c9c" d="M 1615.5,768.5 C 1615.03,769.906 1614.03,770.573 1612.5,770.5C 1613.24,768.65 1614.24,767.984 1615.5,768.5 Z"/></g>
<g><path style="opacity:0.463" fill="#676767" d="M 1879.5,771.5 C 1881.7,771.604 1883.7,772.27 1885.5,773.5C 1883.32,774.108 1881.32,773.441 1879.5,771.5 Z"/></g>
<g><path style="opacity:0.237" fill="#5a5a5a" d="M 1886.5,774.5 C 1889.67,775.917 1892.67,777.583 1895.5,779.5C 1895.57,779.938 1895.4,780.272 1895,780.5C 1892.58,779.039 1890.08,777.706 1887.5,776.5C 1886.7,776.043 1886.37,775.376 1886.5,774.5 Z"/></g>
<g><path style="opacity:0.173" fill="#696969" d="M 1568.5,776.5 C 1567.8,778.716 1566.46,780.549 1564.5,782C 1563.56,782.692 1562.9,782.525 1562.5,781.5C 1564.48,779.863 1566.48,778.196 1568.5,776.5 Z"/></g>
<g><path style="opacity:0.047" fill="#535353" d="M 1897.5,779.5 C 1899.75,780.695 1902.08,781.695 1904.5,782.5C 1904.44,783.043 1904.11,783.376 1903.5,783.5C 1902.21,782.902 1900.87,782.402 1899.5,782C 1898.24,781.583 1897.58,780.75 1897.5,779.5 Z"/></g>
<g><path style="opacity:0.682" fill="#606060" d="M 1558.5,785.5 C 1557.83,788.167 1556.17,789.833 1553.5,790.5C 1554.83,788.5 1556.5,786.833 1558.5,785.5 Z"/></g>
<g><path style="opacity:0.69" fill="#5e5e5e" d="M 1550.5,792.5 C 1549.83,795.167 1548.17,796.833 1545.5,797.5C 1546.83,795.5 1548.5,793.833 1550.5,792.5 Z"/></g>
<g><path style="opacity:0.898" fill="#454545" d="M 2047.5,793.5 C 2048.12,793.917 2048.46,794.584 2048.5,795.5C 2047.63,799.897 2046.29,803.897 2044.5,807.5C 2045.25,802.752 2046.25,798.085 2047.5,793.5 Z"/></g>
<g><path style="opacity:0.665" fill="#3e3e3e" d="M 1880.5,797.5 C 1885,798.244 1888.66,800.244 1891.5,803.5C 1887.64,801.738 1883.97,799.738 1880.5,797.5 Z"/></g>
<g><path style="opacity:0.133" fill="#727272" d="M 1916.5,811.5 C 1917.78,810.285 1918.78,810.618 1919.5,812.5C 1918.39,812.443 1917.39,812.11 1916.5,811.5 Z"/></g>
<g><path style="opacity:0.259" fill="#3c3c3c" d="M 1923.5,812.5 C 1930.83,812.5 1938.17,812.5 1945.5,812.5C 1938.17,813.833 1930.83,813.833 1923.5,812.5 Z"/></g>
<g><path style="opacity:0.145" fill="#747474" d="M 2040.5,829.5 C 2041.85,831.128 2041.52,832.462 2039.5,833.5C 2039.83,832.167 2040.17,830.833 2040.5,829.5 Z"/></g>
<g><path style="opacity:0.957" fill="#c39321" d="M 1294.5,877.5 C 1291.31,888.214 1284.98,896.548 1275.5,902.5C 1251.18,910.904 1234.34,903.237 1225,879.5C 1221.55,861.833 1227.38,848.333 1242.5,839C 1262.74,830.752 1278.91,835.585 1291,853.5C 1294.15,861.168 1295.32,869.168 1294.5,877.5 Z"/></g>
<g><path style="opacity:0.008" fill="#9b9b9b" d="M 1530.5,837.5 C 1530.17,838.5 1529.5,839.167 1528.5,839.5C 1528.46,838.244 1528.96,837.244 1530,836.5C 1530.4,836.728 1530.57,837.062 1530.5,837.5 Z"/></g>
<g><path style="opacity:0.969" fill="#050505" d="M 1913.5,1030.5 C 1913.71,1032.42 1914.38,1032.76 1915.5,1031.5C 1932.69,1032.11 1947.36,1026.44 1959.5,1014.5C 1966.61,1035.73 1981.28,1044.73 2003.5,1041.5C 2001.7,1048.22 1999.7,1054.89 1997.5,1061.5C 1996.62,1061.37 1995.96,1061.7 1995.5,1062.5C 1994.35,1063.69 1994.35,1064.69 1995.5,1065.5C 1995.5,1066.17 1995.17,1066.5 1994.5,1066.5C 1989.6,1075.85 1985.27,1085.52 1981.5,1095.5C 1979.67,1100.48 1977.34,1105.15 1974.5,1109.5C 1970.88,1113.07 1968.55,1117.4 1967.5,1122.5C 1964.92,1123.98 1963.58,1126.32 1963.5,1129.5C 1963.67,1130.49 1963.34,1131.16 1962.5,1131.5C 1960.26,1132.3 1959.26,1133.97 1959.5,1136.5C 1957.95,1136.82 1957.29,1137.82 1957.5,1139.5C 1957.67,1140.49 1957.34,1141.16 1956.5,1141.5C 1954.95,1141.82 1954.29,1142.82 1954.5,1144.5C 1941.86,1164.79 1927.52,1183.79 1911.5,1201.5C 1907.43,1204.56 1904.1,1208.23 1901.5,1212.5C 1901.16,1213.34 1900.49,1213.67 1899.5,1213.5C 1896.2,1215.11 1892.87,1216.77 1889.5,1218.5C 1888.7,1218.96 1888.37,1219.62 1888.5,1220.5C 1874.21,1224.34 1860.55,1222.84 1847.5,1216C 1845.38,1214.95 1843.72,1213.45 1842.5,1211.5C 1840.83,1209.17 1838.83,1207.17 1836.5,1205.5C 1828.43,1197.04 1822.1,1187.37 1817.5,1176.5C 1816.63,1173.09 1815.47,1169.76 1814,1166.5C 1813.5,1164.46 1812.34,1163.12 1810.5,1162.5C 1810.5,1161.83 1810.5,1161.17 1810.5,1160.5C 1810.27,1157.46 1809.27,1154.79 1807.5,1152.5C 1804.2,1146.62 1801.87,1140.28 1800.5,1133.5C 1801.83,1131.18 1801.17,1129.51 1798.5,1128.5C 1797.96,1126.88 1797.63,1125.22 1797.5,1123.5C 1798.1,1123.26 1798.43,1122.76 1798.5,1122C 1798.3,1119.82 1797.3,1118.32 1795.5,1117.5C 1795.5,1116.83 1795.5,1116.17 1795.5,1115.5C 1796.76,1114.38 1796.42,1113.71 1794.5,1113.5C 1794.5,1112.83 1794.5,1112.17 1794.5,1111.5C 1795.76,1110.38 1795.42,1109.71 1793.5,1109.5C 1793.5,1108.83 1793.5,1108.17 1793.5,1107.5C 1794.76,1106.38 1794.42,1105.71 1792.5,1105.5C 1792.37,1103.78 1792.04,1102.12 1791.5,1100.5C 1792.12,1100.08 1792.46,1099.42 1792.5,1098.5C 1792.25,1097.29 1791.59,1096.62 1790.5,1096.5C 1790.5,1096.17 1790.5,1095.83 1790.5,1095.5C 1791.89,1094.05 1791.55,1093.05 1789.5,1092.5C 1789.5,1092.17 1789.5,1091.83 1789.5,1091.5C 1790.89,1090.05 1790.55,1089.05 1788.5,1088.5C 1788.5,1088.17 1788.5,1087.83 1788.5,1087.5C 1789.89,1086.05 1789.55,1085.05 1787.5,1084.5C 1787.5,1084.17 1787.5,1083.83 1787.5,1083.5C 1788.89,1082.05 1788.55,1081.05 1786.5,1080.5C 1786.5,1080.17 1786.5,1079.83 1786.5,1079.5C 1787.83,1077.18 1787.17,1075.51 1784.5,1074.5C 1784.5,1074.17 1784.5,1073.83 1784.5,1073.5C 1785.1,1073.26 1785.43,1072.76 1785.5,1072C 1784.53,1069.89 1783.69,1067.72 1783,1065.5C 1782.5,1063.46 1781.34,1062.12 1779.5,1061.5C 1778.23,1059.29 1777.23,1056.95 1776.5,1054.5C 1776.21,1051.25 1774.87,1048.58 1772.5,1046.5C 1771.76,1046.63 1771.09,1046.46 1770.5,1046C 1771.6,1045.23 1771.6,1044.4 1770.5,1043.5C 1770.57,1041.97 1769.91,1040.97 1768.5,1040.5C 1760.96,1031.12 1751.62,1028.95 1740.5,1034C 1736.46,1036.02 1732.79,1038.52 1729.5,1041.5C 1728.09,1041.97 1727.43,1042.97 1727.5,1044.5C 1725.03,1045.61 1724.03,1047.61 1724.5,1050.5C 1723.66,1054.87 1722.66,1059.21 1721.5,1063.5C 1719.62,1064.22 1719.28,1065.22 1720.5,1066.5C 1714.31,1089.24 1707.81,1111.9 1701,1134.5C 1693.85,1152.3 1687.68,1168.13 1682.5,1182C 1681.31,1182.7 1680.31,1183.53 1679.5,1184.5C 1678.09,1184.97 1677.43,1185.97 1677.5,1187.5C 1677.71,1189.18 1677.05,1190.18 1675.5,1190.5C 1673.9,1191.29 1673.23,1192.62 1673.5,1194.5C 1673.17,1194.5 1672.83,1194.5 1672.5,1194.5C 1667.89,1199.27 1663.06,1203.94 1658,1208.5C 1657.54,1209.09 1657.37,1209.76 1657.5,1210.5C 1655.38,1212.4 1653.05,1214.07 1650.5,1215.5C 1650.44,1214.96 1650.11,1214.62 1649.5,1214.5C 1646.5,1215.48 1644.17,1217.14 1642.5,1219.5C 1639.93,1220.48 1637.27,1221.14 1634.5,1221.5C 1630.83,1220.17 1627.17,1220.17 1623.5,1221.5C 1609.6,1218.21 1598.26,1210.88 1589.5,1199.5C 1586.5,1195.83 1583.17,1192.5 1579.5,1189.5C 1575.94,1185.39 1572.6,1181.05 1569.5,1176.5C 1569.57,1174.97 1568.91,1173.97 1567.5,1173.5C 1559.69,1165.01 1551.02,1157.68 1541.5,1151.5C 1554.89,1151.47 1565.56,1146.14 1573.5,1135.5C 1574.23,1136.71 1574.57,1138.04 1574.5,1139.5C 1573.96,1139.56 1573.62,1139.89 1573.5,1140.5C 1574.2,1143.94 1575.87,1146.61 1578.5,1148.5C 1578.29,1150.18 1578.95,1151.18 1580.5,1151.5C 1580.09,1153.97 1581.09,1155.31 1583.5,1155.5C 1583.37,1158.37 1584.7,1160.03 1587.5,1160.5C 1588.17,1160.5 1588.5,1160.83 1588.5,1161.5C 1588.09,1163.97 1589.09,1165.31 1591.5,1165.5C 1592.17,1165.5 1592.5,1165.83 1592.5,1166.5C 1592.27,1168.93 1593.27,1170.6 1595.5,1171.5C 1596.17,1171.5 1596.5,1171.83 1596.5,1172.5C 1597.08,1174.75 1598.41,1176.42 1600.5,1177.5C 1605,1181.83 1609.66,1186 1614.5,1190C 1627.56,1197.61 1638.72,1195.44 1648,1183.5C 1654.85,1175.12 1660.69,1166.12 1665.5,1156.5C 1667.83,1154.82 1668.83,1152.49 1668.5,1149.5C 1675.63,1127.5 1681.63,1105.5 1686.5,1083.5C 1687.5,1083.53 1688.16,1083.03 1688.5,1082C 1689.61,1080.32 1689.61,1078.82 1688.5,1077.5C 1688.63,1075.78 1688.96,1074.12 1689.5,1072.5C 1691.65,1070.63 1692.99,1068.13 1693.5,1065C 1693.43,1064.24 1693.1,1063.74 1692.5,1063.5C 1692.5,1063.17 1692.5,1062.83 1692.5,1062.5C 1693.5,1062.53 1694.16,1062.03 1694.5,1061C 1697.08,1053.09 1699.75,1045.26 1702.5,1037.5C 1702.33,1036.51 1702.66,1035.84 1703.5,1035.5C 1705.54,1034.09 1706.54,1032.09 1706.5,1029.5C 1708.74,1028.7 1709.74,1027.03 1709.5,1024.5C 1713.53,1021.14 1717.19,1017.47 1720.5,1013.5C 1720.5,1012.83 1720.83,1012.5 1721.5,1012.5C 1721.56,1013.04 1721.89,1013.38 1722.5,1013.5C 1726.15,1012.2 1729.15,1010.2 1731.5,1007.5C 1739.28,1004.99 1747.28,1003.99 1755.5,1004.5C 1755.71,1006.42 1756.38,1006.76 1757.5,1005.5C 1765.49,1006.5 1772.49,1009.66 1778.5,1015C 1790.56,1024.87 1799.22,1037.04 1804.5,1051.5C 1804.93,1054.38 1805.59,1057.21 1806.5,1060C 1806.84,1061.03 1807.5,1061.53 1808.5,1061.5C 1808.5,1061.83 1808.5,1062.17 1808.5,1062.5C 1807.28,1063.78 1807.62,1064.78 1809.5,1065.5C 1809.5,1065.83 1809.5,1066.17 1809.5,1066.5C 1808.9,1066.74 1808.57,1067.24 1808.5,1068C 1808.7,1070.18 1809.7,1071.68 1811.5,1072.5C 1812.32,1075.46 1812.99,1078.46 1813.5,1081.5C 1812.24,1082.62 1812.58,1083.29 1814.5,1083.5C 1815.32,1086.46 1815.99,1089.46 1816.5,1092.5C 1815.24,1093.62 1815.58,1094.29 1817.5,1094.5C 1817.5,1094.83 1817.5,1095.17 1817.5,1095.5C 1816.9,1095.74 1816.57,1096.24 1816.5,1097C 1817.54,1099.77 1818.37,1102.61 1819,1105.5C 1819.24,1107.12 1820.07,1108.12 1821.5,1108.5C 1821.5,1109.17 1821.5,1109.83 1821.5,1110.5C 1820.48,1111.46 1820.48,1112.63 1821.5,1114C 1821.84,1115.03 1822.5,1115.53 1823.5,1115.5C 1823.5,1116.17 1823.5,1116.83 1823.5,1117.5C 1822.48,1118.46 1822.48,1119.63 1823.5,1121C 1823.84,1122.03 1824.5,1122.53 1825.5,1122.5C 1825.5,1122.83 1825.5,1123.17 1825.5,1123.5C 1824.11,1124.95 1824.45,1125.95 1826.5,1126.5C 1826.5,1126.83 1826.5,1127.17 1826.5,1127.5C 1825.9,1127.74 1825.57,1128.24 1825.5,1129C 1825.7,1131.18 1826.7,1132.68 1828.5,1133.5C 1828.5,1133.83 1828.5,1134.17 1828.5,1134.5C 1827.9,1134.74 1827.57,1135.24 1827.5,1136C 1827.7,1138.18 1828.7,1139.68 1830.5,1140.5C 1830.5,1140.83 1830.5,1141.17 1830.5,1141.5C 1829.9,1141.74 1829.57,1142.24 1829.5,1143C 1829.7,1145.18 1830.7,1146.68 1832.5,1147.5C 1832.5,1147.83 1832.5,1148.17 1832.5,1148.5C 1831.9,1148.74 1831.57,1149.24 1831.5,1150C 1831.7,1152.18 1832.7,1153.68 1834.5,1154.5C 1834.5,1154.83 1834.5,1155.17 1834.5,1155.5C 1833.9,1155.74 1833.57,1156.24 1833.5,1157C 1833.7,1159.18 1834.7,1160.68 1836.5,1161.5C 1836.5,1161.83 1836.5,1162.17 1836.5,1162.5C 1835.96,1162.56 1835.62,1162.89 1835.5,1163.5C 1835.88,1165.21 1836.88,1166.21 1838.5,1166.5C 1838.5,1166.83 1838.5,1167.17 1838.5,1167.5C 1837.53,1168.96 1837.86,1170.3 1839.5,1171.5C 1851.97,1193.86 1869.63,1198.03 1892.5,1184C 1898.93,1179.58 1904.76,1174.41 1910,1168.5C 1914.86,1161.43 1919.69,1154.43 1924.5,1147.5C 1926.25,1146.34 1927.25,1144.67 1927.5,1142.5C 1929.25,1141.34 1930.25,1139.67 1930.5,1137.5C 1932.25,1136.34 1933.25,1134.67 1933.5,1132.5C 1937.33,1124.17 1941.66,1116.17 1946.5,1108.5C 1951.46,1102.25 1955.12,1095.25 1957.5,1087.5C 1962.37,1081.76 1965.7,1075.09 1967.5,1067.5C 1968.77,1065.22 1969.77,1062.72 1970.5,1060C 1970.43,1059.24 1970.1,1058.74 1969.5,1058.5C 1970.08,1054.19 1970.41,1049.86 1970.5,1045.5C 1961.29,1048.63 1951.95,1051.46 1942.5,1054C 1919.78,1059.35 1898.78,1055.35 1879.5,1042C 1866.09,1029.93 1854.92,1016.09 1846,1000.5C 1831.37,974.247 1817.54,947.58 1804.5,920.5C 1804.71,918.821 1804.05,917.821 1802.5,917.5C 1802.74,914.966 1801.74,913.3 1799.5,912.5C 1789.12,895.283 1775.45,881.117 1758.5,870C 1735.62,866.076 1716.79,873.243 1702,891.5C 1695.64,899.358 1689.14,907.025 1682.5,914.5C 1680.41,915.585 1679.08,917.251 1678.5,919.5C 1676.74,920.262 1675.74,921.596 1675.5,923.5C 1674.83,924.833 1673.83,925.833 1672.5,926.5C 1670.74,927.262 1669.74,928.596 1669.5,930.5C 1657.88,945.119 1645.55,959.119 1632.5,972.5C 1627.17,977.167 1622.17,982.167 1617.5,987.5C 1581.24,1022.26 1537.91,1039.59 1487.5,1039.5C 1488.56,1035.83 1489.72,1032.17 1491,1028.5C 1491.5,1023.51 1491.67,1018.51 1491.5,1013.5C 1523.34,1011.83 1553.01,1003 1580.5,987C 1588.04,980.62 1595.71,974.453 1603.5,968.5C 1608.83,965.167 1613.17,960.833 1616.5,955.5C 1617.17,954.167 1618.17,953.167 1619.5,952.5C 1621.91,951.089 1623.58,949.089 1624.5,946.5C 1624.43,944.973 1625.09,943.973 1626.5,943.5C 1629.95,942.388 1631.95,940.055 1632.5,936.5C 1633.17,935.167 1634.17,934.167 1635.5,933.5C 1638.95,932.388 1640.95,930.055 1641.5,926.5C 1641.83,925.5 1642.5,924.833 1643.5,924.5C 1646.17,923.833 1647.83,922.167 1648.5,919.5C 1650.17,917.167 1652.17,915.167 1654.5,913.5C 1656.59,912.415 1657.92,910.749 1658.5,908.5C 1662.13,903.206 1666.46,898.539 1671.5,894.5C 1673.59,893.415 1674.92,891.749 1675.5,889.5C 1676.5,887.833 1677.83,886.5 1679.5,885.5C 1680.91,885.027 1681.57,884.027 1681.5,882.5C 1683.5,879.833 1685.83,877.5 1688.5,875.5C 1690.59,874.415 1691.92,872.749 1692.5,870.5C 1693.83,868.5 1695.5,866.833 1697.5,865.5C 1702.23,861.773 1706.23,857.44 1709.5,852.5C 1709.5,851.833 1709.83,851.5 1710.5,851.5C 1712.33,852.718 1713.33,852.051 1713.5,849.5C 1713.83,849.5 1714.17,849.5 1714.5,849.5C 1716.82,849.008 1718.82,848.008 1720.5,846.5C 1743.92,834.118 1765.92,836.285 1786.5,853C 1801.86,867.255 1814.69,883.422 1825,901.5C 1836.57,921.632 1846.23,942.632 1854,964.5C 1863.08,984.231 1875.25,1001.73 1890.5,1017C 1897.6,1022.55 1905.26,1027.05 1913.5,1030.5 Z"/></g>
<g><path style="opacity:0.004" fill="#a2a2a2" d="M 1525.5,841.5 C 1525.17,842.5 1524.5,843.167 1523.5,843.5C 1523.46,842.244 1523.96,841.244 1525,840.5C 1525.4,840.728 1525.57,841.062 1525.5,841.5 Z"/></g>
<g><path style="opacity:0.008" fill="#848484" d="M 1521.5,844.5 C 1521.03,845.906 1520.03,846.573 1518.5,846.5C 1519.24,844.65 1520.24,843.984 1521.5,844.5 Z"/></g>
<g><path style="opacity:0.404" fill="#787878" d="M 1720.5,846.5 C 1718.82,848.008 1716.82,849.008 1714.5,849.5C 1715.91,847.461 1717.91,846.461 1720.5,846.5 Z"/></g>
<g><path style="opacity:1" fill="#e4b441" d="M 1254.5,849.5 C 1272.85,848.688 1281.69,857.355 1281,875.5C 1276.75,888.216 1267.91,893.716 1254.5,892C 1242.53,887.244 1237.37,878.411 1239,865.5C 1241.69,857.65 1246.85,852.316 1254.5,849.5 Z"/></g>
<g><path style="opacity:0.549" fill="#6e6e6e" d="M 1713.5,849.5 C 1713.33,852.051 1712.33,852.718 1710.5,851.5C 1711.5,850.833 1712.5,850.167 1713.5,849.5 Z"/></g>
<g><path style="opacity:0.102" fill="#858585" d="M 2036.5,850.5 C 2037.72,851.779 2037.38,852.779 2035.5,853.5C 2035.56,852.391 2035.89,851.391 2036.5,850.5 Z"/></g>
<g><path style="opacity:0.106" fill="#818181" d="M 2035.5,855.5 C 2036.72,856.779 2036.38,857.779 2034.5,858.5C 2034.56,857.391 2034.89,856.391 2035.5,855.5 Z"/></g>
<g><path style="opacity:0.69" fill="#505050" d="M 1460.5,856.5 C 1460.59,857.496 1460.25,858.329 1459.5,859C 1457.92,859.707 1456.42,860.54 1455,861.5C 1454.6,861.272 1454.43,860.938 1454.5,860.5C 1456.46,859.18 1458.46,857.846 1460.5,856.5 Z"/></g>
<g><path style="opacity:0.604" fill="#666666" d="M 1709.5,852.5 C 1706.23,857.44 1702.23,861.773 1697.5,865.5C 1700.77,860.56 1704.77,856.227 1709.5,852.5 Z"/></g>
<g><path style="opacity:0.82" fill="#4f4f4f" d="M 2033.5,864.5 C 2034.72,867.533 2034.05,870.2 2031.5,872.5C 2032.04,869.782 2032.71,867.115 2033.5,864.5 Z"/></g>
<g><path style="opacity:0.51" fill="#6e6e6e" d="M 1692.5,870.5 C 1691.92,872.749 1690.59,874.415 1688.5,875.5C 1689.08,873.251 1690.41,871.585 1692.5,870.5 Z"/></g>
<g><path style="opacity:0.855" fill="#3d3d3d" d="M 1414.5,878.5 C 1414.42,879.75 1413.76,880.583 1412.5,881C 1410.39,881.557 1408.39,882.391 1406.5,883.5C 1405.89,883.376 1405.56,883.043 1405.5,882.5C 1408.32,880.928 1411.32,879.594 1414.5,878.5 Z"/></g>
<g><path style="opacity:0.271" fill="#575757" d="M 2030.5,878.5 C 2031.1,878.735 2031.43,879.235 2031.5,880C 2030.76,882.478 2030.09,884.978 2029.5,887.5C 2029.25,888.713 2028.59,889.38 2027.5,889.5C 2028.35,885.773 2029.35,882.107 2030.5,878.5 Z"/></g>
<g><path style="opacity:0.549" fill="#707070" d="M 1681.5,882.5 C 1681.57,884.027 1680.91,885.027 1679.5,885.5C 1679.43,883.973 1680.09,882.973 1681.5,882.5 Z"/></g>
<g><path style="opacity:0.741" fill="#5b5b5b" d="M 1339.5,891.5 C 1341.29,891.366 1342.96,891.699 1344.5,892.5C 1342.55,893.93 1340.88,893.597 1339.5,891.5 Z"/></g>
<g><path style="opacity:0.588" fill="#505050" d="M 1675.5,889.5 C 1674.92,891.749 1673.59,893.415 1671.5,894.5C 1672.08,892.251 1673.41,890.585 1675.5,889.5 Z"/></g>
<g><path style="opacity:0.518" fill="#4c4c4c" d="M 2027.5,891.5 C 2028.65,893.915 2027.98,895.915 2025.5,897.5C 2025.88,895.302 2026.54,893.302 2027.5,891.5 Z"/></g>
<g><path style="opacity:0.396" fill="#6f6f6f" d="M 2025.5,898.5 C 2026.72,899.779 2026.38,900.779 2024.5,901.5C 2024.56,900.391 2024.89,899.391 2025.5,898.5 Z"/></g>
<g><path style="opacity:0.008" fill="#8b8b8b" d="M 1404.5,906.5 C 1403.61,907.11 1402.61,907.443 1401.5,907.5C 1402.05,905.448 1403.05,905.115 1404.5,906.5 Z"/></g>
<g><path style="opacity:0.482" fill="#707070" d="M 2024.5,902.5 C 2025.61,903.823 2025.61,905.323 2024.5,907C 2024.16,908.03 2023.5,908.53 2022.5,908.5C 2023.17,906.5 2023.83,904.5 2024.5,902.5 Z"/></g>
<g><path style="opacity:0.043" fill="#777777" d="M 1394.5,908.5 C 1393.61,909.11 1392.61,909.443 1391.5,909.5C 1392.05,907.448 1393.05,907.115 1394.5,908.5 Z"/></g>
<g><path style="opacity:0.035" fill="#707070" d="M 1388.5,909.5 C 1387.29,910.234 1385.96,910.567 1384.5,910.5C 1384.62,909.414 1385.29,908.747 1386.5,908.5C 1387.42,908.543 1388.08,908.876 1388.5,909.5 Z"/></g>
<g><path style="opacity:0.004" fill="#a9a9a9" d="M 1381.5,910.5 C 1380.61,911.11 1379.61,911.443 1378.5,911.5C 1379.22,909.618 1380.22,909.285 1381.5,910.5 Z"/></g>
<g><path style="opacity:0.027" fill="#8a8a8a" d="M 1336.5,912.5 C 1334.9,912.768 1333.57,912.434 1332.5,911.5C 1332.92,910.876 1333.58,910.543 1334.5,910.5C 1335.71,910.747 1336.38,911.414 1336.5,912.5 Z"/></g>
<g><path style="opacity:0.008" fill="#969696" d="M 1371.5,911.5 C 1369.56,912.15 1367.56,912.483 1365.5,912.5C 1366.13,911.053 1367.3,910.387 1369,910.5C 1370.07,910.528 1370.9,910.861 1371.5,911.5 Z"/></g>
<g><path style="opacity:0.58" fill="#545454" d="M 1658.5,908.5 C 1657.92,910.749 1656.59,912.415 1654.5,913.5C 1655.08,911.251 1656.41,909.585 1658.5,908.5 Z"/></g>
<g><path style="opacity:0.506" fill="#7d7d7d" d="M 2022.5,909.5 C 2023.89,910.947 2023.55,911.947 2021.5,912.5C 2022.11,911.609 2022.44,910.609 2022.5,909.5 Z"/></g>
<g><path style="opacity:0.502" fill="#757575" d="M 1799.5,912.5 C 1801.74,913.3 1802.74,914.966 1802.5,917.5C 1801.26,916.035 1800.26,914.368 1799.5,912.5 Z"/></g>
<g><path style="opacity:0.078" fill="#4d4d4d" d="M 1682.5,914.5 C 1681.92,916.749 1680.59,918.415 1678.5,919.5C 1679.08,917.251 1680.41,915.585 1682.5,914.5 Z"/></g>
<g><path style="opacity:0.008" fill="#757575" d="M 1802.5,917.5 C 1804.05,917.821 1804.71,918.821 1804.5,920.5C 1803.6,919.71 1802.93,918.71 1802.5,917.5 Z"/></g>
<g><path style="opacity:0.02" fill="#b0b0b0" d="M 1678.5,919.5 C 1678.26,921.404 1677.26,922.738 1675.5,923.5C 1675.74,921.596 1676.74,920.262 1678.5,919.5 Z"/></g>
<g><path style="opacity:0.537" fill="#666666" d="M 2020.5,917.5 C 2021.61,918.823 2021.61,920.323 2020.5,922C 2020.16,923.03 2019.5,923.53 2018.5,923.5C 2019.17,921.5 2019.83,919.5 2020.5,917.5 Z"/></g>
<g><path style="opacity:0.404" fill="#858585" d="M 1648.5,919.5 C 1647.83,922.167 1646.17,923.833 1643.5,924.5C 1644.83,922.5 1646.5,920.833 1648.5,919.5 Z"/></g>
<g><path style="opacity:0.035" fill="#898989" d="M 1672.5,926.5 C 1672.26,928.404 1671.26,929.738 1669.5,930.5C 1669.74,928.596 1670.74,927.262 1672.5,926.5 Z"/></g>
<g><path style="opacity:0.467" fill="#747474" d="M 2017.5,928.5 C 2018.76,929.623 2018.42,930.289 2016.5,930.5C 2016.33,929.508 2016.66,928.842 2017.5,928.5 Z"/></g>
<g><path style="opacity:0.478" fill="#7c7c7c" d="M 1641.5,926.5 C 1640.95,930.055 1638.95,932.388 1635.5,933.5C 1637.27,930.94 1639.27,928.607 1641.5,926.5 Z"/></g>
<g><path style="opacity:0.671" fill="#6b6b6b" d="M 2016.5,931.5 C 2017.61,932.823 2017.61,934.323 2016.5,936C 2016.16,937.03 2015.5,937.53 2014.5,937.5C 2014.97,935.421 2015.64,933.421 2016.5,931.5 Z"/></g>
<g><path style="opacity:0.196" fill="#8e8e8e" d="M 2014.5,938.5 C 2015.76,939.623 2015.42,940.289 2013.5,940.5C 2013.33,939.508 2013.66,938.842 2014.5,938.5 Z"/></g>
<g><path style="opacity:0.525" fill="#7b7b7b" d="M 1632.5,936.5 C 1631.95,940.055 1629.95,942.388 1626.5,943.5C 1628.53,941.142 1630.53,938.808 1632.5,936.5 Z"/></g>
<g><path style="opacity:0.502" fill="#767676" d="M 1624.5,946.5 C 1623.58,949.089 1621.91,951.089 1619.5,952.5C 1620.42,949.911 1622.09,947.911 1624.5,946.5 Z"/></g>
<g><path style="opacity:0.4" fill="#777777" d="M 2013.5,941.5 C 2014.1,941.735 2014.43,942.235 2014.5,943C 2012.83,948 2011.17,953 2009.5,958C 2009.16,959.03 2008.5,959.53 2007.5,959.5C 2009.5,953.5 2011.5,947.5 2013.5,941.5 Z"/></g>
<g><path style="opacity:0.651" fill="#494949" d="M 1616.5,955.5 C 1613.17,960.833 1608.83,965.167 1603.5,968.5C 1607.5,963.833 1611.83,959.5 1616.5,955.5 Z"/></g>
<g><path style="opacity:0.282" fill="#686868" d="M 2007.5,961.5 C 2008.04,961.56 2008.38,961.893 2008.5,962.5C 2007.64,964.911 2006.31,966.911 2004.5,968.5C 2005.26,965.982 2006.26,963.649 2007.5,961.5 Z"/></g>
<g><path style="opacity:0.97" fill="#c29321" d="M 2000.5,971.5 C 2010.48,975.139 2018.81,981.139 2025.5,989.5C 2034.69,1011.08 2029.36,1027.91 2009.5,1040C 2007.56,1040.81 2005.56,1041.31 2003.5,1041.5C 1981.28,1044.73 1966.61,1035.73 1959.5,1014.5C 1958.48,986.188 1972.14,971.855 2000.5,971.5 Z"/></g>
<g><path style="opacity:0.225" fill="#6d6d6d" d="M 1632.5,972.5 C 1628.5,978.5 1623.5,983.5 1617.5,987.5C 1622.17,982.167 1627.17,977.167 1632.5,972.5 Z"/></g>
<g><path style="opacity:0.953" fill="#c39321" d="M 1491.5,1013.5 C 1491.67,1018.51 1491.5,1023.51 1491,1028.5C 1489.72,1032.17 1488.56,1035.83 1487.5,1039.5C 1476.03,1055.82 1460.69,1060.66 1441.5,1054C 1422.05,1042.32 1416.55,1025.82 1425,1004.5C 1434.33,989.379 1447.83,983.545 1465.5,987C 1479.06,991.058 1487.73,999.892 1491.5,1013.5 Z"/></g>
<g><path style="opacity:1" fill="#e4b441" d="M 1989.5,986.5 C 2007.85,985.688 2016.69,994.355 2016,1012.5C 2011.75,1025.22 2002.91,1030.72 1989.5,1029C 1977.53,1024.24 1972.37,1015.41 1974,1002.5C 1976.69,994.65 1981.85,989.316 1989.5,986.5 Z"/></g>
<g><path style="opacity:1" fill="#e4b441" d="M 1450.5,999.5 C 1468.85,998.688 1477.69,1007.35 1477,1025.5C 1472.75,1038.22 1463.91,1043.72 1450.5,1042C 1438.53,1037.24 1433.37,1028.41 1435,1015.5C 1437.69,1007.65 1442.85,1002.32 1450.5,999.5 Z"/></g>
<g><path style="opacity:0.235" fill="#9d9d9d" d="M 1755.5,1004.5 C 1756.49,1004.33 1757.16,1004.66 1757.5,1005.5C 1756.38,1006.76 1755.71,1006.42 1755.5,1004.5 Z"/></g>
<g><path style="opacity:0.38" fill="#555555" d="M 1731.5,1007.5 C 1729.15,1010.2 1726.15,1012.2 1722.5,1013.5C 1721.89,1013.38 1721.56,1013.04 1721.5,1012.5C 1724.83,1010.83 1728.17,1009.17 1731.5,1007.5 Z"/></g>
<g><path style="opacity:0.19" fill="#4a4a4a" d="M 1720.5,1013.5 C 1717.19,1017.47 1713.53,1021.14 1709.5,1024.5C 1712.17,1019.83 1715.83,1016.17 1720.5,1013.5 Z"/></g>
<g><path style="opacity:0.098" fill="#555555" d="M 1709.5,1024.5 C 1709.74,1027.03 1708.74,1028.7 1706.5,1029.5C 1707.11,1027.57 1708.11,1025.9 1709.5,1024.5 Z"/></g>
<g><path style="opacity:0.502" fill="#6d6d6d" d="M 1913.5,1030.5 C 1914.49,1030.33 1915.16,1030.66 1915.5,1031.5C 1914.38,1032.76 1913.71,1032.42 1913.5,1030.5 Z"/></g>
<g><path style="opacity:0.184" fill="#8e8e8e" d="M 1706.5,1029.5 C 1706.54,1032.09 1705.54,1034.09 1703.5,1035.5C 1703.99,1033.18 1704.99,1031.18 1706.5,1029.5 Z"/></g>
<g><path style="opacity:0.012" fill="#7e7e7e" d="M 1729.5,1041.5 C 1729.57,1043.03 1728.91,1044.03 1727.5,1044.5C 1727.43,1042.97 1728.09,1041.97 1729.5,1041.5 Z"/></g>
<g><path style="opacity:0.149" fill="#717171" d="M 1768.5,1040.5 C 1769.91,1040.97 1770.57,1041.97 1770.5,1043.5C 1769.09,1043.03 1768.43,1042.03 1768.5,1040.5 Z"/></g>
<g><path style="opacity:0.431" fill="#606060" d="M 1727.5,1044.5 C 1726.49,1046.54 1725.49,1048.54 1724.5,1050.5C 1724.03,1047.61 1725.03,1045.61 1727.5,1044.5 Z"/></g>
<g><path style="opacity:0.249" fill="#777777" d="M 1702.5,1037.5 C 1699.75,1045.26 1697.08,1053.09 1694.5,1061C 1694.16,1062.03 1693.5,1062.53 1692.5,1062.5C 1695.07,1053.79 1698.4,1045.45 1702.5,1037.5 Z"/></g>
<g><path style="opacity:0.137" fill="#7c7c7c" d="M 1772.5,1046.5 C 1774.87,1048.58 1776.21,1051.25 1776.5,1054.5C 1774.13,1052.42 1772.79,1049.75 1772.5,1046.5 Z"/></g>
<g><path style="opacity:0.341" fill="#545454" d="M 1804.5,1051.5 C 1806.4,1054.53 1807.74,1057.87 1808.5,1061.5C 1807.5,1061.53 1806.84,1061.03 1806.5,1060C 1805.59,1057.21 1804.93,1054.38 1804.5,1051.5 Z"/></g>
<g><path style="opacity:0.467" fill="#6f6f6f" d="M 1808.5,1062.5 C 1809.11,1063.39 1809.44,1064.39 1809.5,1065.5C 1807.62,1064.78 1807.28,1063.78 1808.5,1062.5 Z"/></g>
<g><path style="opacity:0.176" fill="#737373" d="M 1779.5,1061.5 C 1781.34,1062.12 1782.5,1063.46 1783,1065.5C 1783.69,1067.72 1784.53,1069.89 1785.5,1072C 1785.43,1072.76 1785.1,1073.26 1784.5,1073.5C 1782.83,1069.5 1781.17,1065.5 1779.5,1061.5 Z"/></g>
<g><path style="opacity:0.059" fill="#828282" d="M 1997.5,1061.5 C 1996.83,1062.83 1996.17,1064.17 1995.5,1065.5C 1994.35,1064.69 1994.35,1063.69 1995.5,1062.5C 1995.96,1061.7 1996.62,1061.37 1997.5,1061.5 Z"/></g>
<g><path style="opacity:0.478" fill="#6f6f6f" d="M 1721.5,1063.5 C 1721.44,1064.61 1721.11,1065.61 1720.5,1066.5C 1719.28,1065.22 1719.62,1064.22 1721.5,1063.5 Z"/></g>
<g><path style="opacity:0.569" fill="#515151" d="M 1969.5,1058.5 C 1970.1,1058.74 1970.43,1059.24 1970.5,1060C 1969.77,1062.72 1968.77,1065.22 1967.5,1067.5C 1967.76,1064.4 1968.42,1061.4 1969.5,1058.5 Z"/></g>
<g><path style="opacity:0.263" fill="#6a6a6a" d="M 1692.5,1063.5 C 1693.1,1063.74 1693.43,1064.24 1693.5,1065C 1692.99,1068.13 1691.65,1070.63 1689.5,1072.5C 1690.35,1069.45 1691.35,1066.45 1692.5,1063.5 Z"/></g>
<g><path style="opacity:0.38" fill="#606060" d="M 1809.5,1066.5 C 1810.17,1068.5 1810.83,1070.5 1811.5,1072.5C 1809.7,1071.68 1808.7,1070.18 1808.5,1068C 1808.57,1067.24 1808.9,1066.74 1809.5,1066.5 Z"/></g>
<g><path style="opacity:0.733" fill="#505050" d="M 1784.5,1074.5 C 1787.17,1075.51 1787.83,1077.18 1786.5,1079.5C 1785.83,1077.83 1785.17,1076.17 1784.5,1074.5 Z"/></g>
<g><path style="opacity:0.624" fill="#565656" d="M 1967.5,1067.5 C 1965.7,1075.09 1962.37,1081.76 1957.5,1087.5C 1960.87,1080.76 1964.2,1074.1 1967.5,1067.5 Z"/></g>
<g><path style="opacity:0.031" fill="#737373" d="M 1994.5,1066.5 C 1991.12,1076.65 1986.79,1086.32 1981.5,1095.5C 1985.27,1085.52 1989.6,1075.85 1994.5,1066.5 Z"/></g>
<g><path style="opacity:0.957" fill="#c39321" d="M 1573.5,1135.5 C 1565.56,1146.14 1554.89,1151.47 1541.5,1151.5C 1524.71,1150.35 1513.87,1141.68 1509,1125.5C 1505.55,1107.83 1511.38,1094.33 1526.5,1085C 1543.33,1077.99 1558.17,1080.82 1571,1093.5C 1578.1,1103.03 1580.43,1113.69 1578,1125.5C 1577.16,1129.19 1575.66,1132.52 1573.5,1135.5 Z"/></g>
<g><path style="opacity:0.231" fill="#656565" d="M 1688.5,1077.5 C 1689.61,1078.82 1689.61,1080.32 1688.5,1082C 1688.16,1083.03 1687.5,1083.53 1686.5,1083.5C 1687.17,1081.5 1687.83,1079.5 1688.5,1077.5 Z"/></g>
<g><path style="opacity:0.212" fill="#707070" d="M 1786.5,1080.5 C 1788.55,1081.05 1788.89,1082.05 1787.5,1083.5C 1787.44,1082.39 1787.11,1081.39 1786.5,1080.5 Z"/></g>
<g><path style="opacity:0.075" fill="#767676" d="M 1813.5,1081.5 C 1814.34,1081.84 1814.67,1082.51 1814.5,1083.5C 1812.58,1083.29 1812.24,1082.62 1813.5,1081.5 Z"/></g>
<g><path style="opacity:0.216" fill="#7b7b7b" d="M 1787.5,1084.5 C 1789.55,1085.05 1789.89,1086.05 1788.5,1087.5C 1788.44,1086.39 1788.11,1085.39 1787.5,1084.5 Z"/></g>
<g><path style="opacity:0.506" fill="#797979" d="M 1788.5,1088.5 C 1790.55,1089.05 1790.89,1090.05 1789.5,1091.5C 1789.44,1090.39 1789.11,1089.39 1788.5,1088.5 Z"/></g>
<g><path style="opacity:0.357" fill="#797979" d="M 1789.5,1092.5 C 1791.55,1093.05 1791.89,1094.05 1790.5,1095.5C 1789.89,1094.61 1789.56,1093.61 1789.5,1092.5 Z"/></g>
<g><path style="opacity:0.082" fill="#6f6f6f" d="M 1816.5,1092.5 C 1817.34,1092.84 1817.67,1093.51 1817.5,1094.5C 1815.58,1094.29 1815.24,1093.62 1816.5,1092.5 Z"/></g>
<g><path style="opacity:1" fill="#e4b441" d="M 1537.5,1095.5 C 1555.85,1094.69 1564.69,1103.35 1564,1121.5C 1559.75,1134.22 1550.91,1139.72 1537.5,1138C 1525.53,1133.24 1520.37,1124.41 1522,1111.5C 1524.69,1103.65 1529.85,1098.32 1537.5,1095.5 Z"/></g>
<g><path style="opacity:0.463" fill="#737373" d="M 1790.5,1096.5 C 1791.59,1096.62 1792.25,1097.29 1792.5,1098.5C 1792.46,1099.42 1792.12,1100.08 1791.5,1100.5C 1791.17,1099.17 1790.83,1097.83 1790.5,1096.5 Z"/></g>
<g><path style="opacity:0.165" fill="#525252" d="M 1957.5,1087.5 C 1955.12,1095.25 1951.46,1102.25 1946.5,1108.5C 1949.41,1101.02 1953.07,1094.02 1957.5,1087.5 Z"/></g>
<g><path style="opacity:0.38" fill="#7c7c7c" d="M 1792.5,1105.5 C 1794.42,1105.71 1794.76,1106.38 1793.5,1107.5C 1792.66,1107.16 1792.33,1106.49 1792.5,1105.5 Z"/></g>
<g><path style="opacity:0.455" fill="#707070" d="M 1817.5,1095.5 C 1818.99,1099.79 1820.32,1104.12 1821.5,1108.5C 1820.07,1108.12 1819.24,1107.12 1819,1105.5C 1818.37,1102.61 1817.54,1099.77 1816.5,1097C 1816.57,1096.24 1816.9,1095.74 1817.5,1095.5 Z"/></g>
<g><path style="opacity:0.388" fill="#797979" d="M 1793.5,1109.5 C 1795.42,1109.71 1795.76,1110.38 1794.5,1111.5C 1793.66,1111.16 1793.33,1110.49 1793.5,1109.5 Z"/></g>
<g><path style="opacity:0.067" fill="#787878" d="M 1821.5,1110.5 C 1822.31,1112.03 1822.98,1113.69 1823.5,1115.5C 1822.5,1115.53 1821.84,1115.03 1821.5,1114C 1820.48,1112.63 1820.48,1111.46 1821.5,1110.5 Z"/></g>
<g><path style="opacity:0.031" fill="#636363" d="M 1974.5,1109.5 C 1972.56,1114.09 1970.23,1118.42 1967.5,1122.5C 1968.55,1117.4 1970.88,1113.07 1974.5,1109.5 Z"/></g>
<g><path style="opacity:0.392" fill="#757575" d="M 1794.5,1113.5 C 1796.42,1113.71 1796.76,1114.38 1795.5,1115.5C 1794.66,1115.16 1794.33,1114.49 1794.5,1113.5 Z"/></g>
<g><path style="opacity:0.051" fill="#838383" d="M 1823.5,1117.5 C 1824.31,1119.03 1824.98,1120.69 1825.5,1122.5C 1824.5,1122.53 1823.84,1122.03 1823.5,1121C 1822.48,1119.63 1822.48,1118.46 1823.5,1117.5 Z"/></g>
<g><path style="opacity:0.145" fill="#585858" d="M 1795.5,1117.5 C 1797.3,1118.32 1798.3,1119.82 1798.5,1122C 1798.43,1122.76 1798.1,1123.26 1797.5,1123.5C 1796.83,1121.5 1796.17,1119.5 1795.5,1117.5 Z"/></g>
<g><path style="opacity:0.043" fill="#797979" d="M 1825.5,1123.5 C 1825.56,1124.61 1825.89,1125.61 1826.5,1126.5C 1824.45,1125.95 1824.11,1124.95 1825.5,1123.5 Z"/></g>
<g><path style="opacity:0.255" fill="#757575" d="M 1967.5,1122.5 C 1966.42,1125 1965.08,1127.34 1963.5,1129.5C 1963.58,1126.32 1964.92,1123.98 1967.5,1122.5 Z"/></g>
<g><path style="opacity:0.831" fill="#4e4e4e" d="M 1798.5,1128.5 C 1801.17,1129.51 1801.83,1131.18 1800.5,1133.5C 1799.83,1131.83 1799.17,1130.17 1798.5,1128.5 Z"/></g>
<g><path style="opacity:0.035" fill="#707070" d="M 1826.5,1127.5 C 1827.17,1129.5 1827.83,1131.5 1828.5,1133.5C 1826.7,1132.68 1825.7,1131.18 1825.5,1129C 1825.57,1128.24 1825.9,1127.74 1826.5,1127.5 Z"/></g>
<g><path style="opacity:0.184" fill="#939393" d="M 1962.5,1131.5 C 1961.74,1133.37 1960.74,1135.04 1959.5,1136.5C 1959.26,1133.97 1960.26,1132.3 1962.5,1131.5 Z"/></g>
<g><path style="opacity:0.435" fill="#757575" d="M 1933.5,1132.5 C 1933.25,1134.67 1932.25,1136.34 1930.5,1137.5C 1930.75,1135.33 1931.75,1133.66 1933.5,1132.5 Z"/></g>
<g><path style="opacity:0.167" fill="#6f6f6f" d="M 1959.5,1136.5 C 1959.07,1137.71 1958.4,1138.71 1957.5,1139.5C 1957.29,1137.82 1957.95,1136.82 1959.5,1136.5 Z"/></g>
<g><path style="opacity:0.035" fill="#757575" d="M 1828.5,1134.5 C 1829.17,1136.5 1829.83,1138.5 1830.5,1140.5C 1828.7,1139.68 1827.7,1138.18 1827.5,1136C 1827.57,1135.24 1827.9,1134.74 1828.5,1134.5 Z"/></g>
<g><path style="opacity:0.451" fill="#7b7b7b" d="M 1930.5,1137.5 C 1930.25,1139.67 1929.25,1141.34 1927.5,1142.5C 1927.75,1140.33 1928.75,1138.66 1930.5,1137.5 Z"/></g>
<g><path style="opacity:0.251" fill="#878787" d="M 1956.5,1141.5 C 1956.07,1142.71 1955.4,1143.71 1954.5,1144.5C 1954.29,1142.82 1954.95,1141.82 1956.5,1141.5 Z"/></g>
<g><path style="opacity:0.416" fill="#555555" d="M 1574.5,1139.5 C 1575.56,1142.62 1576.89,1145.62 1578.5,1148.5C 1575.87,1146.61 1574.2,1143.94 1573.5,1140.5C 1573.62,1139.89 1573.96,1139.56 1574.5,1139.5 Z"/></g>
<g><path style="opacity:0.494" fill="#747474" d="M 1927.5,1142.5 C 1927.25,1144.67 1926.25,1146.34 1924.5,1147.5C 1924.75,1145.33 1925.75,1143.66 1927.5,1142.5 Z"/></g>
<g><path style="opacity:0.031" fill="#767676" d="M 1830.5,1141.5 C 1831.17,1143.5 1831.83,1145.5 1832.5,1147.5C 1830.7,1146.68 1829.7,1145.18 1829.5,1143C 1829.57,1142.24 1829.9,1141.74 1830.5,1141.5 Z"/></g>
<g><path style="opacity:0.092" fill="#858585" d="M 1578.5,1148.5 C 1579.4,1149.29 1580.07,1150.29 1580.5,1151.5C 1578.95,1151.18 1578.29,1150.18 1578.5,1148.5 Z"/></g>
<g><path style="opacity:0.753" fill="#545454" d="M 1668.5,1149.5 C 1668.83,1152.49 1667.83,1154.82 1665.5,1156.5C 1665.93,1153.84 1666.93,1151.51 1668.5,1149.5 Z"/></g>
<g><path style="opacity:0.027" fill="#767676" d="M 1832.5,1148.5 C 1833.17,1150.5 1833.83,1152.5 1834.5,1154.5C 1832.7,1153.68 1831.7,1152.18 1831.5,1150C 1831.57,1149.24 1831.9,1148.74 1832.5,1148.5 Z"/></g>
<g><path style="opacity:0.376" fill="#8a8a8a" d="M 1580.5,1151.5 C 1581.49,1152.8 1582.49,1154.13 1583.5,1155.5C 1581.09,1155.31 1580.09,1153.97 1580.5,1151.5 Z"/></g>
<g><path style="opacity:0.069" fill="#727272" d="M 1583.5,1155.5 C 1585.06,1156.94 1586.4,1158.61 1587.5,1160.5C 1584.7,1160.03 1583.37,1158.37 1583.5,1155.5 Z"/></g>
<g><path style="opacity:0.039" fill="#787878" d="M 1834.5,1155.5 C 1835.36,1157.42 1836.03,1159.42 1836.5,1161.5C 1834.7,1160.68 1833.7,1159.18 1833.5,1157C 1833.57,1156.24 1833.9,1155.74 1834.5,1155.5 Z"/></g>
<g><path style="opacity:0.141" fill="#585858" d="M 1807.5,1152.5 C 1809.27,1154.79 1810.27,1157.46 1810.5,1160.5C 1808.73,1158.21 1807.73,1155.54 1807.5,1152.5 Z"/></g>
<g><path style="opacity:0.004" fill="#888888" d="M 1836.5,1162.5 C 1837.34,1163.67 1838.01,1165 1838.5,1166.5C 1836.88,1166.21 1835.88,1165.21 1835.5,1163.5C 1835.62,1162.89 1835.96,1162.56 1836.5,1162.5 Z"/></g>
<g><path style="opacity:0.431" fill="#848484" d="M 1588.5,1161.5 C 1589.49,1162.8 1590.49,1164.13 1591.5,1165.5C 1589.09,1165.31 1588.09,1163.97 1588.5,1161.5 Z"/></g>
<g><path style="opacity:0.557" fill="#515151" d="M 1810.5,1162.5 C 1812.34,1163.12 1813.5,1164.46 1814,1166.5C 1815.47,1169.76 1816.63,1173.09 1817.5,1176.5C 1814.8,1172.08 1812.46,1167.42 1810.5,1162.5 Z"/></g>
<g><path style="opacity:0.041" fill="#6d6d6d" d="M 1838.5,1167.5 C 1839.43,1168.57 1839.77,1169.9 1839.5,1171.5C 1837.86,1170.3 1837.53,1168.96 1838.5,1167.5 Z"/></g>
<g><path style="opacity:0.494" fill="#777777" d="M 1592.5,1166.5 C 1593.89,1167.9 1594.89,1169.57 1595.5,1171.5C 1593.27,1170.6 1592.27,1168.93 1592.5,1166.5 Z"/></g>
<g><path style="opacity:0.082" fill="#777777" d="M 1567.5,1173.5 C 1568.91,1173.97 1569.57,1174.97 1569.5,1176.5C 1568.09,1176.03 1567.43,1175.03 1567.5,1173.5 Z"/></g>
<g><path style="opacity:0.51" fill="#737373" d="M 1596.5,1172.5 C 1598.59,1173.58 1599.92,1175.25 1600.5,1177.5C 1598.41,1176.42 1597.08,1174.75 1596.5,1172.5 Z"/></g>
<g><path style="opacity:0.208" fill="#717171" d="M 1679.5,1184.5 C 1679.71,1186.18 1679.05,1187.18 1677.5,1187.5C 1677.43,1185.97 1678.09,1184.97 1679.5,1184.5 Z"/></g>
<g><path style="opacity:0.059" fill="#6a6a6a" d="M 1579.5,1189.5 C 1583.17,1192.5 1586.5,1195.83 1589.5,1199.5C 1585.17,1197.17 1581.83,1193.83 1579.5,1189.5 Z"/></g>
<g><path style="opacity:0.184" fill="#6e6e6e" d="M 1675.5,1190.5 C 1675.34,1192.15 1674.67,1193.49 1673.5,1194.5C 1673.23,1192.62 1673.9,1191.29 1675.5,1190.5 Z"/></g>
<g><path style="opacity:0.175" fill="#2e2e2e" d="M 1672.5,1194.5 C 1668.9,1201.1 1663.9,1206.43 1657.5,1210.5C 1657.37,1209.76 1657.54,1209.09 1658,1208.5C 1663.06,1203.94 1667.89,1199.27 1672.5,1194.5 Z"/></g>
<g><path style="opacity:0.106" fill="#818181" d="M 1911.5,1201.5 C 1908.9,1205.77 1905.57,1209.44 1901.5,1212.5C 1904.1,1208.23 1907.43,1204.56 1911.5,1201.5 Z"/></g>
<g><path style="opacity:0.239" fill="#a2a2a2" d="M 1836.5,1205.5 C 1838.83,1207.17 1840.83,1209.17 1842.5,1211.5C 1839.5,1210.5 1837.5,1208.5 1836.5,1205.5 Z"/></g>
<g><path style="opacity:0.078" fill="#5e5e5e" d="M 1650.5,1215.5 C 1647.83,1216.83 1645.17,1218.17 1642.5,1219.5C 1644.17,1217.14 1646.5,1215.48 1649.5,1214.5C 1650.11,1214.62 1650.44,1214.96 1650.5,1215.5 Z"/></g>
<g><path style="opacity:0.016" fill="#777777" d="M 1899.5,1213.5 C 1896.38,1216.57 1892.71,1218.9 1888.5,1220.5C 1888.37,1219.62 1888.7,1218.96 1889.5,1218.5C 1892.87,1216.77 1896.2,1215.11 1899.5,1213.5 Z"/></g>
<g><path style="opacity:0.008" fill="#646464" d="M 1623.5,1221.5 C 1627.17,1220.17 1630.83,1220.17 1634.5,1221.5C 1630.8,1222.76 1627.13,1222.76 1623.5,1221.5 Z"/></g>
<g><path style="opacity:0.947" fill="#000000" d="M 2518.5,1222.5 C 2522.46,1222.09 2526.13,1222.92 2529.5,1225C 2533.04,1228.2 2536.2,1231.7 2539,1235.5C 2540.25,1238.08 2540.58,1240.74 2540,1243.5C 2523.41,1257.55 2506.91,1271.71 2490.5,1286C 2483.68,1287.34 2478.85,1284.84 2476,1278.5C 2475.29,1276.03 2475.63,1273.7 2477,1271.5C 2490.67,1255 2504.5,1238.67 2518.5,1222.5 Z"/></g>
<g><path style="opacity:0.972" fill="#000000" d="M 2353.5,1317.5 C 2456.83,1317.33 2560.17,1317.5 2663.5,1318C 2664,1318.5 2664.5,1319 2665,1319.5C 2665.67,1340.83 2665.67,1362.17 2665,1383.5C 2663.18,1385.05 2661.01,1385.71 2658.5,1385.5C 2654.64,1386.15 2651.8,1384.82 2650,1381.5C 2649.77,1364.48 2644.94,1348.98 2635.5,1335C 2577.5,1334.5 2519.5,1334.33 2461.5,1334.5C 2461.5,1402.83 2461.5,1471.17 2461.5,1539.5C 2503.5,1539.67 2545.5,1539.5 2587.5,1539C 2594.17,1526.01 2597.67,1512.18 2598,1497.5C 2603.03,1494.9 2608.03,1494.9 2613,1497.5C 2613.83,1531.17 2613.67,1564.84 2612.5,1598.5C 2608.22,1599.61 2603.89,1599.77 2599.5,1599C 2599,1598.5 2598.5,1598 2598,1597.5C 2597.73,1582.99 2594.23,1569.32 2587.5,1556.5C 2545.51,1555.5 2503.51,1555.17 2461.5,1555.5C 2461.5,1624.5 2461.5,1693.5 2461.5,1762.5C 2519.5,1762.67 2577.5,1762.5 2635.5,1762C 2645.22,1746.97 2650.22,1730.47 2650.5,1712.5C 2655.13,1711.34 2659.8,1711.17 2664.5,1712C 2665.49,1734.09 2665.83,1756.26 2665.5,1778.5C 2560.83,1778.67 2456.17,1778.5 2351.5,1778C 2350.53,1773.26 2350.2,1768.43 2350.5,1763.5C 2368.12,1763.68 2384.29,1759.01 2399,1749.5C 2399.83,1615.17 2399.67,1480.83 2398.5,1346.5C 2384.48,1337.66 2369.14,1333.49 2352.5,1334C 2352,1333.5 2351.5,1333 2351,1332.5C 2350.33,1328.5 2350.33,1324.5 2351,1320.5C 2351.7,1319.31 2352.53,1318.31 2353.5,1317.5 Z"/></g>
<g><path style="opacity:0.972" fill="#000000" d="M 2157.5,1318.5 C 2172.74,1318.18 2187.91,1318.51 2203,1319.5C 2203.5,1351.83 2203.67,1384.16 2203.5,1416.5C 2237.17,1416.5 2270.83,1416.5 2304.5,1416.5C 2304.5,1419.17 2304.5,1421.83 2304.5,1424.5C 2270.83,1424.5 2237.17,1424.5 2203.5,1424.5C 2203.33,1511.5 2203.5,1598.5 2204,1685.5C 2204.6,1712.01 2215.1,1733.51 2235.5,1750C 2270.49,1768.09 2301.32,1762.59 2328,1733.5C 2329.75,1730.33 2331.75,1727.33 2334,1724.5C 2335.97,1725.31 2337.47,1726.64 2338.5,1728.5C 2319.94,1762.13 2291.27,1778.79 2252.5,1778.5C 2205.32,1776.99 2174.82,1753.66 2161,1708.5C 2158.8,1699.29 2157.46,1689.96 2157,1680.5C 2156.5,1595.17 2156.33,1509.83 2156.5,1424.5C 2140.5,1424.5 2124.5,1424.5 2108.5,1424.5C 2108.5,1421.83 2108.5,1419.17 2108.5,1416.5C 2124.5,1416.5 2140.5,1416.5 2156.5,1416.5C 2156.19,1383.8 2156.52,1351.14 2157.5,1318.5 Z"/></g>
<g><path style="opacity:0.933" fill="#000000" d="M 922.5,1335.5 C 973.184,1330.53 1022.52,1336.36 1070.5,1353C 1103.17,1367.4 1131.67,1387.57 1156,1413.5C 1181.76,1443.32 1202.76,1476.32 1219,1512.5C 1245.83,1572.15 1272.66,1631.82 1299.5,1691.5C 1320.87,1646.96 1340.87,1602.13 1359.5,1557C 1391.66,1487.18 1423.16,1417.01 1454,1346.5C 1458.83,1342.42 1464.33,1341.08 1470.5,1342.5C 1471.64,1344.42 1471.81,1346.42 1471,1348.5C 1405.9,1493.36 1341.4,1638.36 1277.5,1783.5C 1276.5,1783.5 1275.5,1783.5 1274.5,1783.5C 1243.45,1709.52 1210.95,1636.19 1177,1563.5C 1157.88,1513.25 1132.55,1466.58 1101,1423.5C 1052.34,1361.16 988.842,1337.66 910.5,1353C 881.374,1357.81 856.54,1370.64 836,1391.5C 825.534,1404.77 818.534,1419.77 815,1436.5C 810.667,1439.17 806.333,1439.17 802,1436.5C 807.103,1400.79 825.269,1373.95 856.5,1356C 877.65,1346.05 899.65,1339.22 922.5,1335.5 Z"/></g>
<g><path style="opacity:0.977" fill="#000000" d="M 1936.5,1416.5 C 1972.44,1414.06 2000.28,1427.72 2020,1457.5C 2030.19,1474.38 2037.85,1492.38 2043,1511.5C 2064.32,1599.13 2085.49,1686.8 2106.5,1774.5C 2106.32,1775.55 2105.99,1776.55 2105.5,1777.5C 2090.51,1778.67 2075.51,1778.83 2060.5,1778C 2059.57,1777.61 2058.91,1776.95 2058.5,1776C 2037.26,1688.85 2016.09,1601.69 1995,1514.5C 1990.83,1497 1984.5,1480.33 1976,1464.5C 1954.93,1433.69 1927.43,1426.52 1893.5,1443C 1882.76,1449.07 1873.93,1457.24 1867,1467.5C 1866.67,1570.83 1866.33,1674.17 1866,1777.5C 1851.57,1778.66 1837.07,1778.82 1822.5,1778C 1822,1777.5 1821.5,1777 1821,1776.5C 1819.34,1657.56 1819.01,1538.56 1820,1419.5C 1821.81,1417.6 1823.97,1417.1 1826.5,1418C 1842.34,1427.34 1855,1439.84 1864.5,1455.5C 1870.3,1450.21 1876.3,1444.38 1882.5,1438C 1898.55,1425.82 1916.55,1418.65 1936.5,1416.5 Z"/></g>
<g><path style="opacity:0.94" fill="#000000" d="M 1061.5,1478.5 C 1091.41,1492.94 1109.58,1516.6 1116,1549.5C 1117.16,1556.81 1118.16,1564.14 1119,1571.5C 1119.99,1638.92 1119.66,1706.25 1118,1773.5C 1117.1,1774.7 1115.93,1775.53 1114.5,1776C 1097.08,1776.97 1079.74,1776.64 1062.5,1775C 1062,1774.5 1061.5,1774 1061,1773.5C 1060.83,1758.16 1060.33,1742.82 1059.5,1727.5C 1035.61,1754.16 1005.94,1771 970.5,1778C 937.436,1782.91 904.436,1782.57 871.5,1777C 846.63,1771.4 824.297,1760.73 804.5,1745C 771.714,1714.05 760.88,1676.55 772,1632.5C 779.961,1608.74 794.128,1589.58 814.5,1575C 834.7,1562.25 856.7,1553.91 880.5,1550C 901.048,1546.9 921.715,1545.23 942.5,1545C 980.497,1545.33 1018.5,1545.33 1056.5,1545C 1058.33,1544.5 1059.5,1543.33 1060,1541.5C 1060.18,1520.43 1060.68,1499.43 1061.5,1478.5 Z M 1048.5,1559.5 C 1051.94,1559.3 1055.27,1559.8 1058.5,1561C 1059.13,1561.75 1059.63,1562.58 1060,1563.5C 1060.67,1608.5 1060.67,1653.5 1060,1698.5C 1058.67,1704.82 1056.01,1710.49 1052,1715.5C 1037.43,1735.06 1018.6,1748.89 995.5,1757C 959.563,1770.44 923.563,1770.78 887.5,1758C 853.205,1743.37 833.705,1717.53 829,1680.5C 821.84,1637.66 835.673,1603.16 870.5,1577C 883.976,1568.63 898.642,1563.63 914.5,1562C 959.312,1560.88 1003.98,1560.05 1048.5,1559.5 Z"/></g>
<g><path style="opacity:0.948" fill="#000000" d="M 1699.5,1481.5 C 1701.53,1481.34 1703.53,1481.5 1705.5,1482C 1733.57,1498.6 1750.4,1523.1 1756,1555.5C 1757.64,1628.81 1757.98,1702.14 1757,1775.5C 1756.1,1776.7 1754.93,1777.53 1753.5,1778C 1736.1,1778.96 1718.77,1778.62 1701.5,1777C 1701,1776.5 1700.5,1776 1700,1775.5C 1699.83,1760.16 1699.33,1744.82 1698.5,1729.5C 1671.09,1759.37 1637.09,1776.87 1596.5,1782C 1549.25,1789.38 1504.59,1782.04 1462.5,1760C 1417.68,1731.91 1400.18,1691.75 1410,1639.5C 1415.53,1617.27 1427.03,1598.77 1444.5,1584C 1459.54,1570.81 1476.87,1561.81 1496.5,1557C 1521.43,1550.77 1546.77,1547.44 1572.5,1547C 1603.17,1546.49 1633.84,1546.66 1664.5,1547.5C 1675.57,1547.63 1686.57,1547.13 1697.5,1546C 1698,1545.5 1698.5,1545 1699,1544.5C 1699.5,1523.5 1699.67,1502.5 1699.5,1481.5 Z M 1602.5,1561.5 C 1633.36,1561.57 1664.36,1561.74 1695.5,1562C 1696.93,1562.47 1698.1,1563.3 1699,1564.5C 1699.67,1609.83 1699.67,1655.17 1699,1700.5C 1696.4,1709.7 1691.73,1717.7 1685,1724.5C 1668.66,1742.43 1648.83,1754.93 1625.5,1762C 1592.24,1772.52 1559.24,1771.85 1526.5,1760C 1491.48,1744.97 1471.65,1718.47 1467,1680.5C 1461.49,1639.72 1474.65,1606.56 1506.5,1581C 1522.42,1570.02 1540.09,1564.02 1559.5,1563C 1574.01,1562.83 1588.34,1562.33 1602.5,1561.5 Z"/></g>
<g><path style="opacity:0.929" fill="#000000" d="M 1879.5,1876.5 C 1882.27,1876.22 1884.77,1876.89 1887,1878.5C 1887.67,1910.83 1887.67,1943.17 1887,1975.5C 1884.5,1977.48 1881.67,1977.98 1878.5,1977C 1877.3,1976.1 1876.47,1974.93 1876,1973.5C 1875.33,1942.83 1875.33,1912.17 1876,1881.5C 1876.26,1879.09 1877.42,1877.43 1879.5,1876.5 Z"/></g>
<g><path style="opacity:0.922" fill="#000000" d="M 2368.5,1876.5 C 2372.01,1875.88 2374.85,1876.88 2377,1879.5C 2377.33,1889.17 2377.67,1898.83 2378,1908.5C 2387.28,1900.14 2398.11,1897.3 2410.5,1900C 2427.23,1904.06 2437.06,1914.56 2440,1931.5C 2442.05,1959.78 2429.05,1975.78 2401,1979.5C 2391.76,1979.04 2384.09,1975.38 2378,1968.5C 2377.77,1977.94 2373.77,1980.27 2366,1975.5C 2365.33,1943.5 2365.33,1911.5 2366,1879.5C 2366.7,1878.31 2367.53,1877.31 2368.5,1876.5 Z M 2396.5,1910.5 C 2418.3,1910.13 2428.8,1920.8 2428,1942.5C 2424.75,1960.09 2414.25,1968.26 2396.5,1967C 2386.75,1964.92 2380.59,1959.08 2378,1949.5C 2376.86,1940.33 2377.53,1931.33 2380,1922.5C 2384.23,1916.64 2389.73,1912.64 2396.5,1910.5 Z"/></g>
<g><path style="opacity:0.918" fill="#000000" d="M 1618.5,1877.5 C 1621.97,1876.87 1624.8,1877.87 1627,1880.5C 1627.5,1886.82 1627.67,1893.16 1627.5,1899.5C 1633.18,1899.33 1638.84,1899.5 1644.5,1900C 1648.21,1901.63 1649.38,1904.46 1648,1908.5C 1647.25,1909.13 1646.42,1909.63 1645.5,1910C 1639.51,1910.5 1633.51,1910.67 1627.5,1910.5C 1627.04,1927.57 1627.54,1944.57 1629,1961.5C 1631.74,1966.42 1635.91,1968.25 1641.5,1967C 1645.67,1964.08 1649.51,1964.25 1653,1967.5C 1654.12,1970.96 1653.29,1973.79 1650.5,1976C 1641.7,1979.47 1633.03,1979.14 1624.5,1975C 1619.42,1970.68 1616.59,1965.18 1616,1958.5C 1615.5,1942.5 1615.33,1926.5 1615.5,1910.5C 1611.49,1910.67 1607.49,1910.5 1603.5,1910C 1600.62,1908.33 1599.79,1905.83 1601,1902.5C 1601.9,1901.3 1603.07,1900.47 1604.5,1900C 1608.15,1899.5 1611.82,1899.33 1615.5,1899.5C 1615.33,1893.16 1615.5,1886.82 1616,1880.5C 1616.7,1879.31 1617.53,1878.31 1618.5,1877.5 Z"/></g>
<g><path style="opacity:0.94" fill="#000000" d="M 2073.5,1879.5 C 2077.01,1878.88 2079.85,1879.88 2082,1882.5C 2082.5,1910.5 2082.67,1938.5 2082.5,1966.5C 2102.17,1966.33 2121.84,1966.5 2141.5,1967C 2145.74,1970.79 2145.41,1974.13 2140.5,1977C 2118.17,1977.67 2095.83,1977.67 2073.5,1977C 2072.69,1976.69 2072.03,1976.19 2071.5,1975.5C 2070.34,1944.54 2070.17,1913.54 2071,1882.5C 2071.7,1881.31 2072.53,1880.31 2073.5,1879.5 Z"/></g>
<g><path style="opacity:0.915" fill="#000000" d="M 1143.5,1880.5 C 1156.17,1880.33 1168.84,1880.5 1181.5,1881C 1203.84,1883.33 1217.34,1895.5 1222,1917.5C 1224.65,1932 1222.31,1945.66 1215,1958.5C 1207.75,1969.38 1197.59,1975.54 1184.5,1977C 1170.5,1977.67 1156.5,1977.67 1142.5,1977C 1140.71,1976.22 1139.21,1975.05 1138,1973.5C 1137.33,1943.83 1137.33,1914.17 1138,1884.5C 1139.5,1882.53 1141.33,1881.2 1143.5,1880.5 Z M 1149.5,1891.5 C 1160.84,1891.33 1172.17,1891.5 1183.5,1892C 1196.46,1894.96 1204.96,1902.79 1209,1915.5C 1212.55,1928.01 1211.21,1940.01 1205,1951.5C 1199.78,1959.19 1192.62,1964.03 1183.5,1966C 1172.17,1966.5 1160.84,1966.67 1149.5,1966.5C 1149.5,1941.5 1149.5,1916.5 1149.5,1891.5 Z"/></g>
<g><path style="opacity:0.925" fill="#000000" d="M 1331.5,1898.5 C 1360.7,1898.86 1375.2,1913.53 1375,1942.5C 1374.17,1943.33 1373.33,1944.17 1372.5,1945C 1351.5,1945.5 1330.5,1945.67 1309.5,1945.5C 1313.57,1961.37 1323.9,1968.54 1340.5,1967C 1346.57,1966.3 1351.91,1963.96 1356.5,1960C 1363.49,1957.99 1366.32,1960.49 1365,1967.5C 1355.27,1976.48 1343.77,1979.98 1330.5,1978C 1308.7,1974.02 1297.37,1960.86 1296.5,1938.5C 1297.62,1915.73 1309.28,1902.39 1331.5,1898.5 Z M 1329.5,1910.5 C 1348.85,1908.21 1360.18,1916.54 1363.5,1935.5C 1345.17,1935.5 1326.83,1935.5 1308.5,1935.5C 1310.13,1922.55 1317.13,1914.21 1329.5,1910.5 Z"/></g>
<g><path style="opacity:0.913" fill="#000000" d="M 1486.5,1898.5 C 1504.41,1896.17 1517.58,1902.84 1526,1918.5C 1526.82,1920.79 1527.49,1923.12 1528,1925.5C 1528.67,1942.17 1528.67,1958.83 1528,1975.5C 1523.84,1979.7 1520.18,1979.37 1517,1974.5C 1516.96,1957.77 1516.29,1941.1 1515,1924.5C 1506.7,1909.46 1494.87,1905.96 1479.5,1914C 1473.28,1917.93 1469.12,1923.43 1467,1930.5C 1466.67,1945.17 1466.33,1959.83 1466,1974.5C 1463.04,1978.7 1459.37,1979.37 1455,1976.5C 1453.36,1952.23 1453.03,1927.9 1454,1903.5C 1456.53,1899.21 1460.03,1898.38 1464.5,1901C 1465.29,1904.41 1465.79,1907.91 1466,1911.5C 1471.33,1904.75 1478.16,1900.42 1486.5,1898.5 Z"/></g>
<g><path style="opacity:0.927" fill="#000000" d="M 1750.5,1899.5 C 1759.14,1898.72 1767.48,1899.89 1775.5,1903C 1777.96,1904.46 1780.13,1906.29 1782,1908.5C 1782.93,1899.98 1786.93,1897.98 1794,1902.5C 1794.67,1926.83 1794.67,1951.17 1794,1975.5C 1786.28,1980.12 1782.28,1977.79 1782,1968.5C 1767.5,1981.65 1752,1982.82 1735.5,1972C 1720.19,1958.02 1716.03,1941.19 1723,1921.5C 1728.72,1909.74 1737.89,1902.41 1750.5,1899.5 Z M 1754.5,1910.5 C 1768.03,1909.5 1777.2,1915.16 1782,1927.5C 1783.14,1937 1782.48,1946.34 1780,1955.5C 1770.95,1967.96 1759.45,1970.79 1745.5,1964C 1736.4,1957.8 1731.73,1949.14 1731.5,1938C 1732.76,1923.24 1740.42,1914.08 1754.5,1910.5 Z"/></g>
<g><path style="opacity:0.931" fill="#000000" d="M 2238.5,1899.5 C 2247.96,1898.48 2256.96,1899.98 2265.5,1904C 2267,1905.5 2268.5,1907 2270,1908.5C 2269.88,1903.41 2272.21,1900.41 2277,1899.5C 2278.98,1899.99 2280.65,1900.99 2282,1902.5C 2282.67,1926.83 2282.67,1951.17 2282,1975.5C 2279.12,1978.44 2275.95,1978.94 2272.5,1977C 2271.17,1974.34 2270.33,1971.51 2270,1968.5C 2261.08,1978.07 2250.24,1981.24 2237.5,1978C 2222.26,1973.76 2212.76,1963.93 2209,1948.5C 2204.74,1923.34 2214.57,1907 2238.5,1899.5 Z M 2242.5,1910.5 C 2255.82,1909.07 2264.99,1914.4 2270,1926.5C 2270.91,1935.58 2270.58,1944.58 2269,1953.5C 2261.16,1966.67 2249.99,1970.5 2235.5,1965C 2222.89,1956.92 2218.05,1945.42 2221,1930.5C 2224.55,1919.78 2231.72,1913.11 2242.5,1910.5 Z"/></g>
</svg>
