<svg xmlns:xlink="http://www.w3.org/1999/xlink" version="1.1" xmlns="http://www.w3.org/2000/svg" id="SvgjsSvg1001" viewBox="61.981055999999995 49.0788864 186.043392 187.772544" style="max-height: 500px" width="186.043392" height="187.772544"><defs id="SvgjsDefs1002"/><g id="SvgjsG1008"><svg height="288" width="288" viewBox="0 0 1024 1024" xmlns="http://www.w3.org/2000/svg"><path class="svgShape color000000-0 selectable" fill="#e2a644" d="M509.413574,580.227905 &#10;&#9;C509.502777,570.787109 509.514313,561.788391 509.623901,552.790771 &#10;&#9;C509.656799,550.091064 509.036621,548.371826 505.853851,548.164490 &#10;&#9;C502.197845,547.926331 500.763123,545.444397 500.763062,541.982178 &#10;&#9;C500.763000,536.982666 500.724609,531.982666 500.780518,526.983765 &#10;&#9;C500.806946,524.622070 500.046417,523.239075 497.424408,523.068542 &#10;&#9;C493.049072,522.784119 491.383209,520.139099 491.655975,515.956787 &#10;&#9;C491.753387,514.463074 491.548462,512.944946 491.700592,511.460419 &#10;&#9;C492.251587,506.083832 491.459290,502.085205 485.152588,500.123230 &#10;&#9;C480.321381,498.620270 478.643677,493.897614 478.663422,488.769623 &#10;&#9;C478.724365,472.937683 478.572662,457.104065 478.756744,441.274048 &#10;&#9;C478.802582,437.333191 477.806274,435.226349 473.676086,434.233124 &#10;&#9;C467.974274,432.862061 464.783997,428.448181 464.649292,422.533936 &#10;&#9;C464.493744,415.704895 464.517792,408.867462 464.659088,402.037750 &#10;&#9;C464.729645,398.628418 463.436615,397.015869 459.970245,397.349121 &#10;&#9;C459.640350,397.380798 459.303314,397.330536 458.970947,397.346466 &#10;&#9;C455.337891,397.520630 452.474884,396.411499 452.521210,392.260925 &#10;&#9;C452.570526,387.839325 455.927643,387.605347 459.296356,387.621216 &#10;&#9;C467.778503,387.661194 476.260803,387.664001 484.743042,387.676239 &#10;&#9;C491.742523,387.686340 498.742096,387.716370 505.741394,387.682556 &#10;&#9;C509.155060,387.666077 511.975525,388.802216 512.033752,392.528046 &#10;&#9;C512.093506,396.349274 509.243011,397.354980 505.822174,397.333984 &#10;&#9;C497.156525,397.280823 488.487946,397.443176 479.825287,397.275330 &#10;&#9;C475.877106,397.198792 474.007111,398.343567 474.265564,402.672943 &#10;&#9;C474.582764,407.986755 474.500366,413.340942 474.283600,418.665131 &#10;&#9;C474.096436,423.262665 476.183624,424.876862 480.565979,424.859497 &#10;&#9;C503.563721,424.768433 526.562012,424.770355 549.559998,424.820282 &#10;&#9;C553.706238,424.829285 555.741089,423.120697 555.721252,418.881500 &#10;&#9;C555.665161,406.882690 555.583679,394.881897 555.750427,382.885193 &#10;&#9;C555.812500,378.420227 553.249390,378.237549 549.933960,378.244263 &#10;&#9;C526.102539,378.292572 502.270905,378.267120 478.439362,378.263092 &#10;&#9;C451.444855,378.258545 424.449738,378.338104 397.456421,378.155792 &#10;&#9;C393.279968,378.127594 390.703278,379.256561 388.723816,383.057556 &#10;&#9;C387.138428,386.101898 384.900543,389.056580 382.281036,391.249207 &#10;&#9;C378.974701,394.016602 378.054138,397.068939 378.079407,401.212555 &#10;&#9;C378.237885,427.209595 378.203003,453.208252 378.113647,479.205963 &#10;&#9;C378.100067,483.157440 378.625763,486.683624 381.081787,489.986664 &#10;&#9;C382.636963,492.078156 384.090637,494.643738 384.437042,497.155640 &#10;&#9;C385.254272,503.081329 388.862793,505.432800 394.121063,506.901825 &#10;&#9;C399.558990,508.420990 404.838776,510.538818 410.125671,512.557373 &#10;&#9;C416.117157,514.844910 416.776428,516.346008 414.900970,522.372314 &#10;&#9;C412.892792,528.824890 412.869537,528.903687 419.313416,530.801025 &#10;&#9;C430.328735,534.044373 441.354156,537.258362 452.422119,540.315430 &#10;&#9;C456.472839,541.434265 459.586487,543.450195 461.970856,546.979553 &#10;&#9;C465.045654,551.530884 468.568481,555.777161 471.725311,560.276245 &#10;&#9;C473.557068,562.886963 474.619629,565.860535 471.321503,568.160400 &#10;&#9;C468.113617,570.397461 465.696198,568.641785 463.681641,566.013123 &#10;&#9;C463.580322,565.880859 463.451202,565.763062 463.377991,565.617004 &#10;&#9;C457.200073,553.289612 446.760590,547.466980 433.537994,545.130432 &#10;&#9;C426.700439,543.922241 420.087677,541.371155 413.430145,539.248474 &#10;&#9;C410.646057,538.360901 409.280701,539.050903 408.098267,541.787354 &#10;&#9;C403.267670,552.966980 403.177124,552.930359 391.455139,548.953003 &#10;&#9;C388.459320,547.936584 385.433960,546.994690 382.484009,545.858093 &#10;&#9;C373.993042,542.586548 366.217865,540.430969 356.343475,543.601807 &#10;&#9;C343.067566,547.864929 330.574921,542.767639 321.507111,531.855530 &#10;&#9;C312.377411,520.868896 309.919556,508.303925 315.810120,494.965576 &#10;&#9;C318.265015,489.406799 317.456665,483.834564 317.531616,478.267822 &#10;&#9;C317.740173,462.772003 317.591553,447.271362 317.592102,431.772644 &#10;&#9;C317.592377,424.593231 317.309509,424.084534 309.905304,424.485535 &#10;&#9;C298.761444,425.089081 289.611511,421.488770 282.801483,412.541931 &#10;&#9;C267.569305,392.530334 279.243652,364.123566 304.152588,360.719818 &#10;&#9;C307.835571,360.216553 309.422791,359.108154 309.896332,354.969147 &#10;&#9;C312.321899,333.769135 330.598877,317.736389 351.975128,317.697449 &#10;&#9;C382.972717,317.640961 413.970520,317.695374 444.968231,317.688385 &#10;&#9;C451.653320,317.686859 451.531586,317.655914 451.709106,311.068970 &#10;&#9;C452.058777,298.097321 450.834503,285.098572 452.633026,272.148956 &#10;&#9;C456.381775,245.157227 479.715454,222.550400 506.679993,219.553604 &#10;&#9;C512.343018,218.924225 517.961121,218.811874 523.615723,218.815521 &#10;&#9;C556.113281,218.836456 588.610779,218.875488 621.108337,218.887848 &#10;&#9;C627.735901,218.890366 627.734070,218.849899 627.774109,212.226105 &#10;&#9;C627.783142,210.726669 627.692993,209.214783 627.851990,207.730423 &#10;&#9;C628.262207,203.900436 630.110168,201.707275 634.320496,201.718597 &#10;&#9;C659.484680,201.786285 684.648987,201.746140 709.813293,201.778519 &#10;&#9;C715.198730,201.785446 716.976257,203.575562 717.185364,208.904755 &#10;&#9;C717.578369,218.921326 717.578430,218.920715 727.474304,218.906082 &#10;&#9;C733.640503,218.896957 739.806702,218.886047 745.972900,218.885529 &#10;&#9;C747.138855,218.885422 748.314941,218.840866 749.468811,218.971619 &#10;&#9;C752.737976,219.342041 755.416016,220.506241 755.244812,224.434219 &#10;&#9;C755.079163,228.233215 752.296021,228.919678 749.260925,228.935974 &#10;&#9;C740.928772,228.980682 732.596069,228.914261 724.263672,228.928604 &#10;&#9;C717.379883,228.940460 717.248901,229.079346 717.249084,235.874939 &#10;&#9;C717.249695,257.206726 717.254639,278.538483 717.274597,299.870270 &#10;&#9;C717.280518,306.197388 717.659485,306.606506 724.132324,306.653961 &#10;&#9;C732.297852,306.713837 740.464600,306.709686 748.630066,306.645142 &#10;&#9;C752.240906,306.616608 755.181213,307.626434 755.115112,311.738464 &#10;&#9;C755.051880,315.670105 752.031372,316.357391 748.727661,316.343781 &#10;&#9;C739.895142,316.307465 731.060913,316.418640 722.230469,316.279236 &#10;&#9;C718.649475,316.222717 716.988342,317.468445 717.183960,321.210022 &#10;&#9;C717.375122,324.866272 717.291443,328.542236 717.201050,332.206421 &#10;&#9;C717.103394,336.166687 715.240417,338.330811 711.007141,338.324707 &#10;&#9;C685.509216,338.287964 660.010925,338.287445 634.513123,338.364136 &#10;&#9;C629.810059,338.378265 627.850647,336.019440 627.787720,331.628754 &#10;&#9;C627.735229,327.963013 627.695068,324.295013 627.765198,320.630249 &#10;&#9;C627.819275,317.804565 626.834351,316.275848 623.734619,316.292908 &#10;&#9;C610.569336,316.365356 597.402588,316.247681 584.238525,316.390839 &#10;&#9;C579.641296,316.440796 577.451843,319.050842 579.509338,323.354736 &#10;&#9;C583.658020,332.032837 581.854736,341.016205 582.267456,349.889038 &#10;&#9;C582.476318,354.379028 582.361389,358.887543 582.293152,363.386169 &#10;&#9;C582.172302,371.357178 578.349426,376.572906 570.570618,377.859253 &#10;&#9;C566.321777,378.561829 565.402649,380.672668 565.397461,384.192902 &#10;&#9;C565.383423,393.692047 565.398376,403.191498 565.328979,412.690247 &#10;&#9;C565.291748,417.789581 565.945374,422.942505 563.676331,428.717865 &#10;&#9;C571.173340,425.001190 578.383789,426.042053 585.451904,426.037170 &#10;&#9;C658.779602,425.986694 732.107300,426.008911 805.434998,426.031616 &#10;&#9;C821.398926,426.036560 828.276123,432.937347 828.537903,448.734863 &#10;&#9;C829.551147,509.889374 828.643311,571.048218 829.014221,632.204102 &#10;&#9;C829.103821,646.967590 820.977112,655.056335 806.083801,655.079468 &#10;&#9;C778.752747,655.121826 751.421509,655.037537 724.090332,654.989746 &#10;&#9;C716.894226,654.977173 716.408508,655.528870 717.937683,662.830444 &#10;&#9;C719.199585,668.855713 720.611572,674.849731 721.860657,680.877502 &#10;&#9;C722.735291,685.098328 724.879211,687.031189 729.498108,686.694458 &#10;&#9;C735.133179,686.283630 740.825317,686.451721 746.484253,686.633179 &#10;&#9;C751.775879,686.802734 753.109436,689.120361 753.251038,696.034729 &#10;&#9;C753.349854,700.856750 751.298279,702.401855 746.655823,702.415039 &#10;&#9;C711.331482,702.515564 676.007507,702.783691 640.683472,702.994995 &#10;&#9;C639.517212,703.001953 638.349670,702.984131 637.184509,702.935425 &#10;&#9;C629.118835,702.598328 626.280762,698.382996 629.059021,690.792053 &#10;&#9;C630.201965,687.669250 632.744263,686.722778 635.821716,686.718445 &#10;&#9;C641.487915,686.710388 647.162659,686.491943 652.817322,686.739136 &#10;&#9;C656.689209,686.908325 658.593323,685.211426 659.715027,681.729614 &#10;&#9;C662.127197,674.241882 663.032532,666.447021 664.510620,658.777954 &#10;&#9;C665.432190,653.996948 661.513672,654.443481 658.592468,654.471497 &#10;&#9;C647.932312,654.573608 637.273987,654.907349 626.614014,654.956665 &#10;&#9;C615.621948,655.007568 604.623108,655.391479 593.637085,654.616760 &#10;&#9;C591.213318,654.445801 589.263367,655.153259 589.019775,657.965759 &#10;&#9;C588.080872,668.803162 585.063599,679.142822 581.079102,689.615662 &#10;&#9;C585.424072,691.459656 589.604431,690.409729 593.636108,690.665405 &#10;&#9;C595.627014,690.791687 597.634277,690.640503 599.633972,690.649780 &#10;&#9;C605.746216,690.678162 607.151245,692.111877 607.175903,698.411987 &#10;&#9;C607.198669,704.244812 607.173035,710.077698 607.175415,715.910583 &#10;&#9;C607.187805,746.408264 607.191833,776.905945 607.224487,807.403625 &#10;&#9;C607.231506,813.990234 607.280640,813.969849 613.926636,814.091797 &#10;&#9;C617.086365,814.149719 620.263794,814.122559 623.397217,814.464294 &#10;&#9;C626.210999,814.771118 628.065247,816.596375 627.951416,819.487488 &#10;&#9;C627.846436,822.154541 625.867493,823.578918 623.347656,824.006348 &#10;&#9;C621.882812,824.254822 620.360779,824.220703 618.864441,824.221191 &#10;&#9;C549.202881,824.244568 479.541290,824.258301 409.879700,824.267883 &#10;&#9;C408.380768,824.268066 406.866882,824.329590 405.386047,824.148743 &#10;&#9;C402.337433,823.776428 400.368042,822.090393 400.531311,818.895081 &#10;&#9;C400.687775,815.832581 402.847595,814.682373 405.688721,814.644958 &#10;&#9;C409.021271,814.601013 412.372803,814.372192 415.682648,814.638977 &#10;&#9;C419.861511,814.975769 421.093506,813.335999 421.069977,809.214844 &#10;&#9;C420.910309,781.217896 420.975220,753.219666 420.961060,725.221863 &#10;&#9;C420.956512,716.222595 420.870239,707.222839 420.938660,698.224243 &#10;&#9;C420.986237,691.972412 422.371552,690.694031 428.668335,690.671753 &#10;&#9;C434.628387,690.650696 440.588562,690.667236 447.276062,690.667236 &#10;&#9;C445.833557,686.137024 444.624786,682.403015 443.455231,678.656677 &#10;&#9;C439.157471,664.889954 437.657379,650.962646 441.708862,636.887817 &#10;&#9;C445.639191,623.234009 453.362671,612.968689 467.913422,609.421082 &#10;&#9;C476.333618,607.368164 484.434937,609.145630 492.362244,612.047668 &#10;&#9;C494.080536,612.676697 495.793304,613.367310 497.412292,614.213806 &#10;&#9;C508.898895,620.219849 520.449585,619.796326 532.049561,614.625854 &#10;&#9;C537.851440,612.039734 543.786194,609.775696 550.084473,608.913086 &#10;&#9;C553.407776,608.458008 553.710449,606.543518 553.539307,604.037109 &#10;&#9;C552.005066,581.562134 552.839966,559.060120 553.057251,536.579041 &#10;&#9;C553.184204,523.436951 552.813110,510.238708 553.715698,497.163879 &#10;&#9;C554.377808,487.572388 554.208862,477.871765 555.896362,468.343933 &#10;&#9;C556.918152,462.574524 557.277466,456.846344 556.156372,450.978424 &#10;&#9;C555.163330,445.780518 555.944519,440.450623 556.679932,435.048126 &#10;&#9;C551.696350,434.289490 550.287659,436.441010 550.313660,440.580261 &#10;&#9;C550.412109,456.245178 550.393494,471.910889 550.381653,487.576324 &#10;&#9;C550.375366,495.932007 548.657471,498.564270 540.949158,501.371857 &#10;&#9;C538.342285,502.321411 537.173706,503.747589 537.278748,506.495178 &#10;&#9;C537.399597,509.657074 537.245300,512.828796 537.333496,515.992798 &#10;&#9;C537.441956,519.883118 535.954407,522.577515 531.864624,522.955444 &#10;&#9;C528.994568,523.220703 528.266663,524.743408 528.297363,527.263489 &#10;&#9;C528.358337,532.262268 528.335266,537.262329 528.310730,542.261658 &#10;&#9;C528.294983,545.457947 527.111877,548.053528 523.585754,548.142273 &#10;&#9;C519.460083,548.246216 519.239319,550.685364 519.254150,553.813660 &#10;&#9;C519.322754,568.312256 519.294922,582.811340 519.297302,597.310242 &#10;&#9;C519.297485,598.643127 519.320984,599.979492 519.238586,601.308289 &#10;&#9;C519.058655,604.209961 517.553711,606.095154 514.598816,606.164307 &#10;&#9;C511.373108,606.239685 509.715179,604.303345 509.651520,601.141541 &#10;&#9;C509.514160,594.318726 509.461029,587.494202 509.413574,580.227905 &#10;M646.500000,622.684082 &#10;&#9;C701.641113,622.679321 756.782166,622.677673 811.923279,622.665833 &#10;&#9;C818.954712,622.664368 818.943787,622.639771 818.944458,615.417297 &#10;&#9;C818.949707,559.943848 818.954651,504.470428 818.971985,448.997009 &#10;&#9;C818.975403,438.200592 816.179810,435.281433 805.464539,435.351685 &#10;&#9;C782.326477,435.503357 759.188904,435.866608 736.050903,435.888000 &#10;&#9;C713.733826,435.908661 691.411560,435.238983 669.100464,435.538513 &#10;&#9;C638.143188,435.954071 607.195557,435.464691 576.243958,435.356140 &#10;&#9;C565.805664,435.319519 562.267029,438.625000 562.276733,448.883789 &#10;&#9;C562.299011,472.535034 562.414551,496.186218 562.404846,519.837402 &#10;&#9;C562.393066,548.486206 562.324097,577.135254 562.178772,605.783630 &#10;&#9;C562.163818,608.728333 563.174133,610.397339 565.936951,611.392395 &#10;&#9;C570.244263,612.943665 574.001770,615.511353 576.854065,619.068542 &#10;&#9;C579.184204,621.974548 581.918274,622.818176 585.528809,622.791565 &#10;&#9;C605.518372,622.644348 625.509460,622.699585 646.500000,622.684082 &#10;M539.500000,814.105286 &#10;&#9;C556.485901,814.254944 573.472107,814.379456 590.457520,814.571655 &#10;&#9;C594.796021,814.620789 597.058838,813.420105 597.026978,808.290710 &#10;&#9;C596.815735,774.309143 596.861023,740.325500 596.956909,706.342957 &#10;&#9;C596.968689,702.180481 595.737061,700.152588 591.284485,700.293640 &#10;&#9;C574.148804,700.836365 575.391296,697.090271 576.644165,716.862915 &#10;&#9;C577.588867,731.772095 577.518311,746.444580 574.145386,760.996643 &#10;&#9;C571.442200,772.658997 567.354126,783.690796 557.986450,791.884033 &#10;&#9;C547.586060,800.980652 534.853638,796.798279 531.626404,783.327698 &#10;&#9;C530.681946,779.385010 530.895996,775.393555 530.637146,771.413879 &#10;&#9;C529.792908,758.431030 528.179626,745.555542 523.260071,733.380859 &#10;&#9;C521.519409,729.073303 519.495483,723.941467 514.143372,723.808044 &#10;&#9;C508.403168,723.664856 506.428406,729.098633 504.621033,733.489685 &#10;&#9;C500.927551,742.462952 499.321411,751.957581 498.217285,761.589966 &#10;&#9;C497.328888,769.340820 498.189331,777.283875 495.814575,784.858276 &#10;&#9;C492.066711,796.812195 480.996338,800.283813 470.979034,792.667847 &#10;&#9;C466.378113,789.169739 463.110840,784.574829 460.502014,779.475098 &#10;&#9;C453.842712,766.457397 451.475616,752.435974 450.716217,738.017578 &#10;&#9;C450.153656,727.335754 451.754395,716.740723 451.866638,706.083801 &#10;&#9;C451.910614,701.904358 450.627380,699.810425 446.123688,700.261230 &#10;&#9;C443.484924,700.525452 440.797852,700.300293 438.132538,700.307739 &#10;&#9;C431.255981,700.326904 431.021454,700.533569 431.027374,707.220642 &#10;&#9;C431.057251,741.036743 431.096741,774.852844 431.153809,808.668945 &#10;&#9;C431.156586,810.299927 430.792114,812.001892 432.053101,814.104126 &#10;&#9;C467.331390,814.104126 502.915710,814.104126 539.500000,814.105286 &#10;M575.199707,675.782043 &#10;&#9;C579.263672,663.666748 580.377869,651.408386 576.761780,638.985474 &#10;&#9;C572.741333,625.173157 559.679443,612.101685 540.327332,622.108398 &#10;&#9;C533.377930,625.701782 526.714783,629.854858 519.726379,633.364929 &#10;&#9;C510.637360,637.930115 501.091278,640.473694 490.765167,638.427124 &#10;&#9;C487.346405,637.749512 484.330994,636.602234 484.982758,632.468506 &#10;&#9;C485.603119,628.533936 488.885742,628.493591 492.031525,628.747253 &#10;&#9;C495.571960,629.032715 499.144043,629.603638 503.357391,627.406738 &#10;&#9;C494.152435,623.127197 485.808350,619.015442 476.341431,618.383240 &#10;&#9;C469.672119,617.937866 463.896820,620.275024 459.332581,625.254028 &#10;&#9;C449.753296,635.703735 448.178802,648.292297 449.797943,661.664856 &#10;&#9;C451.256165,673.708435 456.446777,684.630554 460.231415,695.978027 &#10;&#9;C461.060059,698.462585 462.700348,698.823975 464.817871,698.823669 &#10;&#9;C497.482452,698.818604 530.147034,698.800293 562.811584,698.838257 &#10;&#9;C565.493652,698.841370 567.092041,697.945374 568.012634,695.268372 &#10;&#9;C570.177429,688.973389 572.611206,682.770874 575.199707,675.782043 &#10;M484.494659,368.127869 &#10;&#9;C490.815704,368.173828 497.136719,368.231293 503.457825,368.263611 &#10;&#9;C524.115417,368.369202 544.772949,368.530701 565.430542,368.522949 &#10;&#9;C571.066101,368.520844 572.654114,366.646210 572.689270,360.802979 &#10;&#9;C572.738342,352.638580 572.711060,344.473602 572.687805,336.308899 &#10;&#9;C572.666748,328.889313 571.068115,327.283752 563.529663,327.283752 &#10;&#9;C505.210205,327.283936 446.890778,327.298767 388.571320,327.336029 &#10;&#9;C386.470001,327.337372 384.231354,326.943817 381.918243,328.925385 &#10;&#9;C392.596863,339.688385 396.936066,352.845917 395.119110,368.128571 &#10;&#9;C425.274567,368.128571 454.407806,368.128571 484.494659,368.127869 &#10;M543.136475,785.276123 &#10;&#9;C547.117126,788.468018 550.124268,785.761414 552.755066,783.309204 &#10;&#9;C558.556335,777.901794 561.294067,770.710754 563.468018,763.295776 &#10;&#9;C568.090576,747.529297 567.779419,731.450012 566.854736,715.259583 &#10;&#9;C566.588684,710.601440 565.510620,708.883728 560.607117,708.978210 &#10;&#9;C546.783203,709.244629 532.949585,708.993286 519.119812,708.975159 &#10;&#9;C501.957672,708.952637 484.795502,708.954956 467.633331,708.957397 &#10;&#9;C464.540375,708.957825 461.685333,708.893555 461.294495,713.332275 &#10;&#9;C460.092773,726.980042 459.643585,740.610596 462.395905,754.100342 &#10;&#9;C464.565247,764.732666 467.200714,775.305847 475.286072,783.357056 &#10;&#9;C477.295654,785.358215 479.706512,787.305481 482.789001,786.490417 &#10;&#9;C486.061737,785.625122 486.558044,782.591309 486.965851,779.734619 &#10;&#9;C487.247223,777.763977 487.646362,775.779236 487.634674,773.802856 &#10;&#9;C487.577362,764.105408 488.795685,754.527649 490.825592,745.101624 &#10;&#9;C492.826172,735.811951 495.357941,726.562256 501.917084,719.217224 &#10;&#9;C509.016968,711.266663 519.210571,711.432800 526.300659,719.394714 &#10;&#9;C529.572693,723.069092 531.597656,727.449951 533.282104,731.997986 &#10;&#9;C538.194397,745.261597 540.182678,759.035400 540.301697,773.117737 &#10;&#9;C540.335754,777.143494 540.526245,781.112122 543.136475,785.276123 &#10;M555.554260,229.107010 &#10;&#9;C549.986145,230.735580 554.583923,232.462631 555.735046,233.441055 &#10;&#9;C567.614624,243.538635 575.160461,256.189484 577.803101,271.509125 &#10;&#9;C579.475281,281.203735 579.078979,291.090271 578.964844,300.902008 &#10;&#9;C578.915161,305.173676 580.440857,306.818390 584.795654,306.750061 &#10;&#9;C597.112732,306.556732 609.438293,306.519348 621.753296,306.772095 &#10;&#9;C626.273438,306.864838 627.863464,305.520813 627.818481,300.845001 &#10;&#9;C627.607239,278.870453 627.590393,256.891602 627.809570,234.917313 &#10;&#9;C627.856506,230.210739 626.252869,228.955475 621.773987,228.991104 &#10;&#9;C599.965393,229.164627 578.154663,229.065033 555.554260,229.107010 &#10;M332.067078,334.545929 &#10;&#9;C321.114746,343.767456 316.734467,355.302368 320.615387,369.267426 &#10;&#9;C324.974060,384.951752 341.115204,395.808472 355.847839,393.438507 &#10;&#9;C373.935608,390.528809 386.251587,376.577148 385.724274,359.139191 &#10;&#9;C385.339081,346.400543 379.130981,336.888000 367.901459,331.132568 &#10;&#9;C355.714630,324.886536 343.800507,326.071869 332.067078,334.545929 &#10;M336.541687,400.238831 &#10;&#9;C333.695923,399.613312 331.555115,396.971802 327.817200,397.126770 &#10;&#9;C327.817200,420.842773 327.817200,444.313385 327.817200,467.578339 &#10;&#9;C329.198486,468.360565 330.209290,467.991730 331.090820,467.628571 &#10;&#9;C341.604858,463.297119 352.280334,462.272247 363.294769,465.624512 &#10;&#9;C367.036011,466.763184 367.927094,464.411560 367.930176,461.238434 &#10;&#9;C367.948059,442.749573 367.974274,424.260590 368.061676,405.771942 &#10;&#9;C368.080414,401.805908 366.498444,400.987244 362.759735,402.024261 &#10;&#9;C354.151672,404.411865 345.617065,403.677124 336.541687,400.238831 &#10;M683.602905,655.036499 &#10;&#9;C680.377686,655.699097 675.723999,652.910095 674.445312,658.343079 &#10;&#9;C672.621948,666.090576 671.143982,673.919373 669.521118,681.713989 &#10;&#9;C668.964966,684.385132 669.902100,685.654541 672.776550,685.951843 &#10;&#9;C684.720276,687.187317 696.685974,686.513123 708.641846,686.559998 &#10;&#9;C711.914307,686.572876 712.837097,684.926025 712.097107,681.656372 &#10;&#9;C710.412048,674.210876 708.995483,666.702026 707.604919,659.193909 &#10;&#9;C707.056641,656.233215 705.554871,654.911804 702.526733,654.965759 &#10;&#9;C696.545227,655.072388 690.560913,655.022400 683.602905,655.036499 &#10;M313.136017,377.212799 &#10;&#9;C310.138916,369.515747 309.888611,369.357635 303.382996,371.054352 &#10;&#9;C290.841858,374.325287 283.283813,385.900116 286.658722,398.018219 &#10;&#9;C290.448547,411.626007 300.691925,415.975861 314.079071,414.623840 &#10;&#9;C315.842438,414.445709 316.897583,413.540039 316.922821,411.783386 &#10;&#9;C317.087097,400.354645 320.666595,388.569550 313.136017,377.212799 &#10;M657.166199,634.658997 &#10;&#9;C652.125610,635.752808 647.127380,637.357361 642.031189,637.779480 &#10;&#9;C637.933655,638.118896 635.380371,639.848999 632.882629,643.556885 &#10;&#9;C664.424011,645.507385 695.481201,645.502319 727.101624,644.395325 &#10;&#9;C722.928711,634.984863 714.109985,634.626587 707.676636,633.565308 &#10;&#9;C691.277039,630.859924 674.526550,632.004578 657.166199,634.658997 &#10;M520.251709,512.694031 &#10;&#9;C523.631714,512.730591 527.099792,513.145325 527.082947,507.976318 &#10;&#9;C527.065979,502.761475 523.893799,502.137299 519.801697,502.239990 &#10;&#9;C515.159973,502.356445 510.513275,502.257111 505.869171,502.299194 &#10;&#9;C501.869904,502.335419 501.643921,505.288757 501.429291,508.196686 &#10;&#9;C501.194519,511.377533 502.757782,512.732178 505.876404,512.689819 &#10;&#9;C510.354156,512.628906 514.833557,512.686829 520.251709,512.694031 &#10;M609.393127,642.632263 &#10;&#9;C607.044861,634.550842 594.970581,629.635620 585.751160,633.236145 &#10;&#9;C587.146423,636.980469 586.044617,643.046753 589.989075,644.142639 &#10;&#9;C596.077698,645.834229 602.946655,646.617249 609.393127,642.632263 &#10;M353.424469,513.967529 &#10;&#9;C356.540710,511.189331 357.965179,508.122223 354.615417,504.602142 &#10;&#9;C352.001556,501.855347 348.772675,501.207764 345.691101,503.542572 &#10;&#9;C343.013489,505.571320 341.490723,508.472443 343.600037,511.790863 &#10;&#9;C345.817566,515.279541 348.827728,516.836487 353.424469,513.967529 &#10;M517.333191,523.603760 &#10;&#9;C512.397705,521.571777 511.181732,522.191101 510.975952,527.003479 &#10;&#9;C510.876740,529.323242 511.012634,531.652649 511.027985,533.977783 &#10;&#9;C511.042786,536.213745 511.651947,537.916870 514.328125,537.985474 &#10;&#9;C517.280579,538.061096 517.998352,536.198059 517.971863,533.778503 &#10;&#9;C517.937500,530.633728 517.796448,527.490112 517.333191,523.603760 &#10;M804.940674,644.382263 &#10;&#9;C811.709229,644.084595 815.519409,639.159607 813.011719,633.244873 &#10;&#9;C811.274414,636.641785 807.528748,636.015869 804.607361,637.988953 &#10;&#9;C806.603210,640.135620 803.916748,642.021729 804.940674,644.382263 &#10;z"/><path class="svgShape color000000-1 selectable" fill="#ffffff" d="M215.628693 606.796997C217.561859 598.163513 221.683487 594.743591 229.90596 594.642212 234.23584 594.588806 238.569641 594.522888 242.896271 594.648376 245.930023 594.736328 247.949249 593.792358 248.965805 590.709473 250.219666 586.906677 252.693848 584.023254 256.528412 582.562683 259.20282 581.543945 259.691071 579.514587 259.622772 576.967285 259.515961 572.984436 259.261475 568.974915 260.873993 565.147766 263.169769 559.699036 267.079468 556.610352 273.125885 556.600647 281.95343 556.586426 290.781738 556.546753 299.608398 556.639954 307.370544 556.721924 312.724854 561.850159 313.251556 569.667969 313.441498 572.487183 313.379272 575.331116 313.287384 578.159058 313.209015 580.571655 314.51947 581.719116 316.542786 582.598328 318.466949 583.43457 319.523804 582.591431 320.822449 581.289124 324.018829 578.083435 327.952301 576.58606 332.547546 576.661255 338.541748 576.75946 344.539642 576.607544 350.535034 576.664124 358.244965 576.736755 363.429901 581.204956 364.416595 588.915222 365.646484 598.526184 364.775665 608.212341 365.062286 617.861572 365.151123 620.851868 365.823486 622.706848 369.009155 623.80188 378.307098 626.998047 382.846222 634.135498 383.017761 643.613403 383.340118 661.429199 383.093994 679.254944 383.17276 697.076111 383.187439 700.399902 381.953979 702.021851 378.501892 701.963135 374.879547 701.901489 373.616577 700.176514 373.639069 696.64032 373.742798 680.31842 373.740326 663.995178 373.662781 647.672913 373.607147 635.960205 369.734528 632.196655 357.979553 632.198059 312.675781 632.203552 267.371979 632.218994 222.068207 632.247986 210.780106 632.255188 207.055695 635.945557 207.046066 647.108459 207.03186 663.597046 206.963989 680.086548 207.131821 696.573547 207.170578 700.380676 205.969162 702.044739 202.070541 702.162048 197.931198 702.286682 196.968369 700.167358 196.987534 696.598511 197.07872 679.610046 196.961807 662.619812 197.151154 645.632812 197.269272 635.037415 201.453674 626.889221 212.207581 623.414673 214.903351 622.543701 215.784973 620.897644 215.662399 618.190247 215.496887 614.534546 215.612137 610.866089 215.628693 606.796997M296.496399 591.279968C286.169708 591.29364 275.840271 591.45166 265.517487 591.258118 260.584717 591.165649 258.184479 592.944702 257.763367 598.043518 257.197662 604.8927 258.374054 611.671021 258.069 618.491821 257.953552 621.072876 259.578156 621.940735 261.924683 621.940247 278.579254 621.936768 295.233826 621.930603 311.888336 621.968445 315.282745 621.976135 316.71875 620.335938 316.598694 617.034241 316.350769 610.216003 316.214478 603.393188 315.90625 596.577942 315.741119 592.927185 313.566956 591.275513 309.98587 591.290588 305.821991 591.308167 301.657959 591.286743 296.496399 591.279968M354.692963 592.208801C354.221497 588.415833 352.011261 586.822998 348.260315 586.777344 343.286926 586.716797 338.315643 586.444336 333.344757 586.231934 328.464417 586.023438 326.333588 588.681519 326.276062 593.215393 326.17276 601.349731 326.291382 609.487 326.166656 617.620789 326.116943 620.862427 327.559631 622.074158 330.653473 622.04071 337.285004 621.969055 343.918304 621.977295 350.550049 622.038086 353.714874 622.067139 354.97287 620.656799 354.917694 617.490601 354.776001 609.358215 354.821747 601.222595 354.692963 592.208801M301.378998 579.424255C301.686523 578.689331 302.470123 577.659912 302.22641 577.266052 300.231781 574.041809 298.303436 570.710876 295.825989 567.87439 294.205902 566.019531 291.389801 567.138306 289.123138 566.837158 284.446808 566.216003 279.836945 566.352112 275.436096 568.338379 270.758881 570.449463 272.825134 574.53009 272.591675 577.95459 272.486115 579.502869 272.917725 580.771606 274.586121 580.802551 283.345032 580.964905 292.134033 581.818787 301.378998 579.424255M242.893921 605.053833C237.613602 605.305054 232.129852 603.756653 226.546921 606.504517 228.431137 609.288574 229.960052 611.565674 230.043488 614.553467 230.243576 621.719177 230.345474 621.721497 237.673996 621.815735 239.828491 621.843384 241.983994 621.862183 244.138077 621.827209 245.296951 621.808411 246.493439 621.741577 247.294785 620.703857 249.56459 617.764893 247.163498 607.30249 242.893921 605.053833zM473.408752 579.085449C472.245758 575.872803 472.552734 573.304749 475.63855 572.100281 478.58902 570.948486 480.691711 572.606506 482.432312 574.89624 488.466125 582.833557 494.514801 590.759766 500.592773 598.663269 502.603455 601.277893 503.023804 603.948486 500.297668 606.118042 497.591919 608.271362 494.818146 607.379883 492.862518 604.84729 486.366119 596.434509 480.011536 587.912231 473.408752 579.085449zM702.558716 575.469482C701.504578 567.928955 700.534485 560.832458 697.681213 554.175354 696.361633 551.096436 695.153625 547.510681 691.252319 547.296265 686.906738 547.057434 685.552002 550.956787 684.300842 554.126892 681.225647 561.918701 679.699158 570.08136 679.254211 578.45697 679.042664 582.438721 678.901245 586.460754 678.211182 590.373413 676.287109 601.283264 666.383667 605.115417 657.594971 598.269531 649.597534 592.040039 647.164062 582.714172 644.747375 573.49353 641.918152 562.698853 642.21814 551.668274 642.98291 540.717896 643.520569 533.020508 642.194946 525.966431 639.430115 518.826233 634.138428 505.160797 632.132507 491.176575 637.605408 476.961792 643.449707 461.782715 656.02594 455.571289 671.672241 460.223816 674.694397 461.122467 677.724182 462.14801 680.549438 463.526855 688.270935 467.29541 695.827942 467.133911 703.633423 463.670288 709.553406 461.043304 715.665161 458.530396 722.370239 459.294403 736.015015 460.849243 745.306641 471.247803 747.292297 486.440979 748.641724 496.766693 747.610779 506.810791 743.577332 516.293701 739.187378 526.614929 738.965332 537.105469 739.576416 548.065674 740.350464 561.950012 738.608826 575.654602 732.123535 588.332642 729.810181 592.85498 726.84967 596.77063 722.32489 599.372559 715.12439 603.513 708.031006 601.19043 704.624207 593.652588 702.034241 587.921875 702.993408 581.863464 702.558716 575.469482M648.774841 474.325623C644.917542 480.204773 643.272522 486.649658 643.223389 493.687347 643.155396 503.410248 646.2948 512.325317 649.518799 521.246887 651.465515 526.634094 652.504456 532.045959 651.881897 537.860107 650.637207 549.485474 650.588928 561.133728 653.445618 572.570068 654.940125 578.55304 657.038513 584.3797 661.087097 589.219727 662.496582 590.904724 664.387207 592.429932 666.648804 592.013245 669.164368 591.549805 669.467896 589.114685 669.920837 586.942627 670.745117 582.989441 670.436462 578.979492 670.741821 575.005798 671.550598 564.480408 673.364502 554.144714 679.11853 545.047302 685.504333 534.950989 697.390991 535.351624 703.333191 545.738953 706.333496 550.983765 707.979248 556.729065 709.295593 562.612671 711.158203 570.937927 710.703247 579.504578 712.15686 587.847107 713.022827 592.817078 715.47876 593.634216 719.42041 590.429932 723.15686 587.392395 725.089417 583.119202 726.69928 578.695923 731.130676 566.519958 731.493591 553.846558 730.366516 541.220215 729.646423 533.152222 730.623352 525.705383 733.676453 518.316772 737.535339 508.978149 739.472717 499.319458 738.738525 489.096832 737.457825 471.264557 724.13562 463.473419 708.356506 471.598175 703.030396 474.340576 697.881042 477.467957 692.414612 479.885132 686.118652 482.669037 679.502197 484.329132 672.514099 482.411469 669.915283 481.698395 668.36731 480.198792 668.853699 477.378235 669.292786 474.832397 671.098694 473.884644 673.562561 473.856842 675.788391 473.831726 678.074585 474.397247 680.532654 473.516418 668.847168 465.171692 657.226257 465.345703 648.774841 474.325623zM618.203125 588.982788C617.780151 592.719971 615.408325 593.849121 612.5672 593.904358 604.270691 594.065674 595.96875 594.128967 587.672058 594.012329 584.40802 593.966431 581.641357 592.576904 581.798279 588.716675 581.945129 585.104736 584.741089 584.094299 587.75177 584.036133 595.883423 583.87915 604.019226 583.830627 612.151978 583.900635 615.181885 583.926697 617.722656 585.025452 618.203125 588.982788zM587.404419 544.282959C583.690735 543.925903 581.424255 542.422668 581.91748 538.856567 582.36499 535.620667 584.919617 534.757935 587.845703 534.762207 595.831055 534.773926 603.816467 534.770386 611.801636 534.812012 615.094849 534.829163 618.073181 535.796936 618.090515 539.636292 618.108093 543.531921 615.15979 544.365479 611.817139 544.346008 603.831909 544.2995 595.846436 544.311401 587.404419 544.282959zM618.202759 572.02417C617.863831 575.672913 615.788391 577.137695 612.816345 577.174866 604.353149 577.280762 595.887024 577.281311 587.423645 577.185974 584.272339 577.150513 581.743652 575.769714 581.846497 572.209656 581.951294 568.582275 584.609619 567.67926 587.763306 567.682678 596.062256 567.69165 604.361145 567.688965 612.660095 567.674683 615.453186 567.669861 617.499878 568.667053 618.202759 572.02417zM607.80188 551.087769C610.423157 551.276489 612.604431 551.297241 614.712585 551.700134 616.908997 552.119995 618.232239 553.63678 618.131653 555.956726 618.024536 558.428711 616.674377 560.216492 614.150146 560.249023 604.830811 560.369385 595.508118 560.358154 586.188416 560.251709 583.480957 560.220825 581.849121 558.564209 581.844482 555.785522 581.840149 553.211609 583.387878 551.899414 585.879089 551.57373 593.012756 550.640991 600.17981 551.256287 607.80188 551.087769zM347.294403 356.486755C351.971222 353.293945 355.368439 353.608429 357.742004 357.2005 359.782227 360.288086 359.498199 363.217377 356.599304 365.555847 353.981506 367.667572 351.028076 367.791565 348.415497 365.596802 345.51535 363.160522 344.868439 360.135742 347.294403 356.486755z"/></svg></g></svg>