<?xml version="1.0" encoding="UTF-8"?>
<!DOCTYPE svg PUBLIC "-//W3C//DTD SVG 1.1//EN" "http://www.w3.org/Graphics/SVG/1.1/DTD/svg11.dtd">
<svg xmlns="http://www.w3.org/2000/svg" version="1.1" width="3507px" height="2480px" style="shape-rendering:geometricPrecision; text-rendering:geometricPrecision; image-rendering:optimizeQuality; fill-rule:evenodd; clip-rule:evenodd" xmlns:xlink="http://www.w3.org/1999/xlink">
<g><path style="opacity:0.935" fill="#000000" d="M 1208.5,840.5 C 1211.86,840.616 1215.19,840.949 1218.5,841.5C 1218.5,1137.83 1218.5,1434.17 1218.5,1730.5C 1215.15,1730.67 1211.82,1730.5 1208.5,1730C 1208,1729.5 1207.5,1729 1207,1728.5C 1206.33,1433.17 1206.33,1137.83 1207,842.5C 1207.72,841.956 1208.22,841.289 1208.5,840.5 Z"/></g>
<g><path style="opacity:0.947" fill="#000000" d="M 3079.5,847.5 C 3083.46,847.089 3087.13,847.922 3090.5,850C 3094.04,853.201 3097.2,856.701 3100,860.5C 3101.25,863.077 3101.58,865.743 3101,868.5C 3084.41,882.548 3067.91,896.715 3051.5,911C 3044.68,912.342 3039.85,909.842 3037,903.5C 3036.29,901.029 3036.63,898.695 3038,896.5C 3051.67,880.001 3065.5,863.667 3079.5,847.5 Z"/></g>
<g><path style="opacity:0.977" fill="#050505" d="M 871.5,914.5 C 872.623,915.757 873.289,915.424 873.5,913.5C 877.79,912.575 882.124,911.909 886.5,911.5C 887.623,912.757 888.289,912.424 888.5,910.5C 891.807,909.949 895.14,909.616 898.5,909.5C 899.274,910.147 900.274,910.48 901.5,910.5C 903.03,910.36 904.03,909.693 904.5,908.5C 906.167,908.5 907.833,908.5 909.5,908.5C 917.316,909.492 925.316,909.826 933.5,909.5C 935.415,909.784 937.081,909.451 938.5,908.5C 940.833,908.5 943.167,908.5 945.5,908.5C 946.053,910.552 947.053,910.885 948.5,909.5C 949.5,909.5 950.5,909.5 951.5,909.5C 951.62,910.586 952.287,911.253 953.5,911.5C 954.416,911.457 955.083,911.124 955.5,910.5C 960.303,910.994 964.97,911.994 969.5,913.5C 960.516,921.47 955.849,931.47 955.5,943.5C 945.726,940.545 935.726,938.879 925.5,938.5C 925.389,937.883 925.056,937.383 924.5,937C 917.167,936.333 909.833,936.333 902.5,937C 901.584,937.278 900.918,937.778 900.5,938.5C 898.167,938.5 895.833,938.5 893.5,938.5C 892.726,937.853 891.726,937.52 890.5,937.5C 888.645,937.34 887.312,938.007 886.5,939.5C 880.833,940.167 875.167,940.833 869.5,941.5C 868.221,940.285 867.221,940.618 866.5,942.5C 861.833,943.5 857.167,944.5 852.5,945.5C 849.423,945.179 847.09,946.179 845.5,948.5C 841.725,949.555 838.058,950.888 834.5,952.5C 831.796,952.67 830.129,954.003 829.5,956.5C 828.71,957.401 827.71,958.068 826.5,958.5C 822.748,960.88 821.748,964.213 823.5,968.5C 823.957,969.298 824.624,969.631 825.5,969.5C 827.071,972.231 829.405,974.065 832.5,975C 860.911,981.919 889.578,983.252 918.5,979C 933.108,976.519 945.108,969.685 954.5,958.5C 955.906,958.027 956.573,957.027 956.5,955.5C 956.5,955.167 956.5,954.833 956.5,954.5C 959.871,960.052 963.871,965.219 968.5,970C 972.896,972.527 977.229,975.027 981.5,977.5C 980.167,977.833 978.833,978.167 977.5,978.5C 977.565,978.062 977.399,977.728 977,977.5C 975.583,978.078 974.75,979.078 974.5,980.5C 964.373,985.063 954.373,989.897 944.5,995C 918.354,1005.37 891.354,1008.37 863.5,1004C 846.241,1001.1 829.241,997.102 812.5,992C 781.068,982.189 750.068,971.189 719.5,959C 684.091,946.685 647.758,938.518 610.5,934.5C 608.085,933.186 605.252,932.519 602,932.5C 598.748,932.519 595.915,933.186 593.5,934.5C 574.522,935.936 557.189,941.936 541.5,952.5C 539.973,952.427 538.973,953.094 538.5,954.5C 538.5,955.167 538.167,955.5 537.5,955.5C 532.928,958.563 528.761,962.23 525,966.5C 524.517,967.448 524.351,968.448 524.5,969.5C 524.5,970.167 524.167,970.5 523.5,970.5C 521.088,970.694 520.088,972.027 520.5,974.5C 518.088,974.694 517.088,976.027 517.5,978.5C 515.952,978.821 515.285,979.821 515.5,981.5C 512.234,986.37 509.234,991.37 506.5,996.5C 504.707,998.426 503.707,1000.76 503.5,1003.5C 500.469,1009.57 497.802,1015.9 495.5,1022.5C 495.624,1023.11 495.957,1023.44 496.5,1023.5C 494.989,1029.88 493.323,1036.21 491.5,1042.5C 490.883,1042.61 490.383,1042.94 490,1043.5C 489.321,1046.55 488.488,1049.55 487.5,1052.5C 487.624,1053.11 487.957,1053.44 488.5,1053.5C 486.833,1060.83 485.167,1068.17 483.5,1075.5C 480.814,1079.2 479.481,1083.53 479.5,1088.5C 479.5,1089.17 479.5,1089.83 479.5,1090.5C 477.692,1091.92 477.025,1093.92 477.5,1096.5C 475.101,1106.36 472.101,1116.03 468.5,1125.5C 467.136,1127.22 466.136,1129.22 465.5,1131.5C 465.624,1132.11 465.957,1132.44 466.5,1132.5C 466.5,1132.83 466.5,1133.17 466.5,1133.5C 465.624,1133.37 464.957,1133.7 464.5,1134.5C 463.347,1135.69 463.347,1136.69 464.5,1137.5C 464.5,1137.83 464.5,1138.17 464.5,1138.5C 463.624,1138.37 462.957,1138.7 462.5,1139.5C 459.155,1146.85 455.822,1154.19 452.5,1161.5C 451.921,1164.33 450.588,1166.66 448.5,1168.5C 446.896,1169.29 446.229,1170.62 446.5,1172.5C 444.952,1172.82 444.285,1173.82 444.5,1175.5C 442.952,1175.82 442.285,1176.82 442.5,1178.5C 441.167,1178.5 440.5,1179.17 440.5,1180.5C 439.92,1182.75 438.587,1184.42 436.5,1185.5C 433.5,1187.83 430.833,1190.5 428.5,1193.5C 427.833,1194.83 426.833,1195.83 425.5,1196.5C 425.565,1196.06 425.399,1195.73 425,1195.5C 421.076,1198.21 416.909,1200.55 412.5,1202.5C 411.702,1202.96 411.369,1203.62 411.5,1204.5C 407.024,1206.44 402.357,1207.77 397.5,1208.5C 396.791,1207.6 395.791,1207.26 394.5,1207.5C 397.348,1197.72 397.015,1188.05 393.5,1178.5C 401.918,1175.79 409.585,1171.79 416.5,1166.5C 420.236,1165.1 422.569,1162.43 423.5,1158.5C 424.934,1155.95 426.6,1153.62 428.5,1151.5C 431.71,1149.08 433.376,1145.75 433.5,1141.5C 433.5,1141.17 433.5,1140.83 433.5,1140.5C 434.376,1140.63 435.043,1140.3 435.5,1139.5C 436.801,1136.57 437.801,1133.57 438.5,1130.5C 438.629,1128.78 438.962,1127.12 439.5,1125.5C 441.614,1124.22 442.614,1122.22 442.5,1119.5C 450.936,1091.25 459.603,1063.09 468.5,1035C 467.944,1034.62 467.611,1034.12 467.5,1033.5C 468.497,1033.53 469.164,1033.03 469.5,1032C 470.757,1027.8 472.09,1023.64 473.5,1019.5C 473.376,1018.89 473.043,1018.56 472.5,1018.5C 472.5,1017.83 472.5,1017.17 472.5,1016.5C 474.185,1015.82 475.185,1014.48 475.5,1012.5C 475.376,1011.89 475.043,1011.56 474.5,1011.5C 474.5,1010.83 474.5,1010.17 474.5,1009.5C 475.497,1009.53 476.164,1009.03 476.5,1008C 477.068,1006.13 477.735,1004.3 478.5,1002.5C 478.376,1001.89 478.043,1001.56 477.5,1001.5C 477.5,1001.17 477.5,1000.83 477.5,1000.5C 479.956,998.182 481.289,995.182 481.5,991.5C 499.953,946.074 533.286,918.241 581.5,908C 608.725,904.767 635.725,906.434 662.5,913C 699.109,921.648 734.609,933.481 769,948.5C 796.648,938.265 824.482,928.431 852.5,919C 858.735,917.024 865.068,915.524 871.5,914.5 Z"/></g>
<g><path style="opacity:0.151" fill="#929292" d="M 933.5,907.5 C 935.216,907.629 936.883,907.962 938.5,908.5C 937.081,909.451 935.415,909.784 933.5,909.5C 933.5,908.833 933.5,908.167 933.5,907.5 Z"/></g>
<g><path style="opacity:0.973" fill="#c39321" d="M 1025.5,947.5 C 1023.4,957.049 1018.73,965.049 1011.5,971.5C 1002.33,977.026 992.329,979.026 981.5,977.5C 977.229,975.027 972.896,972.527 968.5,970C 963.871,965.219 959.871,960.052 956.5,954.5C 955.756,950.881 955.423,947.215 955.5,943.5C 955.849,931.47 960.516,921.47 969.5,913.5C 978.675,907.81 988.675,905.977 999.5,908C 1018.3,914.419 1026.97,927.586 1025.5,947.5 Z"/></g>
<g><path style="opacity:0.51" fill="#515151" d="M 933.5,907.5 C 933.5,908.167 933.5,908.833 933.5,909.5C 925.316,909.826 917.316,909.492 909.5,908.5C 917.458,907.597 925.458,907.264 933.5,907.5 Z"/></g>
<g><path style="opacity:0.557" fill="#5b5b5b" d="M 904.5,908.5 C 904.03,909.693 903.03,910.36 901.5,910.5C 900.274,910.48 899.274,910.147 898.5,909.5C 900.435,908.85 902.435,908.517 904.5,908.5 Z"/></g>
<g><path style="opacity:0.212" fill="#9a9a9a" d="M 945.5,908.5 C 946.609,908.557 947.609,908.89 948.5,909.5C 947.053,910.885 946.053,910.552 945.5,908.5 Z"/></g>
<g><path style="opacity:0.396" fill="#6d6d6d" d="M 951.5,909.5 C 952.959,909.433 954.292,909.766 955.5,910.5C 955.083,911.124 954.416,911.457 953.5,911.5C 952.287,911.253 951.62,910.586 951.5,909.5 Z"/></g>
<g><path style="opacity:0.447" fill="#747474" d="M 888.5,910.5 C 888.289,912.424 887.623,912.757 886.5,911.5C 886.842,910.662 887.508,910.328 888.5,910.5 Z"/></g>
<g><path style="opacity:0.51" fill="#6d6d6d" d="M 873.5,913.5 C 873.289,915.424 872.623,915.757 871.5,914.5C 871.842,913.662 872.508,913.328 873.5,913.5 Z"/></g>
<g><path style="opacity:1" fill="#e4b441" d="M 985.5,920.5 C 1003.85,919.688 1012.69,928.355 1012,946.5C 1007.75,959.216 998.913,964.716 985.5,963C 973.534,958.244 968.367,949.411 970,936.5C 972.685,928.65 977.852,923.316 985.5,920.5 Z"/></g>
<g><path style="opacity:0.837" fill="#2a2a2a" d="M 610.5,934.5 C 604.833,934.5 599.167,934.5 593.5,934.5C 595.915,933.186 598.748,932.519 602,932.5C 605.252,932.519 608.085,933.186 610.5,934.5 Z"/></g>
<g><path style="opacity:0.682" fill="#535353" d="M 925.5,938.5 C 917.179,937.407 908.846,937.407 900.5,938.5C 900.918,937.778 901.584,937.278 902.5,937C 909.833,936.333 917.167,936.333 924.5,937C 925.056,937.383 925.389,937.883 925.5,938.5 Z"/></g>
<g><path style="opacity:0.698" fill="#4d4d4d" d="M 893.5,938.5 C 891.236,939.219 888.903,939.552 886.5,939.5C 887.312,938.007 888.645,937.34 890.5,937.5C 891.726,937.52 892.726,937.853 893.5,938.5 Z"/></g>
<g><path style="opacity:0.047" fill="#787878" d="M 869.5,941.5 C 868.609,942.11 867.609,942.443 866.5,942.5C 867.221,940.618 868.221,940.285 869.5,941.5 Z"/></g>
<g><path style="opacity:0.972" fill="#000000" d="M 2914.5,942.5 C 3017.83,942.333 3121.17,942.5 3224.5,943C 3225,943.5 3225.5,944 3226,944.5C 3226.67,965.833 3226.67,987.167 3226,1008.5C 3224.18,1010.05 3222.01,1010.71 3219.5,1010.5C 3215.64,1011.15 3212.8,1009.82 3211,1006.5C 3210.77,989.483 3205.94,973.983 3196.5,960C 3138.5,959.5 3080.5,959.333 3022.5,959.5C 3022.5,1027.83 3022.5,1096.17 3022.5,1164.5C 3064.5,1164.67 3106.5,1164.5 3148.5,1164C 3155.17,1151.01 3158.67,1137.18 3159,1122.5C 3164.03,1119.9 3169.03,1119.9 3174,1122.5C 3174.83,1156.17 3174.67,1189.84 3173.5,1223.5C 3169.22,1224.61 3164.89,1224.77 3160.5,1224C 3160,1223.5 3159.5,1223 3159,1222.5C 3158.73,1207.99 3155.23,1194.32 3148.5,1181.5C 3106.51,1180.5 3064.51,1180.17 3022.5,1180.5C 3022.5,1249.5 3022.5,1318.5 3022.5,1387.5C 3080.5,1387.67 3138.5,1387.5 3196.5,1387C 3206.22,1371.97 3211.22,1355.47 3211.5,1337.5C 3216.13,1336.34 3220.8,1336.17 3225.5,1337C 3226.49,1359.09 3226.83,1381.26 3226.5,1403.5C 3121.83,1403.67 3017.17,1403.5 2912.5,1403C 2911.53,1398.26 2911.2,1393.43 2911.5,1388.5C 2929.12,1388.68 2945.29,1384.01 2960,1374.5C 2960.83,1240.17 2960.67,1105.83 2959.5,971.5C 2945.48,962.66 2930.14,958.494 2913.5,959C 2913,958.5 2912.5,958 2912,957.5C 2911.33,953.5 2911.33,949.5 2912,945.5C 2912.7,944.309 2913.53,943.309 2914.5,942.5 Z"/></g>
<g><path style="opacity:0.972" fill="#000000" d="M 2718.5,943.5 C 2733.74,943.176 2748.91,943.509 2764,944.5C 2764.5,976.832 2764.67,1009.16 2764.5,1041.5C 2798.17,1041.5 2831.83,1041.5 2865.5,1041.5C 2865.5,1044.17 2865.5,1046.83 2865.5,1049.5C 2831.83,1049.5 2798.17,1049.5 2764.5,1049.5C 2764.33,1136.5 2764.5,1223.5 2765,1310.5C 2765.6,1337.01 2776.1,1358.51 2796.5,1375C 2831.49,1393.09 2862.32,1387.59 2889,1358.5C 2890.75,1355.33 2892.75,1352.33 2895,1349.5C 2896.97,1350.31 2898.47,1351.64 2899.5,1353.5C 2880.94,1387.13 2852.27,1403.79 2813.5,1403.5C 2766.32,1401.99 2735.82,1378.66 2722,1333.5C 2719.8,1324.29 2718.46,1314.96 2718,1305.5C 2717.5,1220.17 2717.33,1134.83 2717.5,1049.5C 2701.5,1049.5 2685.5,1049.5 2669.5,1049.5C 2669.5,1046.83 2669.5,1044.17 2669.5,1041.5C 2685.5,1041.5 2701.5,1041.5 2717.5,1041.5C 2717.19,1008.8 2717.52,976.136 2718.5,943.5 Z"/></g>
<g><path style="opacity:0.384" fill="#4d4d4d" d="M 852.5,945.5 C 850.321,946.677 847.987,947.677 845.5,948.5C 847.09,946.179 849.423,945.179 852.5,945.5 Z"/></g>
<g><path style="opacity:0.944" fill="#030303" d="M 1025.5,947.5 C 1042.62,964.377 1055.79,984.044 1065,1006.5C 1077.69,1036.94 1085.19,1068.6 1087.5,1101.5C 1086.86,1102.1 1086.53,1102.93 1086.5,1104C 1086.68,1105.38 1087.35,1106.21 1088.5,1106.5C 1088.5,1106.83 1088.5,1107.17 1088.5,1107.5C 1087.85,1108.27 1087.52,1109.27 1087.5,1110.5C 1087.64,1112.03 1088.31,1113.03 1089.5,1113.5C 1089.5,1114.17 1089.5,1114.83 1089.5,1115.5C 1088.86,1116.1 1088.53,1116.93 1088.5,1118C 1088.68,1119.38 1089.35,1120.21 1090.5,1120.5C 1090.5,1121.83 1090.5,1123.17 1090.5,1124.5C 1089.86,1125.1 1089.53,1125.93 1089.5,1127C 1089.68,1128.38 1090.35,1129.21 1091.5,1129.5C 1091.5,1131.5 1091.5,1133.5 1091.5,1135.5C 1090.85,1136.27 1090.52,1137.27 1090.5,1138.5C 1090.64,1140.03 1091.31,1141.03 1092.5,1141.5C 1092.84,1160.84 1093.01,1180.17 1093,1199.5C 1086.55,1256.88 1076.21,1313.55 1062,1369.5C 1057.01,1388.97 1050.18,1407.64 1041.5,1425.5C 1034.81,1417.14 1026.48,1411.14 1016.5,1407.5C 1017.87,1406.49 1019.2,1405.49 1020.5,1404.5C 1022.31,1402.91 1023.64,1400.91 1024.5,1398.5C 1024.38,1397.89 1024.04,1397.56 1023.5,1397.5C 1023.5,1396.83 1023.5,1396.17 1023.5,1395.5C 1024.5,1395.53 1025.16,1395.03 1025.5,1394C 1027.17,1389 1028.83,1384 1030.5,1379C 1030.43,1378.24 1030.1,1377.74 1029.5,1377.5C 1029.5,1377.17 1029.5,1376.83 1029.5,1376.5C 1031.42,1376.29 1031.76,1375.62 1030.5,1374.5C 1030.5,1374.17 1030.5,1373.83 1030.5,1373.5C 1031.5,1373.53 1032.16,1373.03 1032.5,1372C 1033.61,1370.32 1033.61,1368.82 1032.5,1367.5C 1032.5,1367.17 1032.5,1366.83 1032.5,1366.5C 1034.42,1366.29 1034.76,1365.62 1033.5,1364.5C 1033.63,1362.78 1033.96,1361.12 1034.5,1359.5C 1035.5,1359.53 1036.16,1359.03 1036.5,1358C 1037.61,1356.32 1037.61,1354.82 1036.5,1353.5C 1037.04,1351.88 1037.37,1350.22 1037.5,1348.5C 1039.55,1347.95 1039.89,1346.95 1038.5,1345.5C 1038.5,1345.17 1038.5,1344.83 1038.5,1344.5C 1039.5,1344.53 1040.16,1344.03 1040.5,1343C 1041.61,1341.32 1041.61,1339.82 1040.5,1338.5C 1040.5,1338.17 1040.5,1337.83 1040.5,1337.5C 1042.38,1336.78 1042.72,1335.78 1041.5,1334.5C 1041.5,1334.17 1041.5,1333.83 1041.5,1333.5C 1043.98,1331.91 1044.65,1329.91 1043.5,1327.5C 1043.5,1326.83 1043.5,1326.17 1043.5,1325.5C 1044.59,1325.38 1045.25,1324.71 1045.5,1323.5C 1046.09,1320.98 1046.76,1318.48 1047.5,1316C 1047.43,1315.24 1047.1,1314.74 1046.5,1314.5C 1046.52,1312.44 1046.85,1310.44 1047.5,1308.5C 1050.05,1306.2 1050.72,1303.53 1049.5,1300.5C 1049.83,1298.5 1050.17,1296.5 1050.5,1294.5C 1052.38,1293.78 1052.72,1292.78 1051.5,1291.5C 1051.5,1290.83 1051.5,1290.17 1051.5,1289.5C 1053.38,1288.78 1053.72,1287.78 1052.5,1286.5C 1053.61,1280.85 1054.61,1275.19 1055.5,1269.5C 1057.52,1268.46 1057.85,1267.13 1056.5,1265.5C 1057.7,1258.14 1059.04,1250.81 1060.5,1243.5C 1062.29,1239.9 1063.63,1235.9 1064.5,1231.5C 1064.46,1230.58 1064.12,1229.92 1063.5,1229.5C 1067.35,1202.65 1068.52,1175.65 1067,1148.5C 1066,1146.83 1065,1145.17 1064,1143.5C 1054.58,1176.52 1037.42,1204.69 1012.5,1228C 997.699,1240.21 980.699,1247.05 961.5,1248.5C 954.167,1248.5 946.833,1248.5 939.5,1248.5C 938.167,1248.5 936.833,1248.5 935.5,1248.5C 934.779,1246.62 933.779,1246.28 932.5,1247.5C 923.766,1246.03 915.433,1243.37 907.5,1239.5C 904.664,1236.24 900.997,1234.24 896.5,1233.5C 876.841,1223.34 857.507,1212.67 838.5,1201.5C 837.612,1199.19 835.946,1197.52 833.5,1196.5C 832.893,1196.62 832.56,1196.96 832.5,1197.5C 831.5,1197.17 830.833,1196.5 830.5,1195.5C 829.426,1194.12 828.093,1192.95 826.5,1192C 825.563,1191.31 824.897,1191.47 824.5,1192.5C 818.5,1188.83 812.5,1185.17 806.5,1181.5C 805.965,1179.55 804.632,1178.55 802.5,1178.5C 788.944,1171.53 774.944,1165.53 760.5,1160.5C 763.119,1150.84 763.119,1141.17 760.5,1131.5C 779.257,1136.37 796.923,1143.87 813.5,1154C 821.554,1160.39 829.888,1166.39 838.5,1172C 857.673,1183.7 876.673,1195.53 895.5,1207.5C 897.316,1209.44 899.316,1210.11 901.5,1209.5C 902.167,1209.5 902.5,1209.83 902.5,1210.5C 902.369,1211.38 902.702,1212.04 903.5,1212.5C 906.079,1213.71 908.579,1215.04 911,1216.5C 911.399,1216.27 911.565,1215.94 911.5,1215.5C 912.167,1215.5 912.833,1215.5 913.5,1215.5C 913.577,1216.75 914.244,1217.58 915.5,1218C 916.872,1218.4 918.205,1218.9 919.5,1219.5C 920.107,1219.38 920.44,1219.04 920.5,1218.5C 961.201,1226.99 994.035,1214.66 1019,1181.5C 1033.4,1159.7 1043.73,1136.03 1050,1110.5C 1055.14,1092.05 1056.64,1073.38 1054.5,1054.5C 1055.1,1054.26 1055.43,1053.76 1055.5,1053C 1054.92,1051.19 1054.42,1049.36 1054,1047.5C 1053.58,1046.24 1052.75,1045.58 1051.5,1045.5C 1043.88,1017.58 1030.54,992.911 1011.5,971.5C 1018.73,965.049 1023.4,957.049 1025.5,947.5 Z"/></g>
<g><path style="opacity:0.059" fill="#818181" d="M 541.5,952.5 C 541.027,953.906 540.027,954.573 538.5,954.5C 538.973,953.094 539.973,952.427 541.5,952.5 Z"/></g>
<g><path style="opacity:0.329" fill="#555555" d="M 834.5,952.5 C 833.055,954.063 831.389,955.396 829.5,956.5C 830.129,954.003 831.796,952.67 834.5,952.5 Z"/></g>
<g><path style="opacity:0.176" fill="#898989" d="M 956.5,955.5 C 956.573,957.027 955.906,958.027 954.5,958.5C 954.427,956.973 955.094,955.973 956.5,955.5 Z"/></g>
<g><path style="opacity:0.933" fill="#000000" d="M 1483.5,960.5 C 1534.18,955.528 1583.52,961.361 1631.5,978C 1664.17,992.405 1692.67,1012.57 1717,1038.5C 1742.76,1068.32 1763.76,1101.32 1780,1137.5C 1806.83,1197.15 1833.66,1256.82 1860.5,1316.5C 1881.87,1271.96 1901.87,1227.13 1920.5,1182C 1952.66,1112.18 1984.16,1042.01 2015,971.5C 2019.83,967.418 2025.33,966.084 2031.5,967.5C 2032.64,969.421 2032.81,971.421 2032,973.5C 1966.9,1118.36 1902.4,1263.36 1838.5,1408.5C 1837.5,1408.5 1836.5,1408.5 1835.5,1408.5C 1804.45,1334.52 1771.95,1261.19 1738,1188.5C 1718.88,1138.25 1693.55,1091.58 1662,1048.5C 1613.34,986.157 1549.84,962.657 1471.5,978C 1442.37,982.811 1417.54,995.645 1397,1016.5C 1386.53,1029.77 1379.53,1044.77 1376,1061.5C 1371.67,1064.17 1367.33,1064.17 1363,1061.5C 1368.1,1025.79 1386.27,998.954 1417.5,981C 1438.65,971.052 1460.65,964.219 1483.5,960.5 Z"/></g>
<g><path style="opacity:0.027" fill="#979797" d="M 537.5,955.5 C 533.139,960.193 528.805,964.859 524.5,969.5C 524.351,968.448 524.517,967.448 525,966.5C 528.761,962.23 532.928,958.563 537.5,955.5 Z"/></g>
<g><path style="opacity:0.525" fill="#6e6e6e" d="M 826.5,958.5 C 823.707,962.111 823.373,965.778 825.5,969.5C 824.624,969.631 823.957,969.298 823.5,968.5C 821.748,964.213 822.748,960.88 826.5,958.5 Z"/></g>
<g><path style="opacity:0.076" fill="#8a8a8a" d="M 523.5,970.5 C 522.488,971.872 521.488,973.205 520.5,974.5C 520.088,972.027 521.088,970.694 523.5,970.5 Z"/></g>
<g><path style="opacity:0.1" fill="#818181" d="M 520.5,974.5 C 519.488,975.872 518.488,977.205 517.5,978.5C 517.088,976.027 518.088,974.694 520.5,974.5 Z"/></g>
<g><path style="opacity:0.188" fill="#7f7f7f" d="M 517.5,978.5 C 517.068,979.71 516.401,980.71 515.5,981.5C 515.285,979.821 515.952,978.821 517.5,978.5 Z"/></g>
<g><path style="opacity:0.008" fill="#868686" d="M 977.5,978.5 C 976.71,979.401 975.71,980.068 974.5,980.5C 974.75,979.078 975.583,978.078 977,977.5C 977.399,977.728 977.565,978.062 977.5,978.5 Z"/></g>
<g><path style="opacity:0.455" fill="#4f4f4f" d="M 481.5,991.5 C 481.289,995.182 479.956,998.182 477.5,1000.5C 478.463,997.256 479.796,994.256 481.5,991.5 Z"/></g>
<g><path style="opacity:0.314" fill="#5f5f5f" d="M 506.5,996.5 C 506.293,999.241 505.293,1001.57 503.5,1003.5C 503.707,1000.76 504.707,998.426 506.5,996.5 Z"/></g>
<g><path style="opacity:0.333" fill="#898989" d="M 477.5,1001.5 C 478.043,1001.56 478.376,1001.89 478.5,1002.5C 477.735,1004.3 477.068,1006.13 476.5,1008C 476.164,1009.03 475.497,1009.53 474.5,1009.5C 475.512,1006.75 476.512,1004.08 477.5,1001.5 Z"/></g>
<g><path style="opacity:0.212" fill="#868686" d="M 474.5,1011.5 C 475.043,1011.56 475.376,1011.89 475.5,1012.5C 475.185,1014.48 474.185,1015.82 472.5,1016.5C 473.024,1014.69 473.691,1013.03 474.5,1011.5 Z"/></g>
<g><path style="opacity:0.553" fill="#4d4d4d" d="M 503.5,1003.5 C 501.563,1010.31 499.23,1016.98 496.5,1023.5C 495.957,1023.44 495.624,1023.11 495.5,1022.5C 497.802,1015.9 500.469,1009.57 503.5,1003.5 Z"/></g>
<g><path style="opacity:0.416" fill="#797979" d="M 472.5,1018.5 C 473.043,1018.56 473.376,1018.89 473.5,1019.5C 472.09,1023.64 470.757,1027.8 469.5,1032C 469.164,1033.03 468.497,1033.53 467.5,1033.5C 469.027,1028.37 470.693,1023.37 472.5,1018.5 Z"/></g>
<g><path style="opacity:0.977" fill="#000000" d="M 2497.5,1041.5 C 2533.44,1039.06 2561.28,1052.72 2581,1082.5C 2591.19,1099.38 2598.85,1117.38 2604,1136.5C 2625.32,1224.13 2646.49,1311.8 2667.5,1399.5C 2667.32,1400.55 2666.99,1401.55 2666.5,1402.5C 2651.51,1403.67 2636.51,1403.83 2621.5,1403C 2620.57,1402.61 2619.91,1401.95 2619.5,1401C 2598.26,1313.85 2577.09,1226.69 2556,1139.5C 2551.83,1122 2545.5,1105.33 2537,1089.5C 2515.93,1058.69 2488.43,1051.52 2454.5,1068C 2443.76,1074.07 2434.93,1082.24 2428,1092.5C 2427.67,1195.83 2427.33,1299.17 2427,1402.5C 2412.57,1403.66 2398.07,1403.82 2383.5,1403C 2383,1402.5 2382.5,1402 2382,1401.5C 2380.34,1282.89 2380.01,1164.22 2381,1045.5C 2382.81,1043.6 2384.97,1043.1 2387.5,1044C 2403.33,1053.17 2415.83,1065.67 2425,1081.5C 2434.65,1070.18 2445.81,1060.68 2458.5,1053C 2471,1047 2484,1043.16 2497.5,1041.5 Z"/></g>
<g><path style="opacity:0.647" fill="#525252" d="M 491.5,1042.5 C 490.652,1046.23 489.652,1049.89 488.5,1053.5C 487.957,1053.44 487.624,1053.11 487.5,1052.5C 488.488,1049.55 489.321,1046.55 490,1043.5C 490.383,1042.94 490.883,1042.61 491.5,1042.5 Z"/></g>
<g><path style="opacity:0.906" fill="#464646" d="M 1051.5,1045.5 C 1052.75,1045.58 1053.58,1046.24 1054,1047.5C 1054.42,1049.36 1054.92,1051.19 1055.5,1053C 1055.43,1053.76 1055.1,1054.26 1054.5,1054.5C 1053.36,1051.63 1052.36,1048.63 1051.5,1045.5 Z"/></g>
<g><path style="opacity:0.725" fill="#3c3c3c" d="M 483.5,1075.5 C 482.302,1079.98 480.969,1084.31 479.5,1088.5C 479.481,1083.53 480.814,1079.2 483.5,1075.5 Z"/></g>
<g><path style="opacity:0.776" fill="#505050" d="M 479.5,1090.5 C 479.125,1092.7 478.458,1094.7 477.5,1096.5C 477.025,1093.92 477.692,1091.92 479.5,1090.5 Z"/></g>
<g><path style="opacity:0.94" fill="#000000" d="M 1622.5,1103.5 C 1652.41,1117.94 1670.58,1141.6 1677,1174.5C 1678.16,1181.81 1679.16,1189.14 1680,1196.5C 1680.99,1263.92 1680.66,1331.25 1679,1398.5C 1678.1,1399.7 1676.93,1400.53 1675.5,1401C 1658.08,1401.97 1640.74,1401.64 1623.5,1400C 1623,1399.5 1622.5,1399 1622,1398.5C 1621.83,1383.16 1621.33,1367.82 1620.5,1352.5C 1596.61,1379.16 1566.94,1396 1531.5,1403C 1498.44,1407.91 1465.44,1407.57 1432.5,1402C 1407.63,1396.4 1385.3,1385.73 1365.5,1370C 1332.71,1339.05 1321.88,1301.55 1333,1257.5C 1340.96,1233.74 1355.13,1214.58 1375.5,1200C 1395.7,1187.25 1417.7,1178.91 1441.5,1175C 1462.05,1171.9 1482.71,1170.23 1503.5,1170C 1541.5,1170.33 1579.5,1170.33 1617.5,1170C 1619.33,1169.5 1620.5,1168.33 1621,1166.5C 1621.18,1145.43 1621.68,1124.43 1622.5,1103.5 Z M 1609.5,1184.5 C 1612.94,1184.3 1616.27,1184.8 1619.5,1186C 1620.13,1186.75 1620.63,1187.58 1621,1188.5C 1621.67,1233.5 1621.67,1278.5 1621,1323.5C 1619.67,1329.82 1617.01,1335.49 1613,1340.5C 1598.43,1360.06 1579.6,1373.89 1556.5,1382C 1520.56,1395.44 1484.56,1395.78 1448.5,1383C 1414.2,1368.37 1394.7,1342.53 1390,1305.5C 1382.84,1262.66 1396.67,1228.16 1431.5,1202C 1444.98,1193.63 1459.64,1188.63 1475.5,1187C 1520.31,1185.88 1564.98,1185.05 1609.5,1184.5 Z"/></g>
<g><path style="opacity:0.027" fill="#515151" d="M 1087.5,1101.5 C 1088.3,1103.04 1088.63,1104.71 1088.5,1106.5C 1088.63,1104.71 1088.3,1103.04 1087.5,1101.5 Z"/></g>
<g><path style="opacity:0.948" fill="#000000" d="M 2260.5,1106.5 C 2262.53,1106.34 2264.53,1106.5 2266.5,1107C 2294.57,1123.6 2311.4,1148.1 2317,1180.5C 2318.64,1253.81 2318.98,1327.14 2318,1400.5C 2317.1,1401.7 2315.93,1402.53 2314.5,1403C 2297.1,1403.96 2279.77,1403.62 2262.5,1402C 2262,1401.5 2261.5,1401 2261,1400.5C 2260.83,1385.16 2260.33,1369.82 2259.5,1354.5C 2232.09,1384.37 2198.09,1401.87 2157.5,1407C 2110.25,1414.38 2065.59,1407.04 2023.5,1385C 1978.68,1356.91 1961.18,1316.75 1971,1264.5C 1976.53,1242.27 1988.03,1223.77 2005.5,1209C 2020.54,1195.81 2037.87,1186.81 2057.5,1182C 2082.43,1175.77 2107.77,1172.44 2133.5,1172C 2164.17,1171.49 2194.84,1171.66 2225.5,1172.5C 2236.57,1172.63 2247.57,1172.13 2258.5,1171C 2259,1170.5 2259.5,1170 2260,1169.5C 2260.5,1148.5 2260.67,1127.5 2260.5,1106.5 Z M 2163.5,1186.5 C 2194.36,1186.57 2225.36,1186.74 2256.5,1187C 2257.93,1187.47 2259.1,1188.3 2260,1189.5C 2260.67,1234.83 2260.67,1280.17 2260,1325.5C 2257.4,1334.7 2252.73,1342.7 2246,1349.5C 2229.66,1367.43 2209.83,1379.93 2186.5,1387C 2153.24,1397.52 2120.24,1396.85 2087.5,1385C 2052.48,1369.97 2032.65,1343.47 2028,1305.5C 2022.49,1264.72 2035.65,1231.56 2067.5,1206C 2083.42,1195.02 2101.09,1189.02 2120.5,1188C 2135.01,1187.83 2149.34,1187.33 2163.5,1186.5 Z"/></g>
<g><path style="opacity:0.959" fill="#c39320" d="M 760.5,1131.5 C 763.119,1141.17 763.119,1150.84 760.5,1160.5C 749.356,1179.05 733.356,1184.89 712.5,1178C 706.408,1175.07 701.408,1170.9 697.5,1165.5C 697.737,1164.21 697.404,1163.21 696.5,1162.5C 692.525,1153.86 691.525,1144.86 693.5,1135.5C 697.351,1122.82 705.684,1114.65 718.5,1111C 737.749,1107.46 751.749,1114.29 760.5,1131.5 Z"/></g>
<g><path style="opacity:0.024" fill="#5a5a5a" d="M 1088.5,1107.5 C 1088.83,1109.5 1089.17,1111.5 1089.5,1113.5C 1088.31,1113.03 1087.64,1112.03 1087.5,1110.5C 1087.52,1109.27 1087.85,1108.27 1088.5,1107.5 Z"/></g>
<g><path style="opacity:0.012" fill="#808080" d="M 1089.5,1115.5 C 1090.04,1117.12 1090.37,1118.78 1090.5,1120.5C 1089.35,1120.21 1088.68,1119.38 1088.5,1118C 1088.53,1116.93 1088.86,1116.1 1089.5,1115.5 Z"/></g>
<g><path style="opacity:0.255" fill="#5c5c5c" d="M 442.5,1119.5 C 442.614,1122.22 441.614,1124.22 439.5,1125.5C 440.13,1123.25 441.13,1121.25 442.5,1119.5 Z"/></g>
<g><path style="opacity:1" fill="#e4b441" d="M 722.5,1123.5 C 740.853,1122.69 749.687,1131.35 749,1149.5C 744.746,1162.22 735.913,1167.72 722.5,1166C 710.534,1161.24 705.367,1152.41 707,1139.5C 709.685,1131.65 714.852,1126.32 722.5,1123.5 Z"/></g>
<g><path style="opacity:0.2" fill="#878787" d="M 1090.5,1124.5 C 1091.04,1126.12 1091.37,1127.78 1091.5,1129.5C 1090.35,1129.21 1089.68,1128.38 1089.5,1127C 1089.53,1125.93 1089.86,1125.1 1090.5,1124.5 Z"/></g>
<g><path style="opacity:0.027" fill="#707070" d="M 468.5,1125.5 C 468.233,1127.97 467.566,1130.3 466.5,1132.5C 465.957,1132.44 465.624,1132.11 465.5,1131.5C 466.136,1129.22 467.136,1127.22 468.5,1125.5 Z"/></g>
<g><path style="opacity:0.376" fill="#636363" d="M 438.5,1130.5 C 437.801,1133.57 436.801,1136.57 435.5,1139.5C 435.043,1140.3 434.376,1140.63 433.5,1140.5C 434.657,1136.85 436.323,1133.52 438.5,1130.5 Z"/></g>
<g><path style="opacity:0.208" fill="#757575" d="M 466.5,1133.5 C 465.833,1134.83 465.167,1136.17 464.5,1137.5C 463.347,1136.69 463.347,1135.69 464.5,1134.5C 464.957,1133.7 465.624,1133.37 466.5,1133.5 Z"/></g>
<g><path style="opacity:0.99" fill="#080808" d="M 693.5,1135.5 C 691.525,1144.86 692.525,1153.86 696.5,1162.5C 692.667,1164.46 688.667,1166.13 684.5,1167.5C 677.273,1170.78 670.273,1174.62 663.5,1179C 652.621,1187.27 641.954,1195.77 631.5,1204.5C 630.242,1203.98 629.242,1204.65 628.5,1206.5C 601.574,1229.3 574.24,1251.63 546.5,1273.5C 546.565,1273.06 546.399,1272.73 546,1272.5C 544.961,1273.24 544.461,1274.24 544.5,1275.5C 543.5,1276.17 542.5,1276.83 541.5,1277.5C 541.565,1277.06 541.399,1276.73 541,1276.5C 539.961,1277.24 539.461,1278.24 539.5,1279.5C 538.833,1279.83 538.167,1280.17 537.5,1280.5C 536.242,1279.98 535.242,1280.65 534.5,1282.5C 501.44,1311.37 463.44,1331.37 420.5,1342.5C 419.053,1341.11 418.053,1341.45 417.5,1343.5C 415.194,1343.99 412.861,1344.33 410.5,1344.5C 409.053,1343.11 408.053,1343.45 407.5,1345.5C 406.5,1345.5 405.5,1345.5 404.5,1345.5C 404.083,1344.88 403.416,1344.54 402.5,1344.5C 401.287,1344.75 400.62,1345.41 400.5,1346.5C 399.5,1346.5 398.5,1346.5 397.5,1346.5C 396.221,1345.28 395.221,1345.62 394.5,1347.5C 392.167,1347.5 389.833,1347.5 387.5,1347.5C 386.903,1346.86 386.07,1346.53 385,1346.5C 383.301,1346.39 382.134,1347.05 381.5,1348.5C 371.833,1348.5 362.167,1348.5 352.5,1348.5C 352.38,1347.41 351.713,1346.75 350.5,1346.5C 349.584,1346.54 348.917,1346.88 348.5,1347.5C 329.204,1346.34 310.204,1343.34 291.5,1338.5C 300.975,1332.55 307.309,1324.21 310.5,1313.5C 324.603,1320.98 339.603,1325.65 355.5,1327.5C 356.879,1329.6 358.545,1329.93 360.5,1328.5C 381.491,1329.03 401.825,1325.7 421.5,1318.5C 421.56,1319.04 421.893,1319.38 422.5,1319.5C 424.385,1318.39 426.385,1317.56 428.5,1317C 429.756,1316.58 430.423,1315.75 430.5,1314.5C 444.066,1309.05 457.399,1303.05 470.5,1296.5C 470.435,1296.94 470.601,1297.27 471,1297.5C 472.419,1296.54 473.919,1295.71 475.5,1295C 476.252,1294.33 476.586,1293.5 476.5,1292.5C 507.101,1276.04 535.434,1256.37 561.5,1233.5C 564.167,1232.83 565.833,1231.17 566.5,1228.5C 566.973,1227.09 567.973,1226.43 569.5,1226.5C 572.167,1225.83 573.833,1224.17 574.5,1221.5C 575.5,1219.83 576.833,1218.5 578.5,1217.5C 578.897,1218.53 579.563,1218.69 580.5,1218C 582.464,1216.55 583.797,1214.72 584.5,1212.5C 604.056,1194.45 624.389,1177.28 645.5,1161C 649.071,1158.58 652.738,1156.41 656.5,1154.5C 658.632,1154.45 659.965,1153.45 660.5,1151.5C 660.5,1150.83 660.833,1150.5 661.5,1150.5C 661.56,1151.04 661.893,1151.38 662.5,1151.5C 668.962,1148.28 674.962,1144.62 680.5,1140.5C 684.718,1138.56 689.051,1136.89 693.5,1135.5 Z"/></g>
<g><path style="opacity:0.004" fill="#7b7b7b" d="M 1091.5,1135.5 C 1091.83,1137.5 1092.17,1139.5 1092.5,1141.5C 1091.31,1141.03 1090.64,1140.03 1090.5,1138.5C 1090.52,1137.27 1090.85,1136.27 1091.5,1135.5 Z"/></g>
<g><path style="opacity:0.663" fill="#5b5b5b" d="M 433.5,1141.5 C 433.376,1145.75 431.71,1149.08 428.5,1151.5C 430.175,1148.12 431.842,1144.79 433.5,1141.5 Z"/></g>
<g><path style="opacity:0.442" fill="#4a4a4a" d="M 680.5,1140.5 C 674.962,1144.62 668.962,1148.28 662.5,1151.5C 661.893,1151.38 661.56,1151.04 661.5,1150.5C 667.675,1146.91 674.009,1143.58 680.5,1140.5 Z"/></g>
<g><path style="opacity:0.027" fill="#858585" d="M 464.5,1138.5 C 461.264,1146.64 457.264,1154.31 452.5,1161.5C 455.822,1154.19 459.155,1146.85 462.5,1139.5C 462.957,1138.7 463.624,1138.37 464.5,1138.5 Z"/></g>
<g><path style="opacity:0.455" fill="#757575" d="M 660.5,1151.5 C 659.965,1153.45 658.632,1154.45 656.5,1154.5C 657.436,1153.03 658.77,1152.03 660.5,1151.5 Z"/></g>
<g><path style="opacity:0.954" fill="#c39321" d="M 393.5,1178.5 C 397.015,1188.05 397.348,1197.72 394.5,1207.5C 395.791,1207.26 396.791,1207.6 397.5,1208.5C 396.448,1208.35 395.448,1208.52 394.5,1209C 385.481,1225.84 371.481,1232.51 352.5,1229C 329.266,1220.03 321.432,1203.53 329,1179.5C 339.933,1160.85 355.766,1155.02 376.5,1162C 383.994,1165.66 389.661,1171.16 393.5,1178.5 Z"/></g>
<g><path style="opacity:0.729" fill="#535353" d="M 423.5,1158.5 C 422.569,1162.43 420.236,1165.1 416.5,1166.5C 418.862,1163.81 421.196,1161.14 423.5,1158.5 Z"/></g>
<g><path style="opacity:0.467" fill="#40403f" d="M 696.5,1162.5 C 697.404,1163.21 697.737,1164.21 697.5,1165.5C 693.14,1166.01 688.807,1166.67 684.5,1167.5C 688.667,1166.13 692.667,1164.46 696.5,1162.5 Z"/></g>
<g><path style="opacity:0.055" fill="#b1b1b1" d="M 448.5,1168.5 C 448.34,1170.15 447.674,1171.49 446.5,1172.5C 446.229,1170.62 446.896,1169.29 448.5,1168.5 Z"/></g>
<g><path style="opacity:1" fill="#e4b441" d="M 356.5,1173.5 C 374.853,1172.69 383.687,1181.35 383,1199.5C 378.746,1212.22 369.913,1217.72 356.5,1216C 344.534,1211.24 339.367,1202.41 341,1189.5C 343.685,1181.65 348.852,1176.32 356.5,1173.5 Z"/></g>
<g><path style="opacity:0.088" fill="#989898" d="M 446.5,1172.5 C 446.068,1173.71 445.401,1174.71 444.5,1175.5C 444.285,1173.82 444.952,1172.82 446.5,1172.5 Z"/></g>
<g><path style="opacity:0.086" fill="#959595" d="M 444.5,1175.5 C 444.068,1176.71 443.401,1177.71 442.5,1178.5C 442.285,1176.82 442.952,1175.82 444.5,1175.5 Z"/></g>
<g><path style="opacity:0.039" fill="#9e9e9e" d="M 442.5,1178.5 C 442.167,1179.5 441.5,1180.17 440.5,1180.5C 440.5,1179.17 441.167,1178.5 442.5,1178.5 Z"/></g>
<g><path style="opacity:0.573" fill="#6f6f6f" d="M 802.5,1178.5 C 804.632,1178.55 805.965,1179.55 806.5,1181.5C 804.77,1180.97 803.436,1179.97 802.5,1178.5 Z"/></g>
<g><path style="opacity:0.02" fill="#525252" d="M 436.5,1185.5 C 434.833,1189.17 432.167,1191.83 428.5,1193.5C 430.833,1190.5 433.5,1187.83 436.5,1185.5 Z"/></g>
<g><path style="opacity:0.212" fill="#5a5a5a" d="M 824.5,1192.5 C 824.897,1191.47 825.563,1191.31 826.5,1192C 828.093,1192.95 829.426,1194.12 830.5,1195.5C 828.216,1195.02 826.216,1194.02 824.5,1192.5 Z"/></g>
<g><path style="opacity:0.004" fill="#6d6d6d" d="M 832.5,1197.5 C 832.56,1196.96 832.893,1196.62 833.5,1196.5C 835.946,1197.52 837.612,1199.19 838.5,1201.5C 836.5,1200.17 834.5,1198.83 832.5,1197.5 Z"/></g>
<g><path style="opacity:0.004" fill="#5b5b5b" d="M 425.5,1196.5 C 421.162,1199.67 416.496,1202.34 411.5,1204.5C 411.369,1203.62 411.702,1202.96 412.5,1202.5C 416.909,1200.55 421.076,1198.21 425,1195.5C 425.399,1195.73 425.565,1196.06 425.5,1196.5 Z"/></g>
<g><path style="opacity:0.088" fill="#9c9c9c" d="M 631.5,1204.5 C 631.027,1205.91 630.027,1206.57 628.5,1206.5C 629.242,1204.65 630.242,1203.98 631.5,1204.5 Z"/></g>
<g><path style="opacity:0.463" fill="#676767" d="M 895.5,1207.5 C 897.703,1207.6 899.703,1208.27 901.5,1209.5C 899.316,1210.11 897.316,1209.44 895.5,1207.5 Z"/></g>
<g><path style="opacity:0.237" fill="#5a5a5a" d="M 902.5,1210.5 C 905.669,1211.92 908.669,1213.58 911.5,1215.5C 911.565,1215.94 911.399,1216.27 911,1216.5C 908.579,1215.04 906.079,1213.71 903.5,1212.5C 902.702,1212.04 902.369,1211.38 902.5,1210.5 Z"/></g>
<g><path style="opacity:0.173" fill="#696969" d="M 584.5,1212.5 C 583.797,1214.72 582.464,1216.55 580.5,1218C 579.563,1218.69 578.897,1218.53 578.5,1217.5C 580.475,1215.86 582.475,1214.2 584.5,1212.5 Z"/></g>
<g><path style="opacity:0.047" fill="#535353" d="M 913.5,1215.5 C 915.751,1216.69 918.085,1217.69 920.5,1218.5C 920.44,1219.04 920.107,1219.38 919.5,1219.5C 918.205,1218.9 916.872,1218.4 915.5,1218C 914.244,1217.58 913.577,1216.75 913.5,1215.5 Z"/></g>
<g><path style="opacity:0.682" fill="#606060" d="M 574.5,1221.5 C 573.833,1224.17 572.167,1225.83 569.5,1226.5C 570.833,1224.5 572.5,1222.83 574.5,1221.5 Z"/></g>
<g><path style="opacity:0.69" fill="#5e5e5e" d="M 566.5,1228.5 C 565.833,1231.17 564.167,1232.83 561.5,1233.5C 562.833,1231.5 564.5,1229.83 566.5,1228.5 Z"/></g>
<g><path style="opacity:0.898" fill="#454545" d="M 1063.5,1229.5 C 1064.12,1229.92 1064.46,1230.58 1064.5,1231.5C 1063.63,1235.9 1062.29,1239.9 1060.5,1243.5C 1061.25,1238.75 1062.25,1234.09 1063.5,1229.5 Z"/></g>
<g><path style="opacity:0.665" fill="#3e3e3e" d="M 896.5,1233.5 C 900.997,1234.24 904.664,1236.24 907.5,1239.5C 903.638,1237.74 899.972,1235.74 896.5,1233.5 Z"/></g>
<g><path style="opacity:0.133" fill="#727272" d="M 932.5,1247.5 C 933.779,1246.28 934.779,1246.62 935.5,1248.5C 934.391,1248.44 933.391,1248.11 932.5,1247.5 Z"/></g>
<g><path style="opacity:0.259" fill="#3c3c3c" d="M 939.5,1248.5 C 946.833,1248.5 954.167,1248.5 961.5,1248.5C 954.167,1249.83 946.833,1249.83 939.5,1248.5 Z"/></g>
<g><path style="opacity:0.145" fill="#747474" d="M 1056.5,1265.5 C 1057.85,1267.13 1057.52,1268.46 1055.5,1269.5C 1055.83,1268.17 1056.17,1266.83 1056.5,1265.5 Z"/></g>
<g><path style="opacity:0.957" fill="#c39321" d="M 310.5,1313.5 C 307.309,1324.21 300.975,1332.55 291.5,1338.5C 267.175,1346.9 250.342,1339.24 241,1315.5C 237.545,1297.83 243.379,1284.33 258.5,1275C 278.743,1266.75 294.91,1271.58 307,1289.5C 310.149,1297.17 311.316,1305.17 310.5,1313.5 Z"/></g>
<g><path style="opacity:0.008" fill="#9b9b9b" d="M 546.5,1273.5 C 546.167,1274.5 545.5,1275.17 544.5,1275.5C 544.461,1274.24 544.961,1273.24 546,1272.5C 546.399,1272.73 546.565,1273.06 546.5,1273.5 Z"/></g>
<g><path style="opacity:0.969" fill="#050505" d="M 929.5,1466.5 C 929.711,1468.42 930.377,1468.76 931.5,1467.5C 948.689,1468.11 963.356,1462.44 975.5,1450.5C 982.611,1471.73 997.278,1480.73 1019.5,1477.5C 1017.7,1484.22 1015.7,1490.89 1013.5,1497.5C 1012.62,1497.37 1011.96,1497.7 1011.5,1498.5C 1010.35,1499.69 1010.35,1500.69 1011.5,1501.5C 1011.5,1502.17 1011.17,1502.5 1010.5,1502.5C 1005.6,1511.85 1001.27,1521.52 997.5,1531.5C 995.674,1536.48 993.341,1541.15 990.5,1545.5C 986.879,1549.07 984.546,1553.4 983.5,1558.5C 980.917,1559.98 979.584,1562.32 979.5,1565.5C 979.672,1566.49 979.338,1567.16 978.5,1567.5C 976.259,1568.3 975.259,1569.97 975.5,1572.5C 973.952,1572.82 973.285,1573.82 973.5,1575.5C 973.672,1576.49 973.338,1577.16 972.5,1577.5C 970.952,1577.82 970.285,1578.82 970.5,1580.5C 957.856,1600.79 943.523,1619.79 927.5,1637.5C 923.434,1640.56 920.101,1644.23 917.5,1648.5C 917.158,1649.34 916.492,1649.67 915.5,1649.5C 912.2,1651.11 908.867,1652.77 905.5,1654.5C 904.702,1654.96 904.369,1655.62 904.5,1656.5C 890.214,1660.34 876.547,1658.84 863.5,1652C 861.382,1650.95 859.716,1649.45 858.5,1647.5C 856.833,1645.17 854.833,1643.17 852.5,1641.5C 844.429,1633.04 838.096,1623.37 833.5,1612.5C 832.633,1609.09 831.467,1605.76 830,1602.5C 829.502,1600.46 828.335,1599.12 826.5,1598.5C 826.5,1597.83 826.5,1597.17 826.5,1596.5C 826.267,1593.46 825.267,1590.79 823.5,1588.5C 820.202,1582.62 817.869,1576.28 816.5,1569.5C 817.833,1567.18 817.166,1565.51 814.5,1564.5C 813.962,1562.88 813.629,1561.22 813.5,1559.5C 814.097,1559.26 814.43,1558.76 814.5,1558C 814.302,1555.82 813.302,1554.32 811.5,1553.5C 811.5,1552.83 811.5,1552.17 811.5,1551.5C 812.757,1550.38 812.424,1549.71 810.5,1549.5C 810.5,1548.83 810.5,1548.17 810.5,1547.5C 811.757,1546.38 811.424,1545.71 809.5,1545.5C 809.5,1544.83 809.5,1544.17 809.5,1543.5C 810.757,1542.38 810.424,1541.71 808.5,1541.5C 808.371,1539.78 808.038,1538.12 807.5,1536.5C 808.124,1536.08 808.457,1535.42 808.5,1534.5C 808.253,1533.29 807.586,1532.62 806.5,1532.5C 806.5,1532.17 806.5,1531.83 806.5,1531.5C 807.885,1530.05 807.552,1529.05 805.5,1528.5C 805.5,1528.17 805.5,1527.83 805.5,1527.5C 806.885,1526.05 806.552,1525.05 804.5,1524.5C 804.5,1524.17 804.5,1523.83 804.5,1523.5C 805.885,1522.05 805.552,1521.05 803.5,1520.5C 803.5,1520.17 803.5,1519.83 803.5,1519.5C 804.885,1518.05 804.552,1517.05 802.5,1516.5C 802.5,1516.17 802.5,1515.83 802.5,1515.5C 803.833,1513.18 803.166,1511.51 800.5,1510.5C 800.5,1510.17 800.5,1509.83 800.5,1509.5C 801.097,1509.26 801.43,1508.76 801.5,1508C 800.528,1505.89 799.695,1503.72 799,1501.5C 798.502,1499.46 797.335,1498.12 795.5,1497.5C 794.227,1495.29 793.227,1492.95 792.5,1490.5C 792.206,1487.25 790.873,1484.58 788.5,1482.5C 787.761,1482.63 787.094,1482.46 786.5,1482C 787.598,1481.23 787.598,1480.4 786.5,1479.5C 786.573,1477.97 785.906,1476.97 784.5,1476.5C 776.955,1467.12 767.622,1464.95 756.5,1470C 752.458,1472.02 748.791,1474.52 745.5,1477.5C 744.094,1477.97 743.427,1478.97 743.5,1480.5C 741.031,1481.61 740.031,1483.61 740.5,1486.5C 739.657,1490.87 738.657,1495.21 737.5,1499.5C 735.618,1500.22 735.285,1501.22 736.5,1502.5C 730.311,1525.24 723.811,1547.9 717,1570.5C 709.848,1588.3 703.681,1604.13 698.5,1618C 697.309,1618.7 696.309,1619.53 695.5,1620.5C 694.094,1620.97 693.427,1621.97 693.5,1623.5C 693.715,1625.18 693.048,1626.18 691.5,1626.5C 689.896,1627.29 689.229,1628.62 689.5,1630.5C 689.167,1630.5 688.833,1630.5 688.5,1630.5C 683.892,1635.27 679.059,1639.94 674,1644.5C 673.536,1645.09 673.369,1645.76 673.5,1646.5C 671.381,1648.4 669.047,1650.07 666.5,1651.5C 666.44,1650.96 666.107,1650.62 665.5,1650.5C 662.501,1651.48 660.168,1653.14 658.5,1655.5C 655.933,1656.48 653.267,1657.14 650.5,1657.5C 646.833,1656.17 643.167,1656.17 639.5,1657.5C 625.597,1654.21 614.264,1646.88 605.5,1635.5C 602.5,1631.83 599.167,1628.5 595.5,1625.5C 591.936,1621.39 588.603,1617.05 585.5,1612.5C 585.573,1610.97 584.906,1609.97 583.5,1609.5C 575.688,1601.01 567.022,1593.68 557.5,1587.5C 570.894,1587.47 581.561,1582.14 589.5,1571.5C 590.234,1572.71 590.567,1574.04 590.5,1575.5C 589.957,1575.56 589.624,1575.89 589.5,1576.5C 590.205,1579.94 591.871,1582.61 594.5,1584.5C 594.285,1586.18 594.952,1587.18 596.5,1587.5C 596.088,1589.97 597.088,1591.31 599.5,1591.5C 599.369,1594.37 600.703,1596.03 603.5,1596.5C 604.167,1596.5 604.5,1596.83 604.5,1597.5C 604.088,1599.97 605.088,1601.31 607.5,1601.5C 608.167,1601.5 608.5,1601.83 608.5,1602.5C 608.273,1604.93 609.273,1606.6 611.5,1607.5C 612.167,1607.5 612.5,1607.83 612.5,1608.5C 613.08,1610.75 614.413,1612.42 616.5,1613.5C 620.998,1617.83 625.665,1622 630.5,1626C 643.557,1633.61 654.724,1631.44 664,1619.5C 670.854,1611.12 676.687,1602.12 681.5,1592.5C 683.834,1590.82 684.834,1588.49 684.5,1585.5C 691.627,1563.5 697.627,1541.5 702.5,1519.5C 703.497,1519.53 704.164,1519.03 704.5,1518C 705.608,1516.32 705.608,1514.82 704.5,1513.5C 704.629,1511.78 704.962,1510.12 705.5,1508.5C 707.652,1506.63 708.986,1504.13 709.5,1501C 709.43,1500.24 709.097,1499.74 708.5,1499.5C 708.5,1499.17 708.5,1498.83 708.5,1498.5C 709.497,1498.53 710.164,1498.03 710.5,1497C 713.079,1489.09 715.746,1481.26 718.5,1473.5C 718.328,1472.51 718.662,1471.84 719.5,1471.5C 721.539,1470.09 722.539,1468.09 722.5,1465.5C 724.741,1464.7 725.741,1463.03 725.5,1460.5C 729.527,1457.14 733.194,1453.47 736.5,1449.5C 736.5,1448.83 736.833,1448.5 737.5,1448.5C 737.56,1449.04 737.893,1449.38 738.5,1449.5C 742.149,1448.2 745.149,1446.2 747.5,1443.5C 755.282,1440.99 763.282,1439.99 771.5,1440.5C 771.711,1442.42 772.377,1442.76 773.5,1441.5C 781.494,1442.5 788.494,1445.66 794.5,1451C 806.557,1460.87 815.224,1473.04 820.5,1487.5C 820.927,1490.38 821.594,1493.21 822.5,1496C 822.836,1497.03 823.503,1497.53 824.5,1497.5C 824.5,1497.83 824.5,1498.17 824.5,1498.5C 823.285,1499.78 823.618,1500.78 825.5,1501.5C 825.5,1501.83 825.5,1502.17 825.5,1502.5C 824.903,1502.74 824.57,1503.24 824.5,1504C 824.698,1506.18 825.698,1507.68 827.5,1508.5C 828.323,1511.46 828.99,1514.46 829.5,1517.5C 828.243,1518.62 828.576,1519.29 830.5,1519.5C 831.323,1522.46 831.99,1525.46 832.5,1528.5C 831.243,1529.62 831.576,1530.29 833.5,1530.5C 833.5,1530.83 833.5,1531.17 833.5,1531.5C 832.903,1531.74 832.57,1532.24 832.5,1533C 833.536,1535.77 834.369,1538.61 835,1541.5C 835.236,1543.12 836.069,1544.12 837.5,1544.5C 837.5,1545.17 837.5,1545.83 837.5,1546.5C 836.485,1547.46 836.485,1548.63 837.5,1550C 837.836,1551.03 838.503,1551.53 839.5,1551.5C 839.5,1552.17 839.5,1552.83 839.5,1553.5C 838.485,1554.46 838.485,1555.63 839.5,1557C 839.836,1558.03 840.503,1558.53 841.5,1558.5C 841.5,1558.83 841.5,1559.17 841.5,1559.5C 840.115,1560.95 840.448,1561.95 842.5,1562.5C 842.5,1562.83 842.5,1563.17 842.5,1563.5C 841.903,1563.74 841.57,1564.24 841.5,1565C 841.698,1567.18 842.698,1568.68 844.5,1569.5C 844.5,1569.83 844.5,1570.17 844.5,1570.5C 843.903,1570.74 843.57,1571.24 843.5,1572C 843.698,1574.18 844.698,1575.68 846.5,1576.5C 846.5,1576.83 846.5,1577.17 846.5,1577.5C 845.903,1577.74 845.57,1578.24 845.5,1579C 845.698,1581.18 846.698,1582.68 848.5,1583.5C 848.5,1583.83 848.5,1584.17 848.5,1584.5C 847.903,1584.74 847.57,1585.24 847.5,1586C 847.698,1588.18 848.698,1589.68 850.5,1590.5C 850.5,1590.83 850.5,1591.17 850.5,1591.5C 849.903,1591.74 849.57,1592.24 849.5,1593C 849.698,1595.18 850.698,1596.68 852.5,1597.5C 852.5,1597.83 852.5,1598.17 852.5,1598.5C 851.957,1598.56 851.624,1598.89 851.5,1599.5C 851.879,1601.21 852.879,1602.21 854.5,1602.5C 854.5,1602.83 854.5,1603.17 854.5,1603.5C 853.529,1604.96 853.862,1606.3 855.5,1607.5C 867.967,1629.86 885.633,1634.03 908.5,1620C 914.928,1615.58 920.761,1610.41 926,1604.5C 930.856,1597.43 935.689,1590.43 940.5,1583.5C 942.25,1582.34 943.25,1580.67 943.5,1578.5C 945.25,1577.34 946.25,1575.67 946.5,1573.5C 948.25,1572.34 949.25,1570.67 949.5,1568.5C 953.328,1560.17 957.662,1552.17 962.5,1544.5C 967.458,1538.25 971.124,1531.25 973.5,1523.5C 978.37,1517.76 981.703,1511.09 983.5,1503.5C 984.767,1501.22 985.767,1498.72 986.5,1496C 986.43,1495.24 986.097,1494.74 985.5,1494.5C 986.08,1490.19 986.414,1485.86 986.5,1481.5C 977.286,1484.63 967.953,1487.46 958.5,1490C 935.782,1495.35 914.782,1491.35 895.5,1478C 882.088,1465.93 870.921,1452.09 862,1436.5C 847.373,1410.25 833.54,1383.58 820.5,1356.5C 820.715,1354.82 820.048,1353.82 818.5,1353.5C 818.741,1350.97 817.741,1349.3 815.5,1348.5C 805.119,1331.28 791.452,1317.12 774.5,1306C 751.622,1302.08 732.789,1309.24 718,1327.5C 711.635,1335.36 705.135,1343.02 698.5,1350.5C 696.413,1351.58 695.08,1353.25 694.5,1355.5C 692.738,1356.26 691.738,1357.6 691.5,1359.5C 690.833,1360.83 689.833,1361.83 688.5,1362.5C 686.738,1363.26 685.738,1364.6 685.5,1366.5C 673.882,1381.12 661.549,1395.12 648.5,1408.5C 643.167,1413.17 638.167,1418.17 633.5,1423.5C 597.243,1458.26 553.909,1475.59 503.5,1475.5C 504.556,1471.83 505.722,1468.17 507,1464.5C 507.499,1459.51 507.666,1454.51 507.5,1449.5C 539.342,1447.83 569.009,1439 596.5,1423C 604.041,1416.62 611.708,1410.45 619.5,1404.5C 624.833,1401.17 629.167,1396.83 632.5,1391.5C 633.167,1390.17 634.167,1389.17 635.5,1388.5C 637.914,1387.09 639.581,1385.09 640.5,1382.5C 640.427,1380.97 641.094,1379.97 642.5,1379.5C 645.946,1378.39 647.946,1376.05 648.5,1372.5C 649.167,1371.17 650.167,1370.17 651.5,1369.5C 654.946,1368.39 656.946,1366.05 657.5,1362.5C 657.833,1361.5 658.5,1360.83 659.5,1360.5C 662.167,1359.83 663.833,1358.17 664.5,1355.5C 666.167,1353.17 668.167,1351.17 670.5,1349.5C 672.587,1348.42 673.92,1346.75 674.5,1344.5C 678.127,1339.21 682.46,1334.54 687.5,1330.5C 689.587,1329.42 690.92,1327.75 691.5,1325.5C 692.5,1323.83 693.833,1322.5 695.5,1321.5C 696.906,1321.03 697.573,1320.03 697.5,1318.5C 699.5,1315.83 701.833,1313.5 704.5,1311.5C 706.587,1310.42 707.92,1308.75 708.5,1306.5C 709.833,1304.5 711.5,1302.83 713.5,1301.5C 718.23,1297.77 722.23,1293.44 725.5,1288.5C 725.5,1287.83 725.833,1287.5 726.5,1287.5C 728.332,1288.72 729.332,1288.05 729.5,1285.5C 729.833,1285.5 730.167,1285.5 730.5,1285.5C 732.819,1285.01 734.819,1284.01 736.5,1282.5C 759.917,1270.12 781.917,1272.28 802.5,1289C 817.861,1303.25 830.694,1319.42 841,1337.5C 852.566,1357.63 862.233,1378.63 870,1400.5C 879.082,1420.23 891.248,1437.73 906.5,1453C 913.597,1458.55 921.263,1463.05 929.5,1466.5 Z"/></g>
<g><path style="opacity:0.004" fill="#a2a2a2" d="M 541.5,1277.5 C 541.167,1278.5 540.5,1279.17 539.5,1279.5C 539.461,1278.24 539.961,1277.24 541,1276.5C 541.399,1276.73 541.565,1277.06 541.5,1277.5 Z"/></g>
<g><path style="opacity:0.008" fill="#848484" d="M 537.5,1280.5 C 537.027,1281.91 536.027,1282.57 534.5,1282.5C 535.242,1280.65 536.242,1279.98 537.5,1280.5 Z"/></g>
<g><path style="opacity:0.404" fill="#787878" d="M 736.5,1282.5 C 734.819,1284.01 732.819,1285.01 730.5,1285.5C 731.911,1283.46 733.911,1282.46 736.5,1282.5 Z"/></g>
<g><path style="opacity:1" fill="#e4b441" d="M 270.5,1285.5 C 288.853,1284.69 297.687,1293.35 297,1311.5C 292.746,1324.22 283.913,1329.72 270.5,1328C 258.534,1323.24 253.367,1314.41 255,1301.5C 257.685,1293.65 262.852,1288.32 270.5,1285.5 Z"/></g>
<g><path style="opacity:0.549" fill="#6e6e6e" d="M 729.5,1285.5 C 729.332,1288.05 728.332,1288.72 726.5,1287.5C 727.5,1286.83 728.5,1286.17 729.5,1285.5 Z"/></g>
<g><path style="opacity:0.102" fill="#858585" d="M 1052.5,1286.5 C 1053.72,1287.78 1053.38,1288.78 1051.5,1289.5C 1051.56,1288.39 1051.89,1287.39 1052.5,1286.5 Z"/></g>
<g><path style="opacity:0.106" fill="#818181" d="M 1051.5,1291.5 C 1052.72,1292.78 1052.38,1293.78 1050.5,1294.5C 1050.56,1293.39 1050.89,1292.39 1051.5,1291.5 Z"/></g>
<g><path style="opacity:0.69" fill="#505050" d="M 476.5,1292.5 C 476.586,1293.5 476.252,1294.33 475.5,1295C 473.919,1295.71 472.419,1296.54 471,1297.5C 470.601,1297.27 470.435,1296.94 470.5,1296.5C 472.463,1295.18 474.463,1293.85 476.5,1292.5 Z"/></g>
<g><path style="opacity:0.604" fill="#666666" d="M 725.5,1288.5 C 722.23,1293.44 718.23,1297.77 713.5,1301.5C 716.77,1296.56 720.77,1292.23 725.5,1288.5 Z"/></g>
<g><path style="opacity:0.82" fill="#4f4f4f" d="M 1049.5,1300.5 C 1050.72,1303.53 1050.05,1306.2 1047.5,1308.5C 1048.04,1305.78 1048.71,1303.11 1049.5,1300.5 Z"/></g>
<g><path style="opacity:0.51" fill="#6e6e6e" d="M 708.5,1306.5 C 707.92,1308.75 706.587,1310.42 704.5,1311.5C 705.08,1309.25 706.413,1307.58 708.5,1306.5 Z"/></g>
<g><path style="opacity:0.855" fill="#3d3d3d" d="M 430.5,1314.5 C 430.423,1315.75 429.756,1316.58 428.5,1317C 426.385,1317.56 424.385,1318.39 422.5,1319.5C 421.893,1319.38 421.56,1319.04 421.5,1318.5C 424.318,1316.93 427.318,1315.59 430.5,1314.5 Z"/></g>
<g><path style="opacity:0.271" fill="#575757" d="M 1046.5,1314.5 C 1047.1,1314.74 1047.43,1315.24 1047.5,1316C 1046.76,1318.48 1046.09,1320.98 1045.5,1323.5C 1045.25,1324.71 1044.59,1325.38 1043.5,1325.5C 1044.35,1321.77 1045.35,1318.11 1046.5,1314.5 Z"/></g>
<g><path style="opacity:0.549" fill="#707070" d="M 697.5,1318.5 C 697.573,1320.03 696.906,1321.03 695.5,1321.5C 695.427,1319.97 696.094,1318.97 697.5,1318.5 Z"/></g>
<g><path style="opacity:0.741" fill="#5b5b5b" d="M 355.5,1327.5 C 357.292,1327.37 358.958,1327.7 360.5,1328.5C 358.545,1329.93 356.879,1329.6 355.5,1327.5 Z"/></g>
<g><path style="opacity:0.588" fill="#505050" d="M 691.5,1325.5 C 690.92,1327.75 689.587,1329.42 687.5,1330.5C 688.08,1328.25 689.413,1326.58 691.5,1325.5 Z"/></g>
<g><path style="opacity:0.518" fill="#4c4c4c" d="M 1043.5,1327.5 C 1044.65,1329.91 1043.98,1331.91 1041.5,1333.5C 1041.88,1331.3 1042.54,1329.3 1043.5,1327.5 Z"/></g>
<g><path style="opacity:0.396" fill="#6f6f6f" d="M 1041.5,1334.5 C 1042.72,1335.78 1042.38,1336.78 1040.5,1337.5C 1040.56,1336.39 1040.89,1335.39 1041.5,1334.5 Z"/></g>
<g><path style="opacity:0.008" fill="#8b8b8b" d="M 420.5,1342.5 C 419.609,1343.11 418.609,1343.44 417.5,1343.5C 418.053,1341.45 419.053,1341.11 420.5,1342.5 Z"/></g>
<g><path style="opacity:0.482" fill="#707070" d="M 1040.5,1338.5 C 1041.61,1339.82 1041.61,1341.32 1040.5,1343C 1040.16,1344.03 1039.5,1344.53 1038.5,1344.5C 1039.17,1342.5 1039.83,1340.5 1040.5,1338.5 Z"/></g>
<g><path style="opacity:0.043" fill="#777777" d="M 410.5,1344.5 C 409.609,1345.11 408.609,1345.44 407.5,1345.5C 408.053,1343.45 409.053,1343.11 410.5,1344.5 Z"/></g>
<g><path style="opacity:0.035" fill="#707070" d="M 404.5,1345.5 C 403.292,1346.23 401.959,1346.57 400.5,1346.5C 400.62,1345.41 401.287,1344.75 402.5,1344.5C 403.416,1344.54 404.083,1344.88 404.5,1345.5 Z"/></g>
<g><path style="opacity:0.004" fill="#a9a9a9" d="M 397.5,1346.5 C 396.609,1347.11 395.609,1347.44 394.5,1347.5C 395.221,1345.62 396.221,1345.28 397.5,1346.5 Z"/></g>
<g><path style="opacity:0.027" fill="#8a8a8a" d="M 352.5,1348.5 C 350.901,1348.77 349.568,1348.43 348.5,1347.5C 348.917,1346.88 349.584,1346.54 350.5,1346.5C 351.713,1346.75 352.38,1347.41 352.5,1348.5 Z"/></g>
<g><path style="opacity:0.008" fill="#969696" d="M 387.5,1347.5 C 385.565,1348.15 383.565,1348.48 381.5,1348.5C 382.134,1347.05 383.301,1346.39 385,1346.5C 386.07,1346.53 386.903,1346.86 387.5,1347.5 Z"/></g>
<g><path style="opacity:0.58" fill="#545454" d="M 674.5,1344.5 C 673.92,1346.75 672.587,1348.42 670.5,1349.5C 671.08,1347.25 672.413,1345.58 674.5,1344.5 Z"/></g>
<g><path style="opacity:0.506" fill="#7d7d7d" d="M 1038.5,1345.5 C 1039.89,1346.95 1039.55,1347.95 1037.5,1348.5C 1038.11,1347.61 1038.44,1346.61 1038.5,1345.5 Z"/></g>
<g><path style="opacity:0.502" fill="#757575" d="M 815.5,1348.5 C 817.741,1349.3 818.741,1350.97 818.5,1353.5C 817.263,1352.04 816.263,1350.37 815.5,1348.5 Z"/></g>
<g><path style="opacity:0.078" fill="#4d4d4d" d="M 698.5,1350.5 C 697.92,1352.75 696.587,1354.42 694.5,1355.5C 695.08,1353.25 696.413,1351.58 698.5,1350.5 Z"/></g>
<g><path style="opacity:0.008" fill="#757575" d="M 818.5,1353.5 C 820.048,1353.82 820.715,1354.82 820.5,1356.5C 819.599,1355.71 818.932,1354.71 818.5,1353.5 Z"/></g>
<g><path style="opacity:0.02" fill="#b0b0b0" d="M 694.5,1355.5 C 694.262,1357.4 693.262,1358.74 691.5,1359.5C 691.738,1357.6 692.738,1356.26 694.5,1355.5 Z"/></g>
<g><path style="opacity:0.537" fill="#666666" d="M 1036.5,1353.5 C 1037.61,1354.82 1037.61,1356.32 1036.5,1358C 1036.16,1359.03 1035.5,1359.53 1034.5,1359.5C 1035.17,1357.5 1035.83,1355.5 1036.5,1353.5 Z"/></g>
<g><path style="opacity:0.404" fill="#858585" d="M 664.5,1355.5 C 663.833,1358.17 662.167,1359.83 659.5,1360.5C 660.833,1358.5 662.5,1356.83 664.5,1355.5 Z"/></g>
<g><path style="opacity:0.035" fill="#898989" d="M 688.5,1362.5 C 688.262,1364.4 687.262,1365.74 685.5,1366.5C 685.738,1364.6 686.738,1363.26 688.5,1362.5 Z"/></g>
<g><path style="opacity:0.467" fill="#747474" d="M 1033.5,1364.5 C 1034.76,1365.62 1034.42,1366.29 1032.5,1366.5C 1032.33,1365.51 1032.66,1364.84 1033.5,1364.5 Z"/></g>
<g><path style="opacity:0.478" fill="#7c7c7c" d="M 657.5,1362.5 C 656.946,1366.05 654.946,1368.39 651.5,1369.5C 653.273,1366.94 655.273,1364.61 657.5,1362.5 Z"/></g>
<g><path style="opacity:0.671" fill="#6b6b6b" d="M 1032.5,1367.5 C 1033.61,1368.82 1033.61,1370.32 1032.5,1372C 1032.16,1373.03 1031.5,1373.53 1030.5,1373.5C 1030.97,1371.42 1031.64,1369.42 1032.5,1367.5 Z"/></g>
<g><path style="opacity:0.196" fill="#8e8e8e" d="M 1030.5,1374.5 C 1031.76,1375.62 1031.42,1376.29 1029.5,1376.5C 1029.33,1375.51 1029.66,1374.84 1030.5,1374.5 Z"/></g>
<g><path style="opacity:0.525" fill="#7b7b7b" d="M 648.5,1372.5 C 647.946,1376.05 645.946,1378.39 642.5,1379.5C 644.529,1377.14 646.529,1374.81 648.5,1372.5 Z"/></g>
<g><path style="opacity:0.502" fill="#767676" d="M 640.5,1382.5 C 639.581,1385.09 637.914,1387.09 635.5,1388.5C 636.419,1385.91 638.086,1383.91 640.5,1382.5 Z"/></g>
<g><path style="opacity:0.4" fill="#777777" d="M 1029.5,1377.5 C 1030.1,1377.74 1030.43,1378.24 1030.5,1379C 1028.83,1384 1027.17,1389 1025.5,1394C 1025.16,1395.03 1024.5,1395.53 1023.5,1395.5C 1025.5,1389.5 1027.5,1383.5 1029.5,1377.5 Z"/></g>
<g><path style="opacity:0.651" fill="#494949" d="M 632.5,1391.5 C 629.167,1396.83 624.833,1401.17 619.5,1404.5C 623.5,1399.83 627.833,1395.5 632.5,1391.5 Z"/></g>
<g><path style="opacity:0.282" fill="#686868" d="M 1023.5,1397.5 C 1024.04,1397.56 1024.38,1397.89 1024.5,1398.5C 1023.64,1400.91 1022.31,1402.91 1020.5,1404.5C 1021.26,1401.98 1022.26,1399.65 1023.5,1397.5 Z"/></g>
<g><path style="opacity:0.97" fill="#c29321" d="M 1016.5,1407.5 C 1026.48,1411.14 1034.81,1417.14 1041.5,1425.5C 1050.69,1447.08 1045.36,1463.91 1025.5,1476C 1023.56,1476.81 1021.56,1477.31 1019.5,1477.5C 997.278,1480.73 982.611,1471.73 975.5,1450.5C 974.478,1422.19 988.145,1407.85 1016.5,1407.5 Z"/></g>
<g><path style="opacity:0.225" fill="#6d6d6d" d="M 648.5,1408.5 C 644.5,1414.5 639.5,1419.5 633.5,1423.5C 638.167,1418.17 643.167,1413.17 648.5,1408.5 Z"/></g>
<g><path style="opacity:0.953" fill="#c39321" d="M 507.5,1449.5 C 507.666,1454.51 507.499,1459.51 507,1464.5C 505.722,1468.17 504.556,1471.83 503.5,1475.5C 492.026,1491.82 476.692,1496.66 457.5,1490C 438.052,1478.32 432.552,1461.82 441,1440.5C 450.333,1425.38 463.833,1419.55 481.5,1423C 495.058,1427.06 503.725,1435.89 507.5,1449.5 Z"/></g>
<g><path style="opacity:1" fill="#e4b441" d="M 1005.5,1422.5 C 1023.85,1421.69 1032.69,1430.35 1032,1448.5C 1027.75,1461.22 1018.91,1466.72 1005.5,1465C 993.534,1460.24 988.367,1451.41 990,1438.5C 992.685,1430.65 997.852,1425.32 1005.5,1422.5 Z"/></g>
<g><path style="opacity:1" fill="#e4b441" d="M 466.5,1435.5 C 484.853,1434.69 493.687,1443.35 493,1461.5C 488.746,1474.22 479.913,1479.72 466.5,1478C 454.534,1473.24 449.367,1464.41 451,1451.5C 453.685,1443.65 458.852,1438.32 466.5,1435.5 Z"/></g>
<g><path style="opacity:0.235" fill="#9d9d9d" d="M 771.5,1440.5 C 772.492,1440.33 773.158,1440.66 773.5,1441.5C 772.377,1442.76 771.711,1442.42 771.5,1440.5 Z"/></g>
<g><path style="opacity:0.38" fill="#555555" d="M 747.5,1443.5 C 745.149,1446.2 742.149,1448.2 738.5,1449.5C 737.893,1449.38 737.56,1449.04 737.5,1448.5C 740.833,1446.83 744.167,1445.17 747.5,1443.5 Z"/></g>
<g><path style="opacity:0.19" fill="#4a4a4a" d="M 736.5,1449.5 C 733.194,1453.47 729.527,1457.14 725.5,1460.5C 728.167,1455.83 731.833,1452.17 736.5,1449.5 Z"/></g>
<g><path style="opacity:0.098" fill="#555555" d="M 725.5,1460.5 C 725.741,1463.03 724.741,1464.7 722.5,1465.5C 723.11,1463.57 724.11,1461.9 725.5,1460.5 Z"/></g>
<g><path style="opacity:0.502" fill="#6d6d6d" d="M 929.5,1466.5 C 930.492,1466.33 931.158,1466.66 931.5,1467.5C 930.377,1468.76 929.711,1468.42 929.5,1466.5 Z"/></g>
<g><path style="opacity:0.184" fill="#8e8e8e" d="M 722.5,1465.5 C 722.539,1468.09 721.539,1470.09 719.5,1471.5C 719.992,1469.18 720.992,1467.18 722.5,1465.5 Z"/></g>
<g><path style="opacity:0.012" fill="#7e7e7e" d="M 745.5,1477.5 C 745.573,1479.03 744.906,1480.03 743.5,1480.5C 743.427,1478.97 744.094,1477.97 745.5,1477.5 Z"/></g>
<g><path style="opacity:0.149" fill="#717171" d="M 784.5,1476.5 C 785.906,1476.97 786.573,1477.97 786.5,1479.5C 785.094,1479.03 784.427,1478.03 784.5,1476.5 Z"/></g>
<g><path style="opacity:0.431" fill="#606060" d="M 743.5,1480.5 C 742.492,1482.54 741.492,1484.54 740.5,1486.5C 740.031,1483.61 741.031,1481.61 743.5,1480.5 Z"/></g>
<g><path style="opacity:0.249" fill="#777777" d="M 718.5,1473.5 C 715.746,1481.26 713.079,1489.09 710.5,1497C 710.164,1498.03 709.497,1498.53 708.5,1498.5C 711.067,1489.79 714.4,1481.45 718.5,1473.5 Z"/></g>
<g><path style="opacity:0.137" fill="#7c7c7c" d="M 788.5,1482.5 C 790.873,1484.58 792.206,1487.25 792.5,1490.5C 790.127,1488.42 788.794,1485.75 788.5,1482.5 Z"/></g>
<g><path style="opacity:0.341" fill="#545454" d="M 820.5,1487.5 C 822.404,1490.53 823.738,1493.87 824.5,1497.5C 823.503,1497.53 822.836,1497.03 822.5,1496C 821.594,1493.21 820.927,1490.38 820.5,1487.5 Z"/></g>
<g><path style="opacity:0.467" fill="#6f6f6f" d="M 824.5,1498.5 C 825.11,1499.39 825.443,1500.39 825.5,1501.5C 823.618,1500.78 823.285,1499.78 824.5,1498.5 Z"/></g>
<g><path style="opacity:0.176" fill="#737373" d="M 795.5,1497.5 C 797.335,1498.12 798.502,1499.46 799,1501.5C 799.695,1503.72 800.528,1505.89 801.5,1508C 801.43,1508.76 801.097,1509.26 800.5,1509.5C 798.833,1505.5 797.167,1501.5 795.5,1497.5 Z"/></g>
<g><path style="opacity:0.059" fill="#828282" d="M 1013.5,1497.5 C 1012.83,1498.83 1012.17,1500.17 1011.5,1501.5C 1010.35,1500.69 1010.35,1499.69 1011.5,1498.5C 1011.96,1497.7 1012.62,1497.37 1013.5,1497.5 Z"/></g>
<g><path style="opacity:0.478" fill="#6f6f6f" d="M 737.5,1499.5 C 737.443,1500.61 737.11,1501.61 736.5,1502.5C 735.285,1501.22 735.618,1500.22 737.5,1499.5 Z"/></g>
<g><path style="opacity:0.929" fill="#000000" d="M 2440.5,1501.5 C 2443.27,1501.22 2445.77,1501.89 2448,1503.5C 2448.67,1535.83 2448.67,1568.17 2448,1600.5C 2445.5,1602.48 2442.67,1602.98 2439.5,1602C 2438.3,1601.1 2437.47,1599.93 2437,1598.5C 2436.33,1567.83 2436.33,1537.17 2437,1506.5C 2437.26,1504.09 2438.42,1502.43 2440.5,1501.5 Z"/></g>
<g><path style="opacity:0.922" fill="#000000" d="M 2929.5,1501.5 C 2933.01,1500.88 2935.85,1501.88 2938,1504.5C 2938.33,1514.17 2938.67,1523.83 2939,1533.5C 2948.28,1525.14 2959.11,1522.3 2971.5,1525C 2988.23,1529.06 2998.06,1539.56 3001,1556.5C 3003.05,1584.78 2990.05,1600.78 2962,1604.5C 2952.76,1604.04 2945.09,1600.38 2939,1593.5C 2938.77,1602.94 2934.77,1605.27 2927,1600.5C 2926.33,1568.5 2926.33,1536.5 2927,1504.5C 2927.7,1503.31 2928.53,1502.31 2929.5,1501.5 Z M 2957.5,1535.5 C 2979.3,1535.13 2989.8,1545.8 2989,1567.5C 2985.75,1585.09 2975.25,1593.26 2957.5,1592C 2947.75,1589.92 2941.59,1584.08 2939,1574.5C 2937.86,1565.33 2938.53,1556.33 2941,1547.5C 2945.23,1541.64 2950.73,1537.64 2957.5,1535.5 Z"/></g>
<g><path style="opacity:0.569" fill="#515151" d="M 985.5,1494.5 C 986.097,1494.74 986.43,1495.24 986.5,1496C 985.767,1498.72 984.767,1501.22 983.5,1503.5C 983.756,1500.4 984.422,1497.4 985.5,1494.5 Z"/></g>
<g><path style="opacity:0.918" fill="#000000" d="M 2179.5,1502.5 C 2182.97,1501.87 2185.8,1502.87 2188,1505.5C 2188.5,1511.82 2188.67,1518.16 2188.5,1524.5C 2194.18,1524.33 2199.84,1524.5 2205.5,1525C 2209.21,1526.63 2210.38,1529.46 2209,1533.5C 2208.25,1534.13 2207.42,1534.63 2206.5,1535C 2200.51,1535.5 2194.51,1535.67 2188.5,1535.5C 2188.04,1552.57 2188.54,1569.57 2190,1586.5C 2192.74,1591.42 2196.91,1593.25 2202.5,1592C 2206.67,1589.08 2210.51,1589.25 2214,1592.5C 2215.12,1595.96 2214.29,1598.79 2211.5,1601C 2202.7,1604.47 2194.03,1604.14 2185.5,1600C 2180.42,1595.68 2177.59,1590.18 2177,1583.5C 2176.5,1567.5 2176.33,1551.5 2176.5,1535.5C 2172.49,1535.67 2168.49,1535.5 2164.5,1535C 2161.62,1533.33 2160.79,1530.83 2162,1527.5C 2162.9,1526.3 2164.07,1525.47 2165.5,1525C 2169.15,1524.5 2172.82,1524.33 2176.5,1524.5C 2176.33,1518.16 2176.5,1511.82 2177,1505.5C 2177.7,1504.31 2178.53,1503.31 2179.5,1502.5 Z"/></g>
<g><path style="opacity:0.263" fill="#6a6a6a" d="M 708.5,1499.5 C 709.097,1499.74 709.43,1500.24 709.5,1501C 708.986,1504.13 707.652,1506.63 705.5,1508.5C 706.346,1505.45 707.346,1502.45 708.5,1499.5 Z"/></g>
<g><path style="opacity:0.94" fill="#000000" d="M 2634.5,1504.5 C 2638.01,1503.88 2640.85,1504.88 2643,1507.5C 2643.5,1535.5 2643.67,1563.5 2643.5,1591.5C 2663.17,1591.33 2682.84,1591.5 2702.5,1592C 2706.74,1595.79 2706.41,1599.13 2701.5,1602C 2679.17,1602.67 2656.83,1602.67 2634.5,1602C 2633.69,1601.69 2633.03,1601.19 2632.5,1600.5C 2631.34,1569.54 2631.17,1538.54 2632,1507.5C 2632.7,1506.31 2633.53,1505.31 2634.5,1504.5 Z"/></g>
<g><path style="opacity:0.915" fill="#000000" d="M 1704.5,1505.5 C 1717.17,1505.33 1729.84,1505.5 1742.5,1506C 1764.84,1508.33 1778.34,1520.5 1783,1542.5C 1785.65,1557 1783.31,1570.66 1776,1583.5C 1768.75,1594.38 1758.59,1600.54 1745.5,1602C 1731.5,1602.67 1717.5,1602.67 1703.5,1602C 1701.71,1601.22 1700.21,1600.05 1699,1598.5C 1698.33,1568.83 1698.33,1539.17 1699,1509.5C 1700.5,1507.53 1702.33,1506.2 1704.5,1505.5 Z M 1710.5,1516.5 C 1721.84,1516.33 1733.17,1516.5 1744.5,1517C 1757.46,1519.96 1765.96,1527.79 1770,1540.5C 1773.55,1553.01 1772.21,1565.01 1766,1576.5C 1760.78,1584.19 1753.62,1589.03 1744.5,1591C 1733.17,1591.5 1721.84,1591.67 1710.5,1591.5C 1710.5,1566.5 1710.5,1541.5 1710.5,1516.5 Z"/></g>
<g><path style="opacity:0.38" fill="#606060" d="M 825.5,1502.5 C 826.167,1504.5 826.833,1506.5 827.5,1508.5C 825.698,1507.68 824.698,1506.18 824.5,1504C 824.57,1503.24 824.903,1502.74 825.5,1502.5 Z"/></g>
<g><path style="opacity:0.733" fill="#505050" d="M 800.5,1510.5 C 803.166,1511.51 803.833,1513.18 802.5,1515.5C 801.833,1513.83 801.167,1512.17 800.5,1510.5 Z"/></g>
<g><path style="opacity:0.624" fill="#565656" d="M 983.5,1503.5 C 981.703,1511.09 978.37,1517.76 973.5,1523.5C 976.868,1516.76 980.202,1510.1 983.5,1503.5 Z"/></g>
<g><path style="opacity:0.031" fill="#737373" d="M 1010.5,1502.5 C 1007.12,1512.65 1002.79,1522.32 997.5,1531.5C 1001.27,1521.52 1005.6,1511.85 1010.5,1502.5 Z"/></g>
<g><path style="opacity:0.957" fill="#c39321" d="M 589.5,1571.5 C 581.561,1582.14 570.894,1587.47 557.5,1587.5C 540.708,1586.35 529.875,1577.68 525,1561.5C 521.545,1543.83 527.379,1530.33 542.5,1521C 559.334,1513.99 574.167,1516.82 587,1529.5C 594.099,1539.03 596.432,1549.69 594,1561.5C 593.164,1565.19 591.664,1568.52 589.5,1571.5 Z"/></g>
<g><path style="opacity:0.231" fill="#656565" d="M 704.5,1513.5 C 705.608,1514.82 705.608,1516.32 704.5,1518C 704.164,1519.03 703.497,1519.53 702.5,1519.5C 703.167,1517.5 703.833,1515.5 704.5,1513.5 Z"/></g>
<g><path style="opacity:0.212" fill="#707070" d="M 802.5,1516.5 C 804.552,1517.05 804.885,1518.05 803.5,1519.5C 803.443,1518.39 803.11,1517.39 802.5,1516.5 Z"/></g>
<g><path style="opacity:0.075" fill="#767676" d="M 829.5,1517.5 C 830.338,1517.84 830.672,1518.51 830.5,1519.5C 828.576,1519.29 828.243,1518.62 829.5,1517.5 Z"/></g>
<g><path style="opacity:0.216" fill="#7b7b7b" d="M 803.5,1520.5 C 805.552,1521.05 805.885,1522.05 804.5,1523.5C 804.443,1522.39 804.11,1521.39 803.5,1520.5 Z"/></g>
<g><path style="opacity:0.925" fill="#000000" d="M 1892.5,1523.5 C 1921.7,1523.86 1936.2,1538.53 1936,1567.5C 1935.17,1568.33 1934.33,1569.17 1933.5,1570C 1912.5,1570.5 1891.5,1570.67 1870.5,1570.5C 1874.57,1586.37 1884.9,1593.54 1901.5,1592C 1907.57,1591.3 1912.91,1588.96 1917.5,1585C 1924.49,1582.99 1927.32,1585.49 1926,1592.5C 1916.27,1601.48 1904.77,1604.98 1891.5,1603C 1869.7,1599.02 1858.37,1585.86 1857.5,1563.5C 1858.62,1540.73 1870.28,1527.39 1892.5,1523.5 Z M 1890.5,1535.5 C 1909.85,1533.21 1921.18,1541.54 1924.5,1560.5C 1906.17,1560.5 1887.83,1560.5 1869.5,1560.5C 1871.13,1547.55 1878.13,1539.21 1890.5,1535.5 Z"/></g>
<g><path style="opacity:0.913" fill="#000000" d="M 2047.5,1523.5 C 2065.41,1521.17 2078.58,1527.84 2087,1543.5C 2087.82,1545.79 2088.49,1548.12 2089,1550.5C 2089.67,1567.17 2089.67,1583.83 2089,1600.5C 2084.84,1604.7 2081.18,1604.37 2078,1599.5C 2077.96,1582.77 2077.29,1566.1 2076,1549.5C 2067.7,1534.46 2055.87,1530.96 2040.5,1539C 2034.28,1542.93 2030.12,1548.43 2028,1555.5C 2027.67,1570.17 2027.33,1584.83 2027,1599.5C 2024.04,1603.7 2020.37,1604.37 2016,1601.5C 2014.36,1577.23 2014.03,1552.9 2015,1528.5C 2017.53,1524.21 2021.03,1523.38 2025.5,1526C 2026.29,1529.41 2026.79,1532.91 2027,1536.5C 2032.33,1529.75 2039.16,1525.42 2047.5,1523.5 Z"/></g>
<g><path style="opacity:0.506" fill="#797979" d="M 804.5,1524.5 C 806.552,1525.05 806.885,1526.05 805.5,1527.5C 805.443,1526.39 805.11,1525.39 804.5,1524.5 Z"/></g>
<g><path style="opacity:0.927" fill="#000000" d="M 2311.5,1524.5 C 2320.14,1523.72 2328.48,1524.89 2336.5,1528C 2338.96,1529.46 2341.13,1531.29 2343,1533.5C 2343.93,1524.98 2347.93,1522.98 2355,1527.5C 2355.67,1551.83 2355.67,1576.17 2355,1600.5C 2347.28,1605.12 2343.28,1602.79 2343,1593.5C 2328.5,1606.65 2313,1607.82 2296.5,1597C 2281.19,1583.02 2277.03,1566.19 2284,1546.5C 2289.72,1534.74 2298.89,1527.41 2311.5,1524.5 Z M 2315.5,1535.5 C 2329.03,1534.5 2338.2,1540.16 2343,1552.5C 2344.14,1562 2343.48,1571.34 2341,1580.5C 2331.95,1592.96 2320.45,1595.79 2306.5,1589C 2297.4,1582.8 2292.73,1574.14 2292.5,1563C 2293.76,1548.24 2301.42,1539.08 2315.5,1535.5 Z"/></g>
<g><path style="opacity:0.931" fill="#000000" d="M 2799.5,1524.5 C 2808.96,1523.48 2817.96,1524.98 2826.5,1529C 2828,1530.5 2829.5,1532 2831,1533.5C 2830.88,1528.41 2833.21,1525.41 2838,1524.5C 2839.98,1524.99 2841.65,1525.99 2843,1527.5C 2843.67,1551.83 2843.67,1576.17 2843,1600.5C 2840.12,1603.44 2836.95,1603.94 2833.5,1602C 2832.17,1599.34 2831.33,1596.51 2831,1593.5C 2822.08,1603.07 2811.24,1606.24 2798.5,1603C 2783.26,1598.76 2773.76,1588.93 2770,1573.5C 2765.74,1548.34 2775.57,1532 2799.5,1524.5 Z M 2803.5,1535.5 C 2816.82,1534.07 2825.99,1539.4 2831,1551.5C 2831.91,1560.58 2831.58,1569.58 2830,1578.5C 2822.16,1591.67 2810.99,1595.5 2796.5,1590C 2783.89,1581.92 2779.05,1570.42 2782,1555.5C 2785.55,1544.78 2792.72,1538.11 2803.5,1535.5 Z"/></g>
<g><path style="opacity:0.357" fill="#797979" d="M 805.5,1528.5 C 807.552,1529.05 807.885,1530.05 806.5,1531.5C 805.89,1530.61 805.557,1529.61 805.5,1528.5 Z"/></g>
<g><path style="opacity:0.082" fill="#6f6f6f" d="M 832.5,1528.5 C 833.338,1528.84 833.672,1529.51 833.5,1530.5C 831.576,1530.29 831.243,1529.62 832.5,1528.5 Z"/></g>
<g><path style="opacity:1" fill="#e4b441" d="M 553.5,1531.5 C 571.853,1530.69 580.687,1539.35 580,1557.5C 575.746,1570.22 566.913,1575.72 553.5,1574C 541.534,1569.24 536.367,1560.41 538,1547.5C 540.685,1539.65 545.852,1534.32 553.5,1531.5 Z"/></g>
<g><path style="opacity:0.463" fill="#737373" d="M 806.5,1532.5 C 807.586,1532.62 808.253,1533.29 808.5,1534.5C 808.457,1535.42 808.124,1536.08 807.5,1536.5C 807.167,1535.17 806.833,1533.83 806.5,1532.5 Z"/></g>
<g><path style="opacity:0.165" fill="#525252" d="M 973.5,1523.5 C 971.124,1531.25 967.458,1538.25 962.5,1544.5C 965.406,1537.02 969.072,1530.02 973.5,1523.5 Z"/></g>
<g><path style="opacity:0.38" fill="#7c7c7c" d="M 808.5,1541.5 C 810.424,1541.71 810.757,1542.38 809.5,1543.5C 808.662,1543.16 808.328,1542.49 808.5,1541.5 Z"/></g>
<g><path style="opacity:0.455" fill="#707070" d="M 833.5,1531.5 C 834.988,1535.79 836.322,1540.12 837.5,1544.5C 836.069,1544.12 835.236,1543.12 835,1541.5C 834.369,1538.61 833.536,1535.77 832.5,1533C 832.57,1532.24 832.903,1531.74 833.5,1531.5 Z"/></g>
<g><path style="opacity:0.388" fill="#797979" d="M 809.5,1545.5 C 811.424,1545.71 811.757,1546.38 810.5,1547.5C 809.662,1547.16 809.328,1546.49 809.5,1545.5 Z"/></g>
<g><path style="opacity:0.067" fill="#787878" d="M 837.5,1546.5 C 838.309,1548.03 838.976,1549.69 839.5,1551.5C 838.503,1551.53 837.836,1551.03 837.5,1550C 836.485,1548.63 836.485,1547.46 837.5,1546.5 Z"/></g>
<g><path style="opacity:0.031" fill="#636363" d="M 990.5,1545.5 C 988.561,1550.09 986.227,1554.42 983.5,1558.5C 984.546,1553.4 986.879,1549.07 990.5,1545.5 Z"/></g>
<g><path style="opacity:0.392" fill="#757575" d="M 810.5,1549.5 C 812.424,1549.71 812.757,1550.38 811.5,1551.5C 810.662,1551.16 810.328,1550.49 810.5,1549.5 Z"/></g>
<g><path style="opacity:0.051" fill="#838383" d="M 839.5,1553.5 C 840.309,1555.03 840.976,1556.69 841.5,1558.5C 840.503,1558.53 839.836,1558.03 839.5,1557C 838.485,1555.63 838.485,1554.46 839.5,1553.5 Z"/></g>
<g><path style="opacity:0.145" fill="#585858" d="M 811.5,1553.5 C 813.302,1554.32 814.302,1555.82 814.5,1558C 814.43,1558.76 814.097,1559.26 813.5,1559.5C 812.833,1557.5 812.167,1555.5 811.5,1553.5 Z"/></g>
<g><path style="opacity:0.043" fill="#797979" d="M 841.5,1559.5 C 841.557,1560.61 841.89,1561.61 842.5,1562.5C 840.448,1561.95 840.115,1560.95 841.5,1559.5 Z"/></g>
<g><path style="opacity:0.255" fill="#757575" d="M 983.5,1558.5 C 982.416,1561 981.083,1563.34 979.5,1565.5C 979.584,1562.32 980.917,1559.98 983.5,1558.5 Z"/></g>
<g><path style="opacity:0.831" fill="#4e4e4e" d="M 814.5,1564.5 C 817.166,1565.51 817.833,1567.18 816.5,1569.5C 815.833,1567.83 815.167,1566.17 814.5,1564.5 Z"/></g>
<g><path style="opacity:0.035" fill="#707070" d="M 842.5,1563.5 C 843.167,1565.5 843.833,1567.5 844.5,1569.5C 842.698,1568.68 841.698,1567.18 841.5,1565C 841.57,1564.24 841.903,1563.74 842.5,1563.5 Z"/></g>
<g><path style="opacity:0.184" fill="#939393" d="M 978.5,1567.5 C 977.737,1569.37 976.737,1571.04 975.5,1572.5C 975.259,1569.97 976.259,1568.3 978.5,1567.5 Z"/></g>
<g><path style="opacity:0.435" fill="#757575" d="M 949.5,1568.5 C 949.25,1570.67 948.25,1572.34 946.5,1573.5C 946.75,1571.33 947.75,1569.66 949.5,1568.5 Z"/></g>
<g><path style="opacity:0.167" fill="#6f6f6f" d="M 975.5,1572.5 C 975.068,1573.71 974.401,1574.71 973.5,1575.5C 973.285,1573.82 973.952,1572.82 975.5,1572.5 Z"/></g>
<g><path style="opacity:0.035" fill="#757575" d="M 844.5,1570.5 C 845.167,1572.5 845.833,1574.5 846.5,1576.5C 844.698,1575.68 843.698,1574.18 843.5,1572C 843.57,1571.24 843.903,1570.74 844.5,1570.5 Z"/></g>
<g><path style="opacity:0.451" fill="#7b7b7b" d="M 946.5,1573.5 C 946.25,1575.67 945.25,1577.34 943.5,1578.5C 943.75,1576.33 944.75,1574.66 946.5,1573.5 Z"/></g>
<g><path style="opacity:0.251" fill="#878787" d="M 972.5,1577.5 C 972.068,1578.71 971.401,1579.71 970.5,1580.5C 970.285,1578.82 970.952,1577.82 972.5,1577.5 Z"/></g>
<g><path style="opacity:0.416" fill="#555555" d="M 590.5,1575.5 C 591.559,1578.62 592.892,1581.62 594.5,1584.5C 591.871,1582.61 590.205,1579.94 589.5,1576.5C 589.624,1575.89 589.957,1575.56 590.5,1575.5 Z"/></g>
<g><path style="opacity:0.494" fill="#747474" d="M 943.5,1578.5 C 943.25,1580.67 942.25,1582.34 940.5,1583.5C 940.75,1581.33 941.75,1579.66 943.5,1578.5 Z"/></g>
<g><path style="opacity:0.031" fill="#767676" d="M 846.5,1577.5 C 847.167,1579.5 847.833,1581.5 848.5,1583.5C 846.698,1582.68 845.698,1581.18 845.5,1579C 845.57,1578.24 845.903,1577.74 846.5,1577.5 Z"/></g>
<g><path style="opacity:0.092" fill="#858585" d="M 594.5,1584.5 C 595.401,1585.29 596.068,1586.29 596.5,1587.5C 594.952,1587.18 594.285,1586.18 594.5,1584.5 Z"/></g>
<g><path style="opacity:0.753" fill="#545454" d="M 684.5,1585.5 C 684.834,1588.49 683.834,1590.82 681.5,1592.5C 681.935,1589.84 682.935,1587.51 684.5,1585.5 Z"/></g>
<g><path style="opacity:0.027" fill="#767676" d="M 848.5,1584.5 C 849.167,1586.5 849.833,1588.5 850.5,1590.5C 848.698,1589.68 847.698,1588.18 847.5,1586C 847.57,1585.24 847.903,1584.74 848.5,1584.5 Z"/></g>
<g><path style="opacity:0.376" fill="#8a8a8a" d="M 596.5,1587.5 C 597.488,1588.8 598.488,1590.13 599.5,1591.5C 597.088,1591.31 596.088,1589.97 596.5,1587.5 Z"/></g>
<g><path style="opacity:0.069" fill="#727272" d="M 599.5,1591.5 C 601.063,1592.94 602.396,1594.61 603.5,1596.5C 600.703,1596.03 599.369,1594.37 599.5,1591.5 Z"/></g>
<g><path style="opacity:0.039" fill="#787878" d="M 850.5,1591.5 C 851.363,1593.42 852.029,1595.42 852.5,1597.5C 850.698,1596.68 849.698,1595.18 849.5,1593C 849.57,1592.24 849.903,1591.74 850.5,1591.5 Z"/></g>
<g><path style="opacity:0.141" fill="#585858" d="M 823.5,1588.5 C 825.267,1590.79 826.267,1593.46 826.5,1596.5C 824.733,1594.21 823.733,1591.54 823.5,1588.5 Z"/></g>
<g><path style="opacity:0.004" fill="#888888" d="M 852.5,1598.5 C 853.345,1599.67 854.011,1601 854.5,1602.5C 852.879,1602.21 851.879,1601.21 851.5,1599.5C 851.624,1598.89 851.957,1598.56 852.5,1598.5 Z"/></g>
<g><path style="opacity:0.431" fill="#848484" d="M 604.5,1597.5 C 605.488,1598.8 606.488,1600.13 607.5,1601.5C 605.088,1601.31 604.088,1599.97 604.5,1597.5 Z"/></g>
<g><path style="opacity:0.557" fill="#515151" d="M 826.5,1598.5 C 828.335,1599.12 829.502,1600.46 830,1602.5C 831.467,1605.76 832.633,1609.09 833.5,1612.5C 830.797,1608.08 828.463,1603.42 826.5,1598.5 Z"/></g>
<g><path style="opacity:0.041" fill="#6d6d6d" d="M 854.5,1603.5 C 855.434,1604.57 855.768,1605.9 855.5,1607.5C 853.862,1606.3 853.529,1604.96 854.5,1603.5 Z"/></g>
<g><path style="opacity:0.494" fill="#777777" d="M 608.5,1602.5 C 609.89,1603.9 610.89,1605.57 611.5,1607.5C 609.273,1606.6 608.273,1604.93 608.5,1602.5 Z"/></g>
<g><path style="opacity:0.082" fill="#777777" d="M 583.5,1609.5 C 584.906,1609.97 585.573,1610.97 585.5,1612.5C 584.094,1612.03 583.427,1611.03 583.5,1609.5 Z"/></g>
<g><path style="opacity:0.51" fill="#737373" d="M 612.5,1608.5 C 614.587,1609.58 615.92,1611.25 616.5,1613.5C 614.413,1612.42 613.08,1610.75 612.5,1608.5 Z"/></g>
<g><path style="opacity:0.208" fill="#717171" d="M 695.5,1620.5 C 695.715,1622.18 695.048,1623.18 693.5,1623.5C 693.427,1621.97 694.094,1620.97 695.5,1620.5 Z"/></g>
<g><path style="opacity:0.059" fill="#6a6a6a" d="M 595.5,1625.5 C 599.167,1628.5 602.5,1631.83 605.5,1635.5C 601.167,1633.17 597.833,1629.83 595.5,1625.5 Z"/></g>
<g><path style="opacity:0.184" fill="#6e6e6e" d="M 691.5,1626.5 C 691.34,1628.15 690.674,1629.49 689.5,1630.5C 689.229,1628.62 689.896,1627.29 691.5,1626.5 Z"/></g>
<g><path style="opacity:0.175" fill="#2e2e2e" d="M 688.5,1630.5 C 684.904,1637.1 679.904,1642.43 673.5,1646.5C 673.369,1645.76 673.536,1645.09 674,1644.5C 679.059,1639.94 683.892,1635.27 688.5,1630.5 Z"/></g>
<g><path style="opacity:0.106" fill="#818181" d="M 927.5,1637.5 C 924.899,1641.77 921.566,1645.44 917.5,1648.5C 920.101,1644.23 923.434,1640.56 927.5,1637.5 Z"/></g>
<g><path style="opacity:0.239" fill="#a2a2a2" d="M 852.5,1641.5 C 854.833,1643.17 856.833,1645.17 858.5,1647.5C 855.5,1646.5 853.5,1644.5 852.5,1641.5 Z"/></g>
<g><path style="opacity:0.078" fill="#5e5e5e" d="M 666.5,1651.5 C 663.833,1652.83 661.167,1654.17 658.5,1655.5C 660.168,1653.14 662.501,1651.48 665.5,1650.5C 666.107,1650.62 666.44,1650.96 666.5,1651.5 Z"/></g>
<g><path style="opacity:0.016" fill="#777777" d="M 915.5,1649.5 C 912.378,1652.57 908.711,1654.9 904.5,1656.5C 904.369,1655.62 904.702,1654.96 905.5,1654.5C 908.867,1652.77 912.2,1651.11 915.5,1649.5 Z"/></g>
<g><path style="opacity:0.008" fill="#646464" d="M 639.5,1657.5 C 643.167,1656.17 646.833,1656.17 650.5,1657.5C 646.8,1658.76 643.134,1658.76 639.5,1657.5 Z"/></g>
</svg>
