<svg width="2987" height="891" viewBox="0 0 2987 891" fill="none" xmlns="http://www.w3.org/2000/svg">
<path opacity="0.935" fill-rule="evenodd" clip-rule="evenodd" d="M968.464 0C971.824 0.116 975.154 0.449 978.464 1C978.464 297.33 978.464 593.67 978.464 890C975.114 890.17 971.784 890 968.464 889.5C967.964 889 967.464 888.5 966.964 888C966.294 592.67 966.294 297.33 966.964 2C967.684 1.456 968.184 0.789 968.464 0Z" fill="#E4B441"/>
<path opacity="0.947" fill-rule="evenodd" clip-rule="evenodd" d="M2839.46 7.00027C2843.42 6.58927 2847.09 7.42227 2850.46 9.50027C2854 12.7013 2857.16 16.2013 2859.96 20.0003C2861.21 22.5773 2861.54 25.2433 2860.96 28.0003C2844.37 42.0483 2827.87 56.2153 2811.46 70.5003C2804.64 71.8423 2799.81 69.3423 2796.96 63.0003C2796.25 60.5293 2796.59 58.1953 2797.96 56.0003C2811.63 39.5013 2825.46 23.1673 2839.46 7.00027Z" fill="#E4B441"/>
<path opacity="0.977" fill-rule="evenodd" clip-rule="evenodd" d="M628.13 74.1018C629.247 75.3746 629.91 75.0374 630.119 73.0893C634.387 72.1527 638.698 71.4783 643.051 71.0642C644.168 72.337 644.83 71.9998 645.04 70.0517C648.33 69.4938 651.645 69.1566 654.988 69.0391C655.757 69.6942 656.752 70.0314 657.972 70.0517C659.494 69.9099 660.488 69.2345 660.956 68.0266C662.614 68.0266 664.271 68.0266 665.929 68.0266C673.704 69.031 681.662 69.3692 689.803 69.0391C691.708 69.3267 693.365 68.9895 694.776 68.0266C697.097 68.0266 699.419 68.0266 701.739 68.0266C702.289 70.1043 703.284 70.4415 704.724 69.0391C705.718 69.0391 706.713 69.0391 707.708 69.0391C707.827 70.1387 708.491 70.8141 709.697 71.0642C710.608 71.0207 711.272 70.6835 711.687 70.0517C716.464 70.5519 721.107 71.5644 725.613 73.0893C716.676 81.1592 712.034 91.2845 711.687 103.465C701.964 100.473 692.017 98.7864 681.845 98.4027C681.735 97.7779 681.403 97.2717 680.85 96.8839C673.556 96.2085 666.261 96.2085 658.966 96.8839C658.055 97.1653 657.393 97.6716 656.977 98.4027C654.656 98.4027 652.335 98.4027 650.014 98.4027C649.244 97.7476 648.249 97.4104 647.03 97.3901C645.185 97.2281 643.859 97.9035 643.051 99.4152C637.414 100.091 631.778 100.765 626.141 101.44C624.868 100.21 623.874 100.547 623.156 102.453C618.514 103.465 613.873 104.478 609.23 105.49C606.17 105.165 603.849 106.178 602.267 108.528C598.512 109.596 594.865 110.946 591.325 112.578C588.636 112.75 586.977 114.1 586.352 116.628C585.566 117.541 584.571 118.216 583.368 118.653C579.635 121.063 578.641 124.438 580.383 128.779C580.838 129.587 581.501 129.924 582.373 129.791C583.936 132.557 586.257 134.414 589.336 135.36C617.597 142.366 646.113 143.716 674.882 139.41C689.413 136.898 701.349 129.979 710.692 118.653C712.09 118.174 712.754 117.162 712.681 115.616C712.681 115.279 712.681 114.94 712.681 114.603C716.035 120.225 720.013 125.457 724.618 130.298C728.991 132.856 733.301 135.388 737.549 137.892C736.223 138.229 734.896 138.567 733.57 138.904C733.635 138.461 733.47 138.122 733.073 137.892C731.664 138.477 730.835 139.489 730.586 140.929C720.513 145.549 710.566 150.444 700.745 155.611C674.737 166.111 647.879 169.149 620.172 164.724C603.004 161.787 586.094 157.739 569.441 152.573C538.175 142.639 507.339 131.501 476.932 119.16C441.71 106.69 405.569 98.4209 368.508 94.3525C366.106 93.0221 363.288 92.3467 360.053 92.3275C356.818 92.3467 354 93.0221 351.598 94.3525C332.72 95.8065 315.478 101.882 299.872 112.578C298.353 112.504 297.358 113.18 296.888 114.603C296.888 115.279 296.557 115.616 295.893 115.616C291.345 118.717 287.2 122.43 283.459 126.754C282.979 127.714 282.814 128.726 282.962 129.791C282.962 130.467 282.631 130.804 281.967 130.804C279.568 131 278.573 132.35 278.983 134.854C276.584 135.05 275.589 136.4 275.999 138.904C274.459 139.229 273.795 140.242 274.009 141.942C270.761 146.873 267.776 151.935 265.057 157.13C263.273 159.08 262.279 161.443 262.073 164.218C259.058 170.364 256.405 176.773 254.115 183.456C254.238 184.073 254.569 184.407 255.11 184.468C253.607 190.928 251.949 197.338 250.136 203.706C249.522 203.818 249.025 204.152 248.644 204.719C247.968 207.807 247.14 210.845 246.157 213.832C246.28 214.449 246.612 214.784 247.152 214.844C245.494 222.266 243.836 229.698 242.178 237.12C239.506 240.866 238.18 245.251 238.199 250.283C238.199 250.961 238.199 251.63 238.199 252.308C236.401 253.746 235.737 255.771 236.21 258.383C233.824 268.367 230.839 278.158 227.257 287.747C225.901 289.488 224.906 291.514 224.273 293.822C224.397 294.44 224.728 294.774 225.268 294.835C225.268 295.169 225.268 295.513 225.268 295.847C224.397 295.716 223.733 296.05 223.279 296.86C222.132 298.065 222.132 299.077 223.279 299.897C223.279 300.231 223.279 300.576 223.279 300.91C222.407 300.778 221.744 301.112 221.289 301.922C217.962 309.365 214.646 316.797 211.342 324.198C210.766 327.064 209.44 329.423 207.363 331.286C205.767 332.086 205.104 333.433 205.374 335.336C203.834 335.66 203.17 336.673 203.384 338.374C201.844 338.698 201.181 339.71 201.395 341.411C200.069 341.411 199.405 342.09 199.405 343.436C198.828 345.715 197.502 347.406 195.426 348.499C192.442 350.858 189.789 353.562 187.469 356.599C186.805 357.946 185.81 358.959 184.484 359.637C184.549 359.191 184.384 358.857 183.987 358.624C180.084 361.368 175.939 363.738 171.553 365.712C170.759 366.178 170.428 366.846 170.558 367.737C166.106 369.702 161.464 371.048 156.632 371.787C155.927 370.876 154.932 370.532 153.648 370.775C156.481 360.872 156.15 351.081 152.653 341.411C161.027 338.667 168.653 334.617 175.532 329.261C179.248 327.843 181.569 325.14 182.495 321.161C183.921 318.579 185.579 316.219 187.469 314.073C190.662 311.622 192.319 308.251 192.442 303.947C192.442 303.613 192.442 303.269 192.442 302.935C193.314 303.067 193.977 302.732 194.432 301.922C195.726 298.956 196.72 295.918 197.416 292.81C197.544 291.068 197.875 289.387 198.41 287.747C200.513 286.451 201.508 284.426 201.395 281.672C209.786 253.068 218.407 224.555 227.257 196.112C226.704 195.728 226.373 195.221 226.263 194.594C227.254 194.624 227.918 194.118 228.252 193.075C229.502 188.822 230.828 184.61 232.231 180.418C232.108 179.8 231.776 179.466 231.236 179.406C231.236 178.727 231.236 178.059 231.236 177.38C232.912 176.692 233.907 175.335 234.22 173.33C234.097 172.713 233.766 172.379 233.226 172.318C233.226 171.639 233.226 170.971 233.226 170.293C234.217 170.323 234.881 169.817 235.215 168.774C235.78 166.88 236.444 165.028 237.205 163.205C237.081 162.587 236.75 162.253 236.21 162.192C236.21 161.858 236.21 161.514 236.21 161.18C238.653 158.833 239.979 155.795 240.189 152.067C258.544 106.072 291.701 77.8897 339.661 67.5203C366.742 64.2468 393.6 65.9347 420.233 72.583C456.649 81.3394 491.962 93.3208 526.171 108.528C553.673 98.1647 581.36 88.2074 609.23 78.6582C615.432 76.6574 621.732 75.1386 628.13 74.1018Z" fill="#E4B441"/>
<path opacity="0.151" fill-rule="evenodd" clip-rule="evenodd" d="M693.464 67C695.18 67.129 696.847 67.462 698.464 68C697.045 68.951 695.379 69.284 693.464 69C693.464 68.333 693.464 67.667 693.464 67Z" fill="#E4B441"/>
<path opacity="0.973" fill-rule="evenodd" clip-rule="evenodd" d="M781.318 107.515C779.229 117.184 774.584 125.284 767.392 131.816C758.27 137.411 748.322 139.436 737.55 137.891C733.302 135.387 728.992 132.856 724.619 130.297C720.014 125.456 716.035 120.224 712.682 114.603C711.942 110.938 711.611 107.226 711.688 103.465C712.035 91.2841 716.677 81.1587 725.614 73.0888C734.74 67.3275 744.687 65.4715 755.455 67.5198C774.156 74.0193 782.78 87.3514 781.318 107.515Z" fill="#C39320"/>
<path opacity="0.51" fill-rule="evenodd" clip-rule="evenodd" d="M693.464 67.0002C693.464 67.6672 693.464 68.3332 693.464 69.0002C685.28 69.3262 677.28 68.9922 669.464 68.0002C677.422 67.0972 685.422 66.7642 693.464 67.0002Z" fill="#E4B441"/>
<path opacity="0.557" fill-rule="evenodd" clip-rule="evenodd" d="M664.464 68C663.994 69.193 662.994 69.86 661.464 70C660.238 69.98 659.238 69.647 658.464 69C660.399 68.35 662.399 68.017 664.464 68Z" fill="#E4B441"/>
<path opacity="0.212" fill-rule="evenodd" clip-rule="evenodd" d="M705.464 68C706.573 68.057 707.573 68.39 708.464 69C707.017 70.385 706.017 70.052 705.464 68Z" fill="#E4B441"/>
<path opacity="0.396" fill-rule="evenodd" clip-rule="evenodd" d="M711.464 68.9996C712.923 68.9326 714.256 69.2656 715.464 69.9996C715.047 70.6236 714.38 70.9566 713.464 70.9996C712.251 70.7526 711.584 70.0856 711.464 68.9996Z" fill="#E4B441"/>
<path opacity="0.447" fill-rule="evenodd" clip-rule="evenodd" d="M648.464 69.9999C648.253 71.9239 647.587 72.2569 646.464 70.9999C646.806 70.1619 647.472 69.8279 648.464 69.9999Z" fill="#E4B441"/>
<path opacity="0.51" fill-rule="evenodd" clip-rule="evenodd" d="M633.464 72.9999C633.253 74.9239 632.587 75.2569 631.464 73.9999C631.806 73.1619 632.472 72.8279 633.464 72.9999Z" fill="#E4B441"/>
<path fill-rule="evenodd" clip-rule="evenodd" d="M741.529 80.1768C759.782 79.3547 768.576 88.1303 767.889 106.503C763.662 119.378 754.871 124.947 741.529 123.21C729.626 118.394 724.487 109.45 726.111 96.3774C728.782 88.429 733.921 83.0281 741.529 80.1768Z" fill="white"/>
<path opacity="0.837" fill-rule="evenodd" clip-rule="evenodd" d="M370.464 94C364.797 94 359.131 94 353.464 94C355.879 92.686 358.712 92.019 361.964 92C365.216 92.019 368.049 92.686 370.464 94Z" fill="#E4B441"/>
<path opacity="0.682" fill-rule="evenodd" clip-rule="evenodd" d="M681.846 98.4023C673.568 97.2956 665.279 97.2956 656.978 98.4023C657.393 97.6712 658.056 97.165 658.967 96.8835C666.261 96.2081 673.557 96.2081 680.851 96.8835C681.404 97.2713 681.735 97.7775 681.846 98.4023Z" fill="#E4B441"/>
<path opacity="0.698" fill-rule="evenodd" clip-rule="evenodd" d="M650.015 98.4023C647.763 99.1303 645.442 99.4674 643.052 99.4148C643.859 97.9031 645.185 97.2277 647.031 97.3897C648.25 97.41 649.245 97.7471 650.015 98.4023Z" fill="#E4B441"/>
<path opacity="0.047" fill-rule="evenodd" clip-rule="evenodd" d="M626.141 101.44C625.255 102.058 624.26 102.395 623.157 102.452C623.874 100.547 624.869 100.21 626.141 101.44Z" fill="#787878"/>
<path opacity="0.972" fill-rule="evenodd" clip-rule="evenodd" d="M2674.46 102C2777.79 101.833 2881.13 102 2984.46 102.5C2984.96 103 2985.46 103.5 2985.96 104C2986.63 125.333 2986.63 146.667 2985.96 168C2984.14 169.55 2981.97 170.21 2979.46 170C2975.6 170.65 2972.76 169.32 2970.96 166C2970.73 148.983 2965.9 133.483 2956.46 119.5C2898.46 119 2840.46 118.833 2782.46 119C2782.46 187.33 2782.46 255.67 2782.46 324C2824.46 324.17 2866.46 324 2908.46 323.5C2915.13 310.51 2918.63 296.68 2918.96 282C2923.99 279.4 2928.99 279.4 2933.96 282C2934.79 315.67 2934.63 349.34 2933.46 383C2929.18 384.11 2924.85 384.27 2920.46 383.5C2919.96 383 2919.46 382.5 2918.96 382C2918.69 367.49 2915.19 353.82 2908.46 341C2866.47 340 2824.47 339.67 2782.46 340C2782.46 409 2782.46 478 2782.46 547C2840.46 547.17 2898.46 547 2956.46 546.5C2966.18 531.47 2971.18 514.97 2971.46 497C2976.09 495.84 2980.76 495.67 2985.46 496.5C2986.45 518.59 2986.79 540.76 2986.46 563C2881.79 563.17 2777.13 563 2672.46 562.5C2671.49 557.76 2671.16 552.93 2671.46 548C2689.08 548.18 2705.25 543.51 2719.96 534C2720.79 399.67 2720.63 265.33 2719.46 131C2705.44 122.16 2690.1 117.994 2673.46 118.5C2672.96 118 2672.46 117.5 2671.96 117C2671.29 113 2671.29 109 2671.96 105C2672.66 103.809 2673.49 102.809 2674.46 102Z" fill="#E4B441"/>
<path opacity="0.972" fill-rule="evenodd" clip-rule="evenodd" d="M2478.46 103C2493.7 102.676 2508.87 103.009 2523.96 104C2524.46 136.332 2524.63 168.66 2524.46 201C2558.13 201 2591.79 201 2625.46 201C2625.46 203.67 2625.46 206.33 2625.46 209C2591.79 209 2558.13 209 2524.46 209C2524.29 296 2524.46 383 2524.96 470C2525.56 496.51 2536.06 518.01 2556.46 534.5C2591.45 552.59 2622.28 547.09 2648.96 518C2650.71 514.83 2652.71 511.83 2654.96 509C2656.93 509.81 2658.43 511.14 2659.46 513C2640.9 546.63 2612.23 563.29 2573.46 563C2526.28 561.49 2495.78 538.16 2481.96 493C2479.76 483.79 2478.42 474.46 2477.96 465C2477.46 379.67 2477.29 294.33 2477.46 209C2461.46 209 2445.46 209 2429.46 209C2429.46 206.33 2429.46 203.67 2429.46 201C2445.46 201 2461.46 201 2477.46 201C2477.15 168.3 2477.48 135.636 2478.46 103Z" fill="#E4B441"/>
<path opacity="0.384" fill-rule="evenodd" clip-rule="evenodd" d="M609.231 105.49C607.063 106.682 604.741 107.694 602.268 108.528C603.849 106.177 606.17 105.165 609.231 105.49Z" fill="#E4B441"/>
<path opacity="0.944" fill-rule="evenodd" clip-rule="evenodd" d="M779.826 107.516C796.855 124.604 809.956 144.518 819.117 167.255C831.74 198.077 839.201 230.134 841.498 263.446C840.862 264.054 840.534 264.894 840.504 265.977C840.683 267.375 841.349 268.215 842.493 268.509C842.493 268.843 842.493 269.187 842.493 269.521C841.847 270.301 841.518 271.314 841.498 272.559C841.638 274.108 842.304 275.121 843.488 275.597C843.488 276.275 843.488 276.943 843.488 277.622C842.851 278.229 842.523 279.07 842.493 280.153C842.672 281.55 843.339 282.391 844.483 282.684C844.483 284.031 844.483 285.388 844.483 286.734C843.846 287.342 843.518 288.182 843.488 289.266C843.667 290.663 844.333 291.504 845.477 291.797C845.477 293.822 845.477 295.847 845.477 297.872C844.831 298.652 844.502 299.665 844.483 300.91C844.622 302.459 845.288 303.472 846.472 303.948C846.81 323.53 846.979 343.102 846.969 362.675C840.553 420.774 830.268 478.154 816.133 534.806C811.169 554.52 804.375 573.424 795.741 591.508C789.087 583.043 780.801 576.968 770.873 573.282C772.236 572.259 773.559 571.247 774.852 570.245C776.653 568.635 777.976 566.61 778.831 564.169C778.712 563.552 778.373 563.218 777.836 563.157C777.836 562.478 777.836 561.81 777.836 561.132C778.831 561.162 779.488 560.656 779.826 559.613C781.487 554.55 783.138 549.488 784.799 544.425C784.73 543.655 784.401 543.149 783.805 542.906C783.805 542.572 783.805 542.228 783.805 541.894C785.714 541.681 786.053 541.003 784.799 539.868C784.799 539.534 784.799 539.19 784.799 538.856C785.794 538.886 786.451 538.38 786.789 537.337C787.893 535.636 787.893 534.117 786.789 532.781C786.789 532.447 786.789 532.102 786.789 531.768C788.699 531.556 789.037 530.877 787.783 529.743C787.913 528.002 788.241 526.321 788.778 524.68C789.773 524.711 790.429 524.205 790.768 523.162C791.872 521.461 791.872 519.942 790.768 518.605C791.305 516.965 791.633 515.284 791.762 513.543C793.802 512.986 794.14 511.973 792.757 510.505C792.757 510.171 792.757 509.827 792.757 509.492C793.752 509.523 794.408 509.016 794.747 507.974C795.851 506.273 795.851 504.754 794.747 503.417C794.747 503.083 794.747 502.739 794.747 502.405C796.617 501.676 796.955 500.663 795.741 499.367C795.741 499.033 795.741 498.689 795.741 498.354C798.208 496.745 798.875 494.719 797.731 492.279C797.731 491.601 797.731 490.933 797.731 490.254C798.815 490.133 799.471 489.454 799.72 488.229C800.307 485.678 800.973 483.146 801.71 480.635C801.64 479.866 801.312 479.359 800.715 479.116C800.735 477.03 801.063 475.005 801.71 473.041C804.246 470.712 804.913 468.009 803.699 464.941C804.027 462.916 804.365 460.891 804.694 458.866C806.564 458.137 806.902 457.124 805.688 455.828C805.688 455.15 805.688 454.481 805.688 453.803C807.559 453.074 807.897 452.061 806.683 450.765C807.787 445.044 808.782 439.314 809.667 433.552C811.677 432.499 812.005 431.152 810.662 429.502C811.856 422.05 813.189 414.628 814.641 407.226C816.422 403.581 817.754 399.531 818.62 395.076C818.58 394.144 818.242 393.476 817.625 393.051C821.455 365.864 822.619 338.526 821.107 311.035C820.112 309.344 819.117 307.664 818.122 305.973C808.752 339.407 791.683 367.93 766.894 391.532C752.171 403.895 735.261 410.821 716.164 412.289C708.869 412.289 701.574 412.289 694.28 412.289C692.954 412.289 691.627 412.289 690.301 412.289C689.584 410.385 688.589 410.041 687.317 411.276C678.629 409.788 670.34 407.095 662.449 403.176C659.628 399.875 655.98 397.85 651.507 397.101C631.951 386.814 612.72 376.01 593.813 364.7C592.93 362.361 591.272 360.67 588.839 359.637C588.235 359.759 587.904 360.103 587.845 360.65C586.85 360.315 586.186 359.637 585.855 358.625C584.787 357.227 583.461 356.043 581.876 355.081C580.944 354.382 580.282 354.544 579.887 355.587C573.918 351.871 567.95 348.165 561.982 344.449C561.45 342.475 560.124 341.462 558.003 341.411C544.518 334.354 530.592 328.279 516.225 323.186C518.83 313.405 518.83 303.613 516.225 293.822C534.883 298.753 552.455 306.347 568.945 316.604C576.956 323.074 585.246 329.15 593.813 334.83C612.885 346.677 631.784 358.655 650.512 370.775C652.318 372.739 654.308 373.418 656.48 372.8C657.144 372.8 657.475 373.134 657.475 373.813C657.345 374.704 657.676 375.372 658.47 375.838C661.035 377.063 663.522 378.409 665.93 379.888C666.327 379.655 666.492 379.321 666.428 378.875C667.091 378.875 667.753 378.875 668.417 378.875C668.494 380.141 669.157 380.981 670.406 381.407C671.771 381.812 673.097 382.318 674.385 382.925C674.989 382.804 675.32 382.46 675.38 381.913C715.866 390.509 748.527 378.025 773.36 344.449C787.684 322.376 797.959 298.409 804.196 272.559C809.309 253.878 810.801 234.974 808.673 215.857C809.269 215.614 809.598 215.108 809.667 214.338C809.09 212.505 807.101 211.665 806.683 209.782C806.265 208.506 806.932 206.825 805.688 206.744C798.109 178.474 784.839 153.496 765.9 131.816C773.091 125.285 777.737 117.184 779.826 107.516Z" fill="#E4B441"/>
<path opacity="0.059" fill-rule="evenodd" clip-rule="evenodd" d="M299.873 112.578C299.402 114.001 298.408 114.677 296.889 114.603C297.359 113.179 298.354 112.504 299.873 112.578Z" fill="#E4B441"/>
<path opacity="0.329" fill-rule="evenodd" clip-rule="evenodd" d="M591.326 112.578C589.889 114.161 588.232 115.51 586.353 116.628C586.978 114.1 588.636 112.75 591.326 112.578Z" fill="#E4B441"/>
<path opacity="0.176" fill-rule="evenodd" clip-rule="evenodd" d="M712.681 115.615C712.754 117.161 712.09 118.174 710.692 118.653C710.619 117.107 711.283 116.094 712.681 115.615Z" fill="#E4B441" fill-opacity="0.537255"/>
<path opacity="0.933" fill-rule="evenodd" clip-rule="evenodd" d="M1243.46 120C1294.14 115.028 1343.48 120.861 1391.46 137.5C1424.13 151.905 1452.63 172.07 1476.96 198C1502.72 227.82 1523.72 260.82 1539.96 297C1566.79 356.65 1593.62 416.32 1620.46 476C1641.83 431.46 1661.83 386.63 1680.46 341.5C1712.62 271.68 1744.12 201.51 1774.96 131C1779.79 126.918 1785.29 125.584 1791.46 127C1792.6 128.921 1792.77 130.921 1791.96 133C1726.86 277.86 1662.36 422.86 1598.46 568C1597.46 568 1596.46 568 1595.46 568C1564.41 494.02 1531.91 420.69 1497.96 348C1478.84 297.75 1453.51 251.08 1421.96 208C1373.3 145.657 1309.8 122.157 1231.46 137.5C1202.33 142.311 1177.5 155.145 1156.96 176C1146.49 189.27 1139.49 204.27 1135.96 221C1131.63 223.67 1127.29 223.67 1122.96 221C1128.06 185.29 1146.23 158.454 1177.46 140.5C1198.61 130.552 1220.61 123.719 1243.46 120Z" fill="#E4B441"/>
<path opacity="0.027" fill-rule="evenodd" clip-rule="evenodd" d="M295.894 115.615C291.556 120.367 287.245 125.092 282.963 129.791C282.814 128.726 282.98 127.713 283.46 126.753C287.201 122.43 291.346 118.717 295.894 115.615Z" fill="#E4B441"/>
<path opacity="0.525" fill-rule="evenodd" clip-rule="evenodd" d="M583.368 118.653C580.59 122.31 580.258 126.023 582.373 129.791C581.502 129.924 580.838 129.587 580.384 128.779C578.641 124.438 579.636 121.063 583.368 118.653Z" fill="#E4B441"/>
<path opacity="0.076" fill-rule="evenodd" clip-rule="evenodd" d="M281.967 130.804C280.961 132.193 279.966 133.543 278.983 134.854C278.573 132.35 279.568 131 281.967 130.804Z" fill="#8A8A8A"/>
<path opacity="0.1" fill-rule="evenodd" clip-rule="evenodd" d="M278.984 134.854C277.977 136.243 276.983 137.592 276 138.904C275.59 136.4 276.585 135.05 278.984 134.854Z" fill="#E4B441"/>
<path opacity="0.188" fill-rule="evenodd" clip-rule="evenodd" d="M275.999 138.904C275.57 140.129 274.906 141.142 274.01 141.942C273.796 140.242 274.459 139.229 275.999 138.904Z" fill="#E4B441"/>
<path opacity="0.01" fill-rule="evenodd" clip-rule="evenodd" d="M733.571 138.904C732.785 139.816 731.791 140.492 730.587 140.929C730.836 139.489 731.664 138.477 733.074 137.892C733.471 138.122 733.636 138.461 733.571 138.904Z" fill="#868686"/>
<path opacity="0.455" fill-rule="evenodd" clip-rule="evenodd" d="M240.189 152.066C239.979 155.795 238.653 158.832 236.21 161.179C237.168 157.895 238.494 154.857 240.189 152.066Z" fill="#E4B441"/>
<path opacity="0.314" fill-rule="evenodd" clip-rule="evenodd" d="M265.057 157.13C264.851 159.905 263.857 162.263 262.073 164.218C262.279 161.443 263.274 159.08 265.057 157.13Z" fill="#E4B441"/>
<path opacity="0.333" fill-rule="evenodd" clip-rule="evenodd" d="M236.211 162.192C236.751 162.253 237.082 162.587 237.205 163.205C236.444 165.027 235.781 166.88 235.216 168.774C234.882 169.817 234.218 170.323 233.227 170.293C234.233 167.508 235.228 164.805 236.211 162.192Z" fill="#E4B441" fill-opacity="0.537255"/>
<path opacity="0.212" fill-rule="evenodd" clip-rule="evenodd" d="M233.226 172.317C233.766 172.378 234.097 172.712 234.22 173.33C233.907 175.335 232.912 176.692 231.236 177.38C231.758 175.547 232.421 173.867 233.226 172.317Z" fill="#868686"/>
<path opacity="0.553" fill-rule="evenodd" clip-rule="evenodd" d="M262.073 164.217C260.146 171.112 257.826 177.866 255.11 184.468C254.57 184.407 254.239 184.073 254.115 183.455C256.405 176.772 259.058 170.363 262.073 164.217Z" fill="#E4B441"/>
<path opacity="0.416" fill-rule="evenodd" clip-rule="evenodd" d="M231.236 179.405C231.776 179.466 232.108 179.8 232.231 180.418C230.828 184.61 229.503 188.822 228.252 193.075C227.918 194.117 227.254 194.624 226.263 194.593C227.782 189.399 229.439 184.336 231.236 179.405Z" fill="#E4B441"/>
<path opacity="0.977" fill-rule="evenodd" clip-rule="evenodd" d="M2257.46 201C2293.4 198.56 2321.24 212.22 2340.96 242C2351.15 258.88 2358.81 276.88 2363.96 296C2385.28 383.63 2406.45 471.3 2427.46 559C2427.28 560.05 2426.95 561.05 2426.46 562C2411.47 563.17 2396.47 563.33 2381.46 562.5C2380.53 562.11 2379.87 561.45 2379.46 560.5C2358.22 473.35 2337.05 386.19 2315.96 299C2311.79 281.5 2305.46 264.83 2296.96 249C2275.89 218.19 2248.39 211.02 2214.46 227.5C2203.72 233.57 2194.89 241.74 2187.96 252C2187.63 355.33 2187.29 458.67 2186.96 562C2172.53 563.16 2158.03 563.32 2143.46 562.5C2142.96 562 2142.46 561.5 2141.96 561C2140.3 442.39 2139.97 323.72 2140.96 205C2142.77 203.1 2144.93 202.6 2147.46 203.5C2163.29 212.67 2175.79 225.17 2184.96 241C2194.61 229.68 2205.77 220.18 2218.46 212.5C2230.96 206.5 2243.96 202.66 2257.46 201Z" fill="#E4B441"/>
<path opacity="0.647" fill-rule="evenodd" clip-rule="evenodd" d="M250.136 203.706C249.293 207.483 248.298 211.189 247.152 214.844C246.612 214.783 246.281 214.449 246.157 213.831C247.14 210.844 247.969 207.807 248.644 204.719C249.025 204.152 249.522 203.817 250.136 203.706Z" fill="#E4B441"/>
<path opacity="0.725" fill-rule="evenodd" clip-rule="evenodd" d="M242.179 237.12C240.988 241.656 239.662 246.041 238.2 250.283C238.181 245.251 239.507 240.867 242.179 237.12Z" fill="#E4B441" fill-opacity="0.8"/>
<path opacity="0.776" fill-rule="evenodd" clip-rule="evenodd" d="M238.199 252.308C237.826 254.535 237.163 256.56 236.21 258.383C235.737 255.77 236.401 253.745 238.199 252.308Z" fill="#E4B441"/>
<path opacity="0.94" fill-rule="evenodd" clip-rule="evenodd" d="M1382.46 263C1412.37 277.44 1430.54 301.1 1436.96 334C1438.12 341.31 1439.12 348.64 1439.96 356C1440.95 423.42 1440.62 490.75 1438.96 558C1438.06 559.2 1436.89 560.03 1435.46 560.5C1418.04 561.47 1400.7 561.14 1383.46 559.5C1382.96 559 1382.46 558.5 1381.96 558C1381.79 542.66 1381.29 527.32 1380.46 512C1356.57 538.66 1326.9 555.5 1291.46 562.5C1258.4 567.41 1225.4 567.07 1192.46 561.5C1167.59 555.9 1145.26 545.23 1125.46 529.5C1092.67 498.55 1081.84 461.05 1092.96 417C1100.92 393.24 1115.09 374.08 1135.46 359.5C1155.66 346.75 1177.66 338.41 1201.46 334.5C1222.01 331.4 1242.67 329.73 1263.46 329.5C1301.46 329.83 1339.46 329.83 1377.46 329.5C1379.29 329 1380.46 327.83 1380.96 326C1381.14 304.93 1381.64 283.93 1382.46 263ZM1369.46 344C1372.9 343.8 1376.23 344.3 1379.46 345.5C1380.09 346.25 1380.59 347.08 1380.96 348C1381.63 393 1381.63 438 1380.96 483C1379.63 489.32 1376.97 494.99 1372.96 500C1358.39 519.56 1339.56 533.39 1316.46 541.5C1280.52 554.94 1244.52 555.28 1208.46 542.5C1174.16 527.87 1154.66 502.03 1149.96 465C1142.8 422.16 1156.63 387.66 1191.46 361.5C1204.94 353.13 1219.6 348.13 1235.46 346.5C1280.27 345.38 1324.94 344.55 1369.46 344Z" fill="#E4B441"/>
<path opacity="0.948" fill-rule="evenodd" clip-rule="evenodd" d="M2020.46 266C2022.49 265.84 2024.49 266 2026.46 266.5C2054.53 283.1 2071.36 307.6 2076.96 340C2078.6 413.31 2078.94 486.64 2077.96 560C2077.06 561.2 2075.89 562.03 2074.46 562.5C2057.06 563.46 2039.73 563.12 2022.46 561.5C2021.96 561 2021.46 560.5 2020.96 560C2020.79 544.66 2020.29 529.32 2019.46 514C1992.05 543.87 1958.05 561.37 1917.46 566.5C1870.21 573.88 1825.55 566.54 1783.46 544.5C1738.64 516.41 1721.14 476.25 1730.96 424C1736.49 401.77 1747.99 383.27 1765.46 368.5C1780.5 355.31 1797.83 346.31 1817.46 341.5C1842.39 335.27 1867.73 331.94 1893.46 331.5C1924.13 330.99 1954.8 331.16 1985.46 332C1996.53 332.13 2007.53 331.63 2018.46 330.5C2018.96 330 2019.46 329.5 2019.96 329C2020.46 308 2020.63 287 2020.46 266ZM1923.46 346C1954.32 346.07 1985.32 346.24 2016.46 346.5C2017.89 346.97 2019.06 347.8 2019.96 349C2020.63 394.33 2020.63 439.67 2019.96 485C2017.36 494.2 2012.69 502.2 2005.96 509C1989.62 526.93 1969.79 539.43 1946.46 546.5C1913.2 557.02 1880.2 556.35 1847.46 544.5C1812.44 529.47 1792.61 502.97 1787.96 465C1782.45 424.22 1795.61 391.06 1827.46 365.5C1843.38 354.52 1861.05 348.52 1880.46 347.5C1894.97 347.33 1909.3 346.83 1923.46 346Z" fill="#E4B441"/>
<path opacity="0.959" fill-rule="evenodd" clip-rule="evenodd" d="M517.716 293.822C520.321 303.613 520.321 313.405 517.716 323.186C506.631 341.968 490.716 347.881 469.97 340.905C463.91 337.938 458.936 333.716 455.049 328.248C455.285 326.942 454.953 325.93 454.054 325.211C450.1 316.462 449.105 307.35 451.07 297.872C454.901 285.033 463.19 276.761 475.938 273.065C495.085 269.481 509.011 276.396 517.716 293.822Z" fill="#C39320"/>
<path opacity="0.024" fill-rule="evenodd" clip-rule="evenodd" d="M843.985 269.521C844.313 271.546 844.651 273.571 844.98 275.596C843.796 275.12 843.129 274.107 842.99 272.558C843.01 271.313 843.338 270.3 843.985 269.521Z" fill="#E4B441" fill-opacity="0.666667"/>
<path opacity="0.012" fill-rule="evenodd" clip-rule="evenodd" d="M844.98 277.621C845.517 279.261 845.845 280.942 845.975 282.684C844.831 282.39 844.164 281.55 843.985 280.152C844.015 279.069 844.343 278.229 844.98 277.621Z" fill="#E4B441"/>
<path opacity="0.255" fill-rule="evenodd" clip-rule="evenodd" d="M201.395 281.672C201.509 284.426 200.514 286.451 198.411 287.747C199.038 285.469 200.033 283.444 201.395 281.672Z" fill="#E4B441"/>
<path fill-rule="evenodd" clip-rule="evenodd" d="M479.917 285.722C498.173 284.901 506.96 293.67 506.277 312.047C502.045 324.927 493.259 330.496 479.917 328.754C468.014 323.935 462.874 314.994 464.499 301.922C467.169 293.974 472.309 288.577 479.917 285.722Z" fill="white"/>
<path opacity="0.2" fill-rule="evenodd" clip-rule="evenodd" d="M845.974 286.734C846.511 288.375 846.84 290.055 846.969 291.797C845.825 291.503 845.159 290.663 844.979 289.266C845.009 288.182 845.338 287.342 845.974 286.734Z" fill="#878787"/>
<path opacity="0.027" fill-rule="evenodd" clip-rule="evenodd" d="M227.258 287.747C226.992 290.248 226.329 292.607 225.268 294.835C224.728 294.774 224.397 294.44 224.273 293.822C224.906 291.514 225.901 289.489 227.258 287.747Z" fill="#E4B441"/>
<path opacity="0.376" fill-rule="evenodd" clip-rule="evenodd" d="M197.416 292.81C196.721 295.918 195.726 298.956 194.432 301.922C193.977 302.732 193.314 303.067 192.442 302.935C193.593 299.239 195.25 295.867 197.416 292.81Z" fill="#636363"/>
<path opacity="0.208" fill-rule="evenodd" clip-rule="evenodd" d="M225.268 295.847C224.604 297.194 223.942 298.551 223.278 299.897C222.131 299.077 222.131 298.065 223.278 296.86C223.733 296.05 224.396 295.716 225.268 295.847Z" fill="#E4B441"/>
<path opacity="0.99" fill-rule="evenodd" clip-rule="evenodd" d="M451.07 297.872C449.106 307.349 450.1 316.462 454.054 325.211C450.242 327.195 446.263 328.886 442.118 330.273C434.929 333.594 427.966 337.482 421.229 341.917C410.407 350.291 399.796 358.898 389.398 367.737C388.146 367.211 387.152 367.889 386.413 369.762C359.63 392.848 332.44 415.458 304.846 437.602C304.911 437.157 304.746 436.822 304.349 436.589C303.315 437.339 302.818 438.351 302.857 439.627C301.862 440.305 300.867 440.974 299.873 441.652C299.937 441.207 299.772 440.873 299.375 440.64C298.342 441.389 297.844 442.401 297.883 443.677C297.22 444.011 296.557 444.356 295.894 444.69C294.642 444.163 293.648 444.842 292.91 446.715C260.024 475.947 222.225 496.197 179.511 507.467C178.072 506.06 177.077 506.404 176.527 508.48C174.233 508.976 171.913 509.32 169.564 509.492C168.125 508.085 167.13 508.429 166.58 510.505C165.585 510.505 164.591 510.505 163.596 510.505C163.181 509.877 162.518 509.533 161.606 509.492C160.4 509.745 159.736 510.413 159.617 511.517C158.622 511.517 157.628 511.517 156.633 511.517C155.361 510.282 154.366 510.626 153.649 512.53C151.328 512.53 149.006 512.53 146.686 512.53C146.092 511.882 145.263 511.548 144.199 511.517C142.509 511.406 141.348 512.074 140.717 513.542C131.101 513.542 121.486 513.542 111.87 513.542C111.751 512.439 111.088 511.77 109.881 511.517C108.97 511.558 108.306 511.902 107.891 512.53C88.6974 511.355 69.7976 508.318 51.1924 503.417C60.6174 497.392 66.9179 488.948 70.0921 478.103C84.1206 485.677 99.0415 490.406 114.855 492.279C116.226 494.405 117.883 494.739 119.828 493.292C140.708 493.828 160.935 490.456 180.506 483.166C180.566 483.713 180.897 484.057 181.501 484.179C183.376 483.055 185.365 482.214 187.469 481.647C188.719 481.222 189.382 480.382 189.459 479.116C202.953 473.598 216.216 467.522 229.247 460.89C229.183 461.336 229.348 461.67 229.745 461.903C231.156 460.931 232.648 460.09 234.221 459.372C234.969 458.693 235.301 457.853 235.216 456.84C265.655 440.174 293.839 420.257 319.767 397.101C322.42 396.422 324.077 394.741 324.741 392.038C325.211 390.61 326.206 389.942 327.725 390.013C330.378 389.334 332.035 387.654 332.698 384.95C333.693 383.259 335.019 381.913 336.677 380.9C337.072 381.943 337.735 382.105 338.667 381.406C340.62 379.938 341.946 378.085 342.646 375.837C362.098 357.561 382.324 340.176 403.324 323.692C406.876 321.241 410.523 319.044 414.266 317.11C416.386 317.06 417.712 316.047 418.245 314.073C418.245 313.394 418.576 313.06 419.239 313.06C419.299 313.607 419.63 313.951 420.234 314.073C426.662 310.812 432.63 307.106 438.139 302.935C442.335 300.97 446.645 299.279 451.07 297.872Z" fill="#E4B441"/>
<path opacity="0.01" fill-rule="evenodd" clip-rule="evenodd" d="M846.969 297.872C847.298 299.897 847.636 301.922 847.964 303.947C846.78 303.471 846.114 302.459 845.975 300.91C845.995 299.664 846.323 298.652 846.969 297.872Z" fill="#7B7B7B"/>
<path opacity="0.663" fill-rule="evenodd" clip-rule="evenodd" d="M192.442 303.947C192.319 308.251 190.662 311.622 187.469 314.073C189.135 310.65 190.793 307.279 192.442 303.947Z" fill="#E4B441"/>
<path opacity="0.442" fill-rule="evenodd" clip-rule="evenodd" d="M438.139 302.935C432.63 307.106 426.662 310.812 420.234 314.072C419.63 313.951 419.299 313.607 419.239 313.06C425.382 309.425 431.682 306.053 438.139 302.935Z" fill="#E4B441"/>
<path opacity="0.027" fill-rule="evenodd" clip-rule="evenodd" d="M223.279 300.91C220.061 309.152 216.082 316.918 211.343 324.198C214.647 316.796 217.963 309.364 221.29 301.922C221.745 301.112 222.408 300.778 223.279 300.91Z" fill="#E4B441"/>
<path opacity="0.455" fill-rule="evenodd" clip-rule="evenodd" d="M418.245 314.072C417.712 316.047 416.386 317.059 414.266 317.11C415.197 315.621 416.524 314.609 418.245 314.072Z" fill="#E4B441"/>
<path opacity="0.954" fill-rule="evenodd" clip-rule="evenodd" d="M152.654 341.41C156.15 351.08 156.481 360.871 153.648 370.774C154.932 370.531 155.927 370.875 156.632 371.786C155.586 371.635 154.591 371.807 153.648 372.293C144.677 389.344 130.751 396.097 111.87 392.543C88.7586 383.461 80.966 366.754 88.494 342.423C99.3693 323.539 115.119 317.636 135.743 324.703C143.198 328.409 148.835 333.978 152.654 341.41Z" fill="#C39320"/>
<path opacity="0.729" fill-rule="evenodd" clip-rule="evenodd" d="M182.495 321.16C181.569 325.139 179.249 327.843 175.532 329.26C177.882 326.537 180.203 323.833 182.495 321.16Z" fill="#E4B441"/>
<path opacity="0.467" fill-rule="evenodd" clip-rule="evenodd" d="M454.054 325.211C454.953 325.93 455.284 326.942 455.049 328.249C450.712 328.765 446.401 329.433 442.117 330.274C446.262 328.886 450.241 327.196 454.054 325.211Z" fill="#E4B441"/>
<path opacity="0.055" fill-rule="evenodd" clip-rule="evenodd" d="M207.363 331.286C207.204 332.957 206.542 334.314 205.374 335.336C205.104 333.433 205.768 332.086 207.363 331.286Z" fill="#E4B441"/>
<path fill-rule="evenodd" clip-rule="evenodd" d="M115.849 336.349C134.106 335.528 142.893 344.297 142.21 362.674C137.978 375.554 129.192 381.123 115.849 379.381C103.947 374.562 98.8069 365.621 100.431 352.549C103.102 344.601 108.242 339.204 115.849 336.349Z" fill="white"/>
<path opacity="0.088" fill-rule="evenodd" clip-rule="evenodd" d="M205.374 335.336C204.945 336.561 204.281 337.574 203.385 338.374C203.171 336.672 203.834 335.66 205.374 335.336Z" fill="#E4B441"/>
<path opacity="0.086" fill-rule="evenodd" clip-rule="evenodd" d="M203.385 338.373C202.955 339.598 202.292 340.611 201.396 341.411C201.182 339.71 201.845 338.697 203.385 338.373Z" fill="#E4B441"/>
<path opacity="0.039" fill-rule="evenodd" clip-rule="evenodd" d="M201.395 341.411C201.063 342.424 200.4 343.102 199.405 343.436C199.405 342.09 200.069 341.411 201.395 341.411Z" fill="#E4B441"/>
<path opacity="0.573" fill-rule="evenodd" clip-rule="evenodd" d="M559.495 341.411C561.616 341.462 562.942 342.474 563.474 344.449C561.753 343.912 560.426 342.9 559.495 341.411Z" fill="#6F6F6F"/>
<path opacity="0.02" fill-rule="evenodd" clip-rule="evenodd" d="M195.427 348.499C193.768 352.215 191.116 354.908 187.469 356.599C189.789 353.562 192.442 350.858 195.427 348.499Z" fill="#E4B441"/>
<path opacity="0.212" fill-rule="evenodd" clip-rule="evenodd" d="M581.379 355.587C581.774 354.544 582.436 354.382 583.368 355.08C584.953 356.042 586.279 357.227 587.347 358.624C585.075 358.138 583.086 357.126 581.379 355.587Z" fill="#E4B441" fill-opacity="0.666667"/>
<path opacity="0.01" fill-rule="evenodd" clip-rule="evenodd" d="M589.336 360.649C589.396 360.102 589.727 359.758 590.331 359.637C592.764 360.67 594.421 362.36 595.304 364.699C593.315 363.353 591.325 361.996 589.336 360.649Z" fill="#E4B441"/>
<path opacity="0.01" fill-rule="evenodd" clip-rule="evenodd" d="M184.485 359.637C180.17 362.846 175.528 365.55 170.559 367.737C170.429 366.846 170.76 366.178 171.554 365.712C175.939 363.737 180.084 361.368 183.988 358.624C184.384 358.857 184.55 359.191 184.485 359.637Z" fill="#E4B441"/>
<path opacity="0.088" fill-rule="evenodd" clip-rule="evenodd" d="M389.397 367.736C388.927 369.164 387.932 369.832 386.413 369.761C387.151 367.888 388.146 367.21 389.397 367.736Z" fill="#E4B441"/>
<path opacity="0.463" fill-rule="evenodd" clip-rule="evenodd" d="M652.004 370.774C654.195 370.876 656.185 371.554 657.972 372.799C655.8 373.417 653.81 372.739 652.004 370.774Z" fill="#E4B441"/>
<path opacity="0.237" fill-rule="evenodd" clip-rule="evenodd" d="M658.967 373.812C662.119 375.25 665.103 376.931 667.92 378.875C667.984 379.321 667.819 379.655 667.422 379.888C665.014 378.409 662.527 377.063 659.962 375.838C659.168 375.372 658.837 374.704 658.967 373.812Z" fill="#E4B441" fill-opacity="0.666667"/>
<path opacity="0.173" fill-rule="evenodd" clip-rule="evenodd" d="M342.645 375.837C341.946 378.085 340.62 379.938 338.666 381.406C337.734 382.105 337.072 381.943 336.677 380.9C338.641 379.239 340.631 377.558 342.645 375.837Z" fill="#E4B441"/>
<path opacity="0.047" fill-rule="evenodd" clip-rule="evenodd" d="M669.909 378.875C672.148 380.08 674.47 381.092 676.872 381.913C676.813 382.459 676.481 382.804 675.878 382.925C674.589 382.318 673.263 381.811 671.899 381.406C670.649 380.981 669.986 380.141 669.909 378.875Z" fill="#E4B441"/>
<path opacity="0.682" fill-rule="evenodd" clip-rule="evenodd" d="M332.698 384.95C332.035 387.654 330.378 389.334 327.725 390.013C329.051 387.988 330.709 386.297 332.698 384.95Z" fill="#606060"/>
<path opacity="0.69" fill-rule="evenodd" clip-rule="evenodd" d="M324.74 392.038C324.077 394.742 322.42 396.422 319.767 397.101C321.093 395.076 322.751 393.385 324.74 392.038Z" fill="#5E5E5E"/>
<path opacity="0.898" fill-rule="evenodd" clip-rule="evenodd" d="M819.117 393.051C819.734 393.476 820.072 394.144 820.112 395.076C819.246 399.531 817.913 403.581 816.133 407.226C816.879 402.417 817.874 397.698 819.117 393.051Z" fill="#E4B441"/>
<path opacity="0.665" fill-rule="evenodd" clip-rule="evenodd" d="M652.998 397.101C657.471 397.85 661.119 399.875 663.94 403.176C660.098 401.394 656.452 399.369 652.998 397.101Z" fill="#E4B441"/>
<path opacity="0.133" fill-rule="evenodd" clip-rule="evenodd" d="M688.809 411.276C690.081 410.04 691.076 410.385 691.793 412.288C690.69 412.227 689.695 411.893 688.809 411.276Z" fill="#727272"/>
<path opacity="0.259" fill-rule="evenodd" clip-rule="evenodd" d="M695.771 412.288C703.066 412.288 710.361 412.288 717.655 412.288C710.361 413.635 703.066 413.635 695.771 412.288Z" fill="#E4B441" fill-opacity="0.8"/>
<path opacity="0.145" fill-rule="evenodd" clip-rule="evenodd" d="M812.154 429.502C813.497 431.152 813.169 432.499 811.159 433.552C811.487 432.205 811.826 430.849 812.154 429.502Z" fill="#E4B441"/>
<path opacity="0.957" fill-rule="evenodd" clip-rule="evenodd" d="M70.0918 478.104C66.9177 488.948 60.6171 497.393 51.1921 503.417C26.9956 511.923 10.2514 504.167 0.958728 480.129C-2.47803 462.237 3.32517 448.568 18.3663 439.121C38.5025 430.768 54.5841 435.658 66.6103 453.803C69.7427 461.569 70.9035 469.669 70.0918 478.104Z" fill="#C39321"/>
<path opacity="0.01" fill-rule="evenodd" clip-rule="evenodd" d="M304.846 437.602C304.515 438.615 303.851 439.293 302.857 439.627C302.818 438.352 303.315 437.339 304.349 436.59C304.746 436.823 304.911 437.157 304.846 437.602Z" fill="#E4B441"/>
<path opacity="0.969" fill-rule="evenodd" clip-rule="evenodd" d="M685.824 633.021C686.034 634.965 686.697 635.309 687.814 634.033C704.912 634.651 719.502 628.91 731.582 616.82C738.655 638.316 753.245 647.429 775.349 644.159C773.559 650.963 771.569 657.716 769.381 664.409C768.506 664.278 767.849 664.612 767.392 665.422C766.248 666.627 766.248 667.639 767.392 668.46C767.392 669.138 767.063 669.472 766.397 669.472C761.523 678.939 757.216 688.73 753.466 698.836C751.649 703.878 749.328 708.607 746.502 713.011C742.901 716.626 740.58 721.01 739.539 726.174C736.97 727.673 735.644 730.042 735.561 733.262C735.732 734.264 735.399 734.943 734.566 735.287C732.337 736.097 731.342 737.788 731.582 740.35C730.042 740.674 729.378 741.686 729.592 743.387C729.763 744.39 729.431 745.068 728.597 745.412C727.058 745.736 726.394 746.749 726.608 748.45C714.031 768.994 699.773 788.232 683.835 806.164C679.79 809.263 676.475 812.979 673.888 817.302C673.548 818.153 672.885 818.487 671.898 818.315C668.616 819.945 665.3 821.626 661.951 823.378C661.157 823.843 660.826 824.512 660.956 825.403C646.746 829.291 633.151 827.772 620.173 820.846C618.066 819.783 616.409 818.264 615.199 816.29C613.541 813.931 611.552 811.905 609.231 810.215C601.203 801.648 594.903 791.857 590.331 780.851C589.469 777.398 588.309 774.027 586.85 770.726C586.354 768.66 585.193 767.303 583.368 766.675C583.368 765.997 583.368 765.329 583.368 764.65C583.136 761.572 582.142 758.869 580.384 756.55C577.103 750.596 574.783 744.177 573.421 737.312C574.747 734.963 574.083 733.272 571.432 732.249C570.896 730.609 570.565 728.928 570.437 727.187C571.031 726.944 571.362 726.437 571.432 725.668C571.235 723.46 570.24 721.942 568.447 721.111C568.447 720.433 568.447 719.765 568.447 719.086C569.698 717.952 569.366 717.274 567.453 717.061C567.453 716.383 567.453 715.715 567.453 715.036C568.703 713.902 568.372 713.224 566.458 713.011C566.458 712.333 566.458 711.664 566.458 710.986C567.708 709.852 567.377 709.174 565.463 708.961C565.335 707.219 565.004 705.539 564.468 703.898C565.089 703.473 565.42 702.805 565.463 701.873C565.218 700.648 564.554 699.97 563.474 699.848C563.474 699.514 563.474 699.17 563.474 698.836C564.851 697.367 564.52 696.355 562.479 695.798C562.479 695.464 562.479 695.12 562.479 694.785C563.857 693.317 563.525 692.305 561.484 691.748C561.484 691.414 561.484 691.069 561.484 690.735C562.862 689.267 562.531 688.255 560.49 687.698C560.49 687.364 560.49 687.019 560.49 686.685C561.867 685.217 561.536 684.204 559.495 683.648C559.495 683.313 559.495 682.969 559.495 682.635C560.821 680.286 560.157 678.595 557.505 677.572C557.505 677.238 557.505 676.894 557.505 676.56C558.099 676.317 558.431 675.811 558.5 675.041C557.533 672.905 556.705 670.707 556.013 668.46C555.518 666.394 554.357 665.037 552.532 664.409C551.266 662.172 550.271 659.802 549.548 657.322C549.255 654.031 547.929 651.327 545.569 649.221C544.834 649.353 544.17 649.181 543.579 648.715C544.672 647.935 544.672 647.095 543.579 646.184C543.652 644.635 542.988 643.622 541.59 643.146C534.085 633.649 524.801 631.451 513.738 636.565C509.717 638.61 506.069 641.141 502.796 644.159C501.397 644.635 500.734 645.647 500.806 647.196C498.35 648.32 497.356 650.345 497.822 653.271C496.984 657.696 495.989 662.091 494.838 666.434C492.966 667.163 492.635 668.176 493.843 669.472C487.687 692.497 481.221 715.441 474.446 738.324C467.332 756.348 461.198 772.376 456.044 786.42C454.859 787.129 453.864 787.969 453.06 788.951C451.661 789.427 450.998 790.44 451.07 791.989C451.284 793.69 450.621 794.702 449.081 795.026C447.485 795.826 446.822 797.173 447.091 799.077C446.76 799.077 446.428 799.077 446.097 799.077C441.513 803.906 436.705 808.635 431.673 813.252C431.212 813.85 431.046 814.528 431.176 815.277C429.068 817.201 426.746 818.892 424.213 820.34C424.153 819.793 423.822 819.449 423.218 819.327C420.235 820.32 417.914 822 416.255 824.39C413.702 825.382 411.05 826.051 408.297 826.415C404.65 825.068 401.003 825.068 397.355 826.415C383.526 823.084 372.253 815.662 363.535 804.139C360.551 800.423 357.235 797.052 353.588 794.014C350.042 789.852 346.727 785.458 343.64 780.851C343.713 779.302 343.05 778.289 341.651 777.813C333.88 769.217 325.26 761.795 315.788 755.538C329.111 755.507 339.722 750.11 347.619 739.337C348.349 740.562 348.681 741.909 348.614 743.387C348.074 743.448 347.743 743.782 347.619 744.4C348.321 747.883 349.978 750.586 352.593 752.5C352.379 754.201 353.042 755.214 354.582 755.538C354.172 758.039 355.167 759.395 357.566 759.588C357.436 762.494 358.763 764.175 361.545 764.65C362.209 764.65 362.54 764.985 362.54 765.663C362.13 768.164 363.125 769.521 365.524 769.713C366.188 769.713 366.519 770.047 366.519 770.726C366.293 773.186 367.288 774.877 369.503 775.788C370.167 775.788 370.498 776.122 370.498 776.801C371.075 779.079 372.401 780.77 374.477 781.864C378.951 786.248 383.593 790.47 388.403 794.52C401.391 802.226 412.499 800.028 421.726 787.939C428.544 779.454 434.346 770.341 439.134 760.6C441.455 758.899 442.45 756.54 442.118 753.513C449.207 731.237 455.175 708.961 460.023 686.685C461.014 686.716 461.678 686.209 462.012 685.166C463.114 683.465 463.114 681.946 462.012 680.61C462.141 678.868 462.472 677.188 463.007 675.547C465.148 673.654 466.475 671.122 466.986 667.953C466.916 667.184 466.585 666.677 465.991 666.434C465.991 666.1 465.991 665.756 465.991 665.422C466.983 665.452 467.646 664.946 467.981 663.903C470.546 655.894 473.199 647.966 475.938 640.108C475.767 639.106 476.099 638.428 476.933 638.083C478.961 636.656 479.956 634.631 479.917 632.008C482.146 631.198 483.141 629.507 482.901 626.946C486.907 623.543 490.555 619.827 493.843 615.808C493.843 615.129 494.175 614.795 494.838 614.795C494.898 615.342 495.229 615.686 495.833 615.808C499.462 614.491 502.447 612.466 504.785 609.732C512.526 607.191 520.484 606.178 528.659 606.695C528.868 608.639 529.531 608.983 530.648 607.707C538.6 608.72 545.563 611.919 551.537 617.326C563.53 627.32 572.152 639.643 577.4 654.284C577.825 657.2 578.488 660.066 579.389 662.891C579.724 663.933 580.387 664.44 581.379 664.409C581.379 664.743 581.379 665.088 581.379 665.422C580.17 666.718 580.501 667.73 582.373 668.46C582.373 668.794 582.373 669.138 582.373 669.472C581.78 669.715 581.448 670.221 581.379 670.991C581.576 673.198 582.57 674.717 584.363 675.547C585.182 678.544 585.845 681.582 586.352 684.66C585.102 685.794 585.433 686.473 587.347 686.685C588.166 689.682 588.829 692.72 589.337 695.798C588.086 696.932 588.417 697.61 590.331 697.823C590.331 698.157 590.331 698.501 590.331 698.836C589.737 699.079 589.406 699.585 589.337 700.354C590.367 703.159 591.196 706.035 591.823 708.961C592.058 710.601 592.887 711.614 594.31 711.999C594.31 712.677 594.31 713.345 594.31 714.024C593.3 714.996 593.3 716.18 594.31 717.567C594.644 718.61 595.308 719.117 596.3 719.086C596.3 719.765 596.3 720.433 596.3 721.111C595.29 722.083 595.29 723.268 596.3 724.655C596.634 725.698 597.297 726.204 598.289 726.174C598.289 726.508 598.289 726.852 598.289 727.187C596.911 728.655 597.243 729.667 599.284 730.224C599.284 730.558 599.284 730.903 599.284 731.237C598.69 731.48 598.359 731.986 598.289 732.756C598.486 734.963 599.481 736.482 601.273 737.312C601.273 737.646 601.273 737.99 601.273 738.324C600.679 738.567 600.348 739.074 600.278 739.843C600.475 742.051 601.47 743.569 603.263 744.4C603.263 744.734 603.263 745.078 603.263 745.412C602.669 745.655 602.338 746.162 602.268 746.931C602.465 749.138 603.46 750.657 605.252 751.487C605.252 751.822 605.252 752.166 605.252 752.5C604.658 752.743 604.327 753.249 604.257 754.019C604.454 756.226 605.449 757.745 607.241 758.575C607.241 758.909 607.241 759.254 607.241 759.588C606.648 759.831 606.316 760.337 606.247 761.107C606.444 763.314 607.438 764.833 609.231 765.663C609.231 765.997 609.231 766.341 609.231 766.675C608.691 766.736 608.36 767.07 608.236 767.688C608.613 769.419 609.608 770.432 611.22 770.726C611.22 771.06 611.22 771.404 611.22 771.738C610.255 773.216 610.586 774.573 612.215 775.788C624.616 798.429 642.189 802.651 664.935 788.445C671.329 783.97 677.132 778.735 682.343 772.751C687.173 765.592 691.981 758.504 696.766 751.487C698.507 750.313 699.502 748.622 699.751 746.425C701.491 745.25 702.486 743.559 702.735 741.362C704.475 740.188 705.47 738.497 705.719 736.299C709.527 727.865 713.838 719.765 718.65 711.999C723.582 705.67 727.229 698.582 729.592 690.735C734.436 684.923 737.752 678.17 739.539 670.485C740.8 668.176 741.794 665.645 742.524 662.891C742.454 662.121 742.123 661.615 741.529 661.372C742.106 657.008 742.438 652.623 742.524 648.209C733.358 651.378 724.074 654.244 714.671 656.815C692.073 662.232 671.184 658.182 652.004 644.665C638.663 632.444 627.555 618.43 618.681 602.645C604.131 576.066 590.371 549.061 577.4 521.642C577.614 519.941 576.95 518.928 575.41 518.604C575.65 516.042 574.655 514.352 572.426 513.542C562.1 496.106 548.505 481.768 531.643 470.509C508.885 466.54 490.152 473.789 475.441 492.278C469.11 500.237 462.644 507.993 456.044 515.567C453.968 516.66 452.642 518.351 452.065 520.629C450.312 521.399 449.318 522.756 449.081 524.679C448.417 526.026 447.423 527.039 446.097 527.717C444.344 528.487 443.349 529.843 443.112 531.767C431.556 546.57 419.288 560.746 406.308 574.294C401.003 579.022 396.029 584.085 391.387 589.482C355.321 624.677 312.216 642.225 262.073 642.134C263.124 638.418 264.284 634.712 265.555 630.996C266.051 625.943 266.217 620.88 266.052 615.808C297.726 614.117 327.236 605.176 354.582 588.975C362.084 582.515 369.71 576.268 377.461 570.244C382.766 566.872 387.077 562.477 390.392 557.081C391.056 555.734 392.05 554.721 393.376 554.043C395.778 552.615 397.436 550.59 398.35 547.968C398.277 546.419 398.941 545.406 400.339 544.93C403.767 543.806 405.757 541.437 406.308 537.842C406.971 536.496 407.966 535.483 409.292 534.805C412.72 533.681 414.709 531.312 415.26 527.717C415.592 526.704 416.255 526.026 417.25 525.692C419.903 525.014 421.56 523.333 422.223 520.629C423.882 518.27 425.871 516.245 428.192 514.554C430.268 513.461 431.594 511.77 432.171 509.491C435.778 504.135 440.089 499.407 445.102 495.316C447.178 494.222 448.504 492.531 449.081 490.253C450.076 488.562 451.402 487.216 453.06 486.203C454.458 485.727 455.122 484.715 455.049 483.165C457.039 480.462 459.359 478.103 462.012 476.078C464.088 474.984 465.414 473.293 465.991 471.015C467.317 468.99 468.975 467.299 470.965 465.952C475.67 462.176 479.649 457.791 482.901 452.789C482.901 452.111 483.233 451.777 483.896 451.777C485.718 453.012 486.713 452.334 486.88 449.752C487.211 449.752 487.544 449.752 487.875 449.752C490.182 449.256 492.171 448.243 493.843 446.714C517.137 434.179 539.021 436.366 559.495 453.296C574.775 467.724 587.54 484.097 597.792 502.404C609.297 522.786 618.913 544.049 626.639 566.193C635.673 586.171 647.774 603.89 662.946 619.352C670.005 624.971 677.631 629.527 685.824 633.021Z" fill="#E4B441"/>
<path opacity="0.01" fill-rule="evenodd" clip-rule="evenodd" d="M299.872 441.652C299.541 442.665 298.878 443.343 297.883 443.677C297.844 442.401 298.342 441.389 299.375 440.64C299.772 440.873 299.937 441.207 299.872 441.652Z" fill="#A2A2A2"/>
<path opacity="0.01" fill-rule="evenodd" clip-rule="evenodd" d="M295.893 444.689C295.423 446.117 294.428 446.785 292.909 446.714C293.647 444.841 294.642 444.163 295.893 444.689Z" fill="#848484"/>
<path opacity="0.404" fill-rule="evenodd" clip-rule="evenodd" d="M493.843 446.715C492.171 448.244 490.182 449.257 487.875 449.753C489.279 447.687 491.268 446.675 493.843 446.715Z" fill="#787878"/>
<path fill-rule="evenodd" clip-rule="evenodd" d="M30.3035 449.753C48.5596 448.933 57.347 457.701 56.6636 476.079C52.4321 488.958 43.6457 494.527 30.3035 492.786C18.4007 487.966 13.261 479.025 14.8853 465.953C17.5562 458.005 22.6959 452.608 30.3035 449.753Z" fill="white"/>
<path opacity="0.549" fill-rule="evenodd" clip-rule="evenodd" d="M486.88 449.752C486.713 452.334 485.718 453.012 483.896 451.777C484.89 451.099 485.885 450.43 486.88 449.752Z" fill="#E4B441"/>
<path opacity="0.102" fill-rule="evenodd" clip-rule="evenodd" d="M808.175 450.765C809.389 452.061 809.051 453.073 807.181 453.802C807.24 452.678 807.569 451.666 808.175 450.765Z" fill="#E4B441"/>
<path opacity="0.106" fill-rule="evenodd" clip-rule="evenodd" d="M807.18 455.827C808.394 457.123 808.056 458.136 806.186 458.865C806.245 457.741 806.573 456.728 807.18 455.827Z" fill="#E4B441"/>
<path opacity="0.69" fill-rule="evenodd" clip-rule="evenodd" d="M235.215 456.84C235.301 457.852 234.969 458.693 234.221 459.371C232.648 460.09 231.156 460.93 229.744 461.903C229.348 461.67 229.182 461.336 229.247 460.89C231.2 459.553 233.189 458.207 235.215 456.84Z" fill="#E4B441"/>
<path opacity="0.604" fill-rule="evenodd" clip-rule="evenodd" d="M482.901 452.79C479.649 457.792 475.67 462.176 470.965 465.953C474.218 460.951 478.196 456.567 482.901 452.79Z" fill="#666666"/>
<path opacity="0.82" fill-rule="evenodd" clip-rule="evenodd" d="M805.191 464.94C806.404 468.008 805.738 470.712 803.201 473.041C803.738 470.287 804.405 467.583 805.191 464.94Z" fill="#E4B441"/>
<path opacity="0.51" fill-rule="evenodd" clip-rule="evenodd" d="M465.991 471.016C465.414 473.294 464.088 474.985 462.012 476.078C462.589 473.8 463.915 472.109 465.991 471.016Z" fill="#E4B441"/>
<path opacity="0.855" fill-rule="evenodd" clip-rule="evenodd" d="M189.458 479.116C189.382 480.382 188.718 481.222 187.469 481.648C185.365 482.215 183.376 483.055 181.501 484.179C180.897 484.057 180.566 483.713 180.506 483.166C183.309 481.577 186.293 480.22 189.458 479.116Z" fill="#E4B441"/>
<path opacity="0.271" fill-rule="evenodd" clip-rule="evenodd" d="M802.207 479.116C802.804 479.359 803.132 479.865 803.202 480.635C802.465 483.146 801.799 485.677 801.212 488.229C800.963 489.454 800.307 490.133 799.223 490.254C800.068 486.477 801.063 482.771 802.207 479.116Z" fill="#E4B441"/>
<path opacity="0.549" fill-rule="evenodd" clip-rule="evenodd" d="M455.049 483.166C455.121 484.715 454.458 485.728 453.059 486.204C452.986 484.654 453.65 483.642 455.049 483.166Z" fill="#E4B441"/>
<path opacity="0.741" fill-rule="evenodd" clip-rule="evenodd" d="M114.854 492.279C116.637 492.147 118.294 492.481 119.828 493.291C117.883 494.739 116.226 494.405 114.854 492.279Z" fill="#E4B441"/>
<path opacity="0.588" fill-rule="evenodd" clip-rule="evenodd" d="M449.08 490.254C448.504 492.532 447.178 494.223 445.102 495.317C445.679 493.038 447.004 491.347 449.08 490.254Z" fill="#E4B441"/>
<path opacity="0.518" fill-rule="evenodd" clip-rule="evenodd" d="M799.223 492.279C800.367 494.72 799.7 496.745 797.233 498.355C797.611 496.127 798.268 494.102 799.223 492.279Z" fill="#E4B441"/>
<path opacity="0.396" fill-rule="evenodd" clip-rule="evenodd" d="M797.233 499.366C798.447 500.662 798.108 501.675 796.238 502.404C796.298 501.28 796.626 500.267 797.233 499.366Z" fill="#6F6F6F"/>
<path opacity="0.01" fill-rule="evenodd" clip-rule="evenodd" d="M179.512 507.467C178.625 508.084 177.63 508.418 176.527 508.479C177.077 506.403 178.072 506.059 179.512 507.467Z" fill="#E4B441"/>
<path opacity="0.482" fill-rule="evenodd" clip-rule="evenodd" d="M796.238 503.417C797.343 504.754 797.343 506.272 796.238 507.973C795.9 509.016 795.244 509.523 794.249 509.492C794.915 507.467 795.572 505.442 796.238 503.417Z" fill="#E4B441"/>
<path opacity="0.043" fill-rule="evenodd" clip-rule="evenodd" d="M169.564 509.492C168.678 510.11 167.683 510.444 166.58 510.505C167.13 508.429 168.125 508.085 169.564 509.492Z" fill="#E4B441"/>
<path opacity="0.035" fill-rule="evenodd" clip-rule="evenodd" d="M163.596 510.505C162.394 511.244 161.068 511.588 159.617 511.517C159.737 510.414 160.4 509.745 161.607 509.492C162.518 509.533 163.181 509.877 163.596 510.505Z" fill="#E4B441"/>
<path opacity="0.01" fill-rule="evenodd" clip-rule="evenodd" d="M156.633 511.517C155.746 512.134 154.752 512.469 153.648 512.529C154.366 510.626 155.36 510.281 156.633 511.517Z" fill="#E4B441"/>
<path opacity="0.027" fill-rule="evenodd" clip-rule="evenodd" d="M111.87 513.542C110.28 513.815 108.954 513.471 107.892 512.529C108.306 511.901 108.97 511.557 109.881 511.517C111.088 511.77 111.751 512.438 111.87 513.542Z" fill="#8A8A8A"/>
<path opacity="0.01" fill-rule="evenodd" clip-rule="evenodd" d="M146.685 512.529C144.76 513.187 142.771 513.522 140.717 513.542C141.347 512.074 142.508 511.405 144.198 511.517C145.263 511.547 146.091 511.881 146.685 512.529Z" fill="#E4B441"/>
<path opacity="0.58" fill-rule="evenodd" clip-rule="evenodd" d="M432.17 509.492C431.593 511.77 430.267 513.461 428.191 514.555C428.768 512.277 430.094 510.586 432.17 509.492Z" fill="#545454"/>
<path opacity="0.506" fill-rule="evenodd" clip-rule="evenodd" d="M794.249 510.505C795.631 511.973 795.293 512.986 793.254 513.542C793.861 512.641 794.189 511.629 794.249 510.505Z" fill="#E4B441"/>
<path opacity="0.502" fill-rule="evenodd" clip-rule="evenodd" d="M572.426 513.542C574.655 514.352 575.65 516.043 575.41 518.605C574.179 517.126 573.185 515.435 572.426 513.542Z" fill="#E4B441"/>
<path opacity="0.078" fill-rule="evenodd" clip-rule="evenodd" d="M456.043 515.567C455.466 517.846 454.14 519.537 452.064 520.63C452.641 518.352 453.967 516.661 456.043 515.567Z" fill="#E4B441"/>
<path opacity="0.01" fill-rule="evenodd" clip-rule="evenodd" d="M575.41 518.604C576.95 518.929 577.613 519.941 577.4 521.642C576.503 520.842 575.84 519.83 575.41 518.604Z" fill="#E4B441"/>
<path opacity="0.02" fill-rule="evenodd" clip-rule="evenodd" d="M452.065 520.63C451.828 522.554 450.834 523.91 449.081 524.68C449.318 522.756 450.313 521.399 452.065 520.63Z" fill="#E4B441"/>
<path opacity="0.537" fill-rule="evenodd" clip-rule="evenodd" d="M792.26 518.604C793.364 519.941 793.364 521.46 792.26 523.161C791.922 524.204 791.265 524.71 790.271 524.68C790.937 522.655 791.593 520.63 792.26 518.604Z" fill="#666666"/>
<path opacity="0.404" fill-rule="evenodd" clip-rule="evenodd" d="M422.224 520.63C421.56 523.333 419.903 525.014 417.25 525.693C418.576 523.667 420.234 521.977 422.224 520.63Z" fill="#E4B441"/>
<path opacity="0.035" fill-rule="evenodd" clip-rule="evenodd" d="M446.096 527.718C445.86 529.642 444.865 530.998 443.112 531.768C443.349 529.844 444.344 528.487 446.096 527.718Z" fill="#E4B441" fill-opacity="0.537255"/>
<path opacity="0.467" fill-rule="evenodd" clip-rule="evenodd" d="M789.276 529.743C790.529 530.877 790.191 531.556 788.281 531.768C788.112 530.766 788.441 530.087 789.276 529.743Z" fill="#E4B441"/>
<path opacity="0.478" fill-rule="evenodd" clip-rule="evenodd" d="M415.26 527.718C414.709 531.312 412.72 533.682 409.292 534.806C411.056 532.213 413.045 529.854 415.26 527.718Z" fill="#E4B441" fill-opacity="0.486275"/>
<path opacity="0.671" fill-rule="evenodd" clip-rule="evenodd" d="M788.28 532.78C789.385 534.117 789.385 535.636 788.28 537.337C787.942 538.38 787.286 538.886 786.291 538.855C786.759 536.749 787.425 534.724 788.28 532.78Z" fill="#E4B441"/>
<path opacity="0.196" fill-rule="evenodd" clip-rule="evenodd" d="M786.292 539.868C787.545 541.002 787.207 541.681 785.297 541.893C785.128 540.891 785.456 540.212 786.292 539.868Z" fill="#8E8E8E"/>
<path opacity="0.525" fill-rule="evenodd" clip-rule="evenodd" d="M406.307 537.843C405.756 541.437 403.767 543.807 400.339 544.931C402.357 542.541 404.347 540.182 406.307 537.843Z" fill="#7B7B7B"/>
<path opacity="0.502" fill-rule="evenodd" clip-rule="evenodd" d="M398.35 547.969C397.435 550.591 395.777 552.616 393.376 554.044C394.29 551.421 395.948 549.396 398.35 547.969Z" fill="#E4B441"/>
<path opacity="0.4" fill-rule="evenodd" clip-rule="evenodd" d="M785.296 542.905C785.893 543.148 786.222 543.655 786.291 544.424C784.63 549.487 782.979 554.549 781.318 559.612C780.979 560.655 780.323 561.161 779.328 561.131C781.318 555.056 783.307 548.98 785.296 542.905Z" fill="#E4B441"/>
<path opacity="0.651" fill-rule="evenodd" clip-rule="evenodd" d="M390.392 557.081C387.077 562.478 382.766 566.872 377.461 570.244C381.44 565.515 385.75 561.131 390.392 557.081Z" fill="#E4B441"/>
<path opacity="0.282" fill-rule="evenodd" clip-rule="evenodd" d="M779.328 563.156C779.865 563.217 780.203 563.551 780.323 564.169C779.467 566.609 778.144 568.634 776.344 570.244C777.1 567.692 778.094 565.333 779.328 563.156Z" fill="#E4B441"/>
<path opacity="0.97" fill-rule="evenodd" clip-rule="evenodd" d="M772.365 573.282C782.292 576.968 790.578 583.043 797.233 591.508C806.374 613.358 801.073 630.399 781.317 642.641C779.388 643.461 777.398 643.967 775.349 644.16C753.244 647.43 738.655 638.317 731.581 616.821C730.565 588.156 744.16 573.637 772.365 573.282Z" fill="#C29321"/>
<path opacity="0.225" fill-rule="evenodd" clip-rule="evenodd" d="M406.308 574.294C402.329 580.369 397.355 585.432 391.387 589.482C396.029 584.085 401.003 579.022 406.308 574.294Z" fill="#E4B441"/>
<path opacity="0.953" fill-rule="evenodd" clip-rule="evenodd" d="M266.051 615.808C266.216 620.881 266.05 625.944 265.554 630.996C264.283 634.712 263.123 638.418 262.072 642.134C250.659 658.659 235.406 663.559 216.315 656.816C196.97 644.989 191.499 628.283 199.902 606.695C209.186 591.386 222.615 585.483 240.188 588.976C253.675 593.087 262.296 602.027 266.051 615.808Z" fill="#C39320"/>
<path fill-rule="evenodd" clip-rule="evenodd" d="M761.424 588.47C779.677 587.649 788.47 596.418 787.784 614.796C783.556 627.675 774.763 633.244 761.424 631.502C749.521 626.683 744.381 617.742 746.005 604.67C748.676 596.722 753.816 591.325 761.424 588.47Z" fill="white"/>
<path fill-rule="evenodd" clip-rule="evenodd" d="M225.268 601.633C243.524 600.813 252.312 609.581 251.628 627.959C247.397 640.838 238.611 646.407 225.268 644.665C213.366 639.846 208.226 630.905 209.85 617.833C212.521 609.885 217.661 604.488 225.268 601.633Z" fill="white"/>
<path opacity="0.235" fill-rule="evenodd" clip-rule="evenodd" d="M528.658 606.696C529.645 606.524 530.307 606.858 530.648 607.709C529.531 608.985 528.868 608.64 528.658 606.696Z" fill="#E4B441"/>
<path opacity="0.19" fill-rule="evenodd" clip-rule="evenodd" d="M493.346 616.314C490.058 620.334 486.41 624.05 482.404 627.452C485.057 622.724 488.704 619.018 493.346 616.314Z" fill="#E4B441"/>
<path opacity="0.098" fill-rule="evenodd" clip-rule="evenodd" d="M482.901 626.946C483.141 629.508 482.146 631.199 479.917 632.009C480.524 630.055 481.518 628.364 482.901 626.946Z" fill="#E4B441"/>
<path opacity="0.502" fill-rule="evenodd" clip-rule="evenodd" d="M685.824 633.021C686.811 632.849 687.473 633.183 687.814 634.034C686.697 635.31 686.034 634.965 685.824 633.021Z" fill="#E4B441"/>
<path opacity="0.184" fill-rule="evenodd" clip-rule="evenodd" d="M479.917 632.009C479.956 634.631 478.961 636.656 476.933 638.084C477.422 635.735 478.417 633.71 479.917 632.009Z" fill="#8E8E8E"/>
<path opacity="0.012" fill-rule="evenodd" clip-rule="evenodd" d="M502.796 644.159C502.868 645.708 502.205 646.721 500.806 647.197C500.734 645.648 501.397 644.635 502.796 644.159Z" fill="#E4B441"/>
<path opacity="0.149" fill-rule="evenodd" clip-rule="evenodd" d="M541.589 643.146C542.988 643.622 543.651 644.635 543.579 646.184C542.18 645.708 541.517 644.696 541.589 643.146Z" fill="#717171"/>
<path opacity="0.431" fill-rule="evenodd" clip-rule="evenodd" d="M500.806 647.197C499.803 649.263 498.808 651.288 497.822 653.272C497.355 650.346 498.35 648.321 500.806 647.197Z" fill="#606060"/>
<path opacity="0.249" fill-rule="evenodd" clip-rule="evenodd" d="M475.938 640.109C473.199 647.967 470.546 655.895 467.981 663.904C467.646 664.947 466.983 665.453 465.991 665.423C468.545 656.604 471.86 648.159 475.938 640.109Z" fill="#E4B441"/>
<path opacity="0.137" fill-rule="evenodd" clip-rule="evenodd" d="M545.568 649.222C547.929 651.328 549.255 654.031 549.547 657.322C547.187 655.216 545.861 652.512 545.568 649.222Z" fill="#E4B441" fill-opacity="0.486275"/>
<path opacity="0.341" fill-rule="evenodd" clip-rule="evenodd" d="M577.399 654.284C579.293 657.352 580.62 660.734 581.378 664.41C580.387 664.44 579.723 663.934 579.389 662.891C578.488 660.066 577.824 657.2 577.399 654.284Z" fill="#E4B441"/>
<path opacity="0.467" fill-rule="evenodd" clip-rule="evenodd" d="M581.379 665.423C581.986 666.324 582.317 667.337 582.374 668.46C580.502 667.731 580.171 666.719 581.379 665.423Z" fill="#E4B441"/>
<path opacity="0.176" fill-rule="evenodd" clip-rule="evenodd" d="M552.531 664.41C554.357 665.038 555.517 666.395 556.013 668.46C556.704 670.708 557.533 672.905 558.5 675.042C558.43 675.811 558.099 676.318 557.505 676.561C555.847 672.51 554.189 668.46 552.531 664.41Z" fill="#E4B441"/>
<path opacity="0.059" fill-rule="evenodd" clip-rule="evenodd" d="M769.382 664.41C768.715 665.756 768.059 667.113 767.392 668.46C766.248 667.64 766.248 666.627 767.392 665.422C767.85 664.612 768.506 664.278 769.382 664.41Z" fill="#E4B441"/>
<path opacity="0.478" fill-rule="evenodd" clip-rule="evenodd" d="M494.838 666.436C494.781 667.559 494.45 668.572 493.843 669.473C492.635 668.177 492.966 667.165 494.838 666.436Z" fill="#E4B441"/>
<path opacity="0.929" fill-rule="evenodd" clip-rule="evenodd" d="M2200.46 661C2203.23 660.72 2205.73 661.39 2207.96 663C2208.63 695.33 2208.63 727.67 2207.96 760C2205.46 761.98 2202.63 762.48 2199.46 761.5C2198.26 760.6 2197.43 759.43 2196.96 758C2196.29 727.33 2196.29 696.67 2196.96 666C2197.22 663.59 2198.38 661.93 2200.46 661Z" fill="#E4B441"/>
<path opacity="0.922" fill-rule="evenodd" clip-rule="evenodd" d="M2689.46 661C2692.97 660.38 2695.81 661.38 2697.96 664C2698.29 673.67 2698.63 683.33 2698.96 693C2708.24 684.64 2719.07 681.8 2731.46 684.5C2748.19 688.56 2758.02 699.06 2760.96 716C2763.01 744.28 2750.01 760.28 2721.96 764C2712.72 763.54 2705.05 759.88 2698.96 753C2698.73 762.44 2694.73 764.77 2686.96 760C2686.29 728 2686.29 696 2686.96 664C2687.66 662.81 2688.49 661.81 2689.46 661ZM2717.46 695C2739.26 694.63 2749.76 705.3 2748.96 727C2745.71 744.59 2735.21 752.76 2717.46 751.5C2707.71 749.42 2701.55 743.58 2698.96 734C2697.82 724.83 2698.49 715.83 2700.96 707C2705.19 701.14 2710.69 697.14 2717.46 695Z" fill="#E4B441"/>
<path opacity="0.569" fill-rule="evenodd" clip-rule="evenodd" d="M741.529 661.372C742.122 661.615 742.454 662.121 742.523 662.891C741.794 665.645 740.799 668.176 739.539 670.485C739.794 667.346 740.456 664.308 741.529 661.372Z" fill="#E4B441"/>
<path opacity="0.918" fill-rule="evenodd" clip-rule="evenodd" d="M1939.46 662C1942.93 661.37 1945.76 662.37 1947.96 665C1948.46 671.32 1948.63 677.66 1948.46 684C1954.14 683.83 1959.8 684 1965.46 684.5C1969.17 686.13 1970.34 688.96 1968.96 693C1968.21 693.63 1967.38 694.13 1966.46 694.5C1960.47 695 1954.47 695.17 1948.46 695C1948 712.07 1948.5 729.07 1949.96 746C1952.7 750.92 1956.87 752.75 1962.46 751.5C1966.63 748.58 1970.47 748.75 1973.96 752C1975.08 755.46 1974.25 758.29 1971.46 760.5C1962.66 763.97 1953.99 763.64 1945.46 759.5C1940.38 755.18 1937.55 749.68 1936.96 743C1936.46 727 1936.29 711 1936.46 695C1932.45 695.17 1928.45 695 1924.46 694.5C1921.58 692.83 1920.75 690.33 1921.96 687C1922.86 685.8 1924.03 684.97 1925.46 684.5C1929.11 684 1932.78 683.83 1936.46 684C1936.29 677.66 1936.46 671.32 1936.96 665C1937.66 663.81 1938.49 662.81 1939.46 662Z" fill="#E4B441"/>
<path opacity="0.263" fill-rule="evenodd" clip-rule="evenodd" d="M465.991 666.436C466.585 666.679 466.916 667.185 466.986 667.954C466.474 671.124 465.147 673.655 463.007 675.548C463.848 672.46 464.843 669.423 465.991 666.436Z" fill="#6A6A6A"/>
<path opacity="0.94" fill-rule="evenodd" clip-rule="evenodd" d="M2394.46 664C2397.97 663.38 2400.81 664.38 2402.96 667C2403.46 695 2403.63 723 2403.46 751C2423.13 750.83 2442.8 751 2462.46 751.5C2466.7 755.29 2466.37 758.63 2461.46 761.5C2439.13 762.17 2416.79 762.17 2394.46 761.5C2393.65 761.19 2392.99 760.69 2392.46 760C2391.3 729.04 2391.13 698.04 2391.96 667C2392.66 665.81 2393.49 664.81 2394.46 664Z" fill="#E4B441"/>
<path opacity="0.915" fill-rule="evenodd" clip-rule="evenodd" d="M1464.46 664.999C1477.13 664.829 1489.8 664.999 1502.46 665.499C1524.8 667.829 1538.3 679.999 1542.96 701.999C1545.61 716.499 1543.27 730.159 1535.96 742.999C1528.71 753.879 1518.55 760.039 1505.46 761.499C1491.46 762.169 1477.46 762.169 1463.46 761.499C1461.67 760.719 1460.17 759.549 1458.96 757.999C1458.29 728.329 1458.29 698.669 1458.96 668.999C1460.46 667.029 1462.29 665.699 1464.46 664.999ZM1470.46 675.999C1481.8 675.829 1493.13 675.999 1504.46 676.499C1517.42 679.459 1525.92 687.289 1529.96 699.999C1533.51 712.509 1532.17 724.509 1525.96 735.999C1520.74 743.689 1513.58 748.529 1504.46 750.499C1493.13 750.999 1481.8 751.169 1470.46 750.999C1470.46 725.999 1470.46 700.999 1470.46 675.999Z" fill="#E4B441"/>
<path opacity="0.38" fill-rule="evenodd" clip-rule="evenodd" d="M582.374 669.473C583.037 671.498 583.7 673.523 584.363 675.548C582.571 674.718 581.576 673.199 581.379 670.991C581.449 670.222 581.78 669.716 582.374 669.473Z" fill="#E4B441"/>
<path opacity="0.733" fill-rule="evenodd" clip-rule="evenodd" d="M557.505 677.573C560.157 678.596 560.82 680.287 559.494 682.636C558.831 680.945 558.168 679.264 557.505 677.573Z" fill="#E4B441"/>
<path opacity="0.624" fill-rule="evenodd" clip-rule="evenodd" d="M739.539 670.485C737.751 678.17 734.436 684.924 729.592 690.736C732.942 683.912 736.258 677.168 739.539 670.485Z" fill="#E4B441"/>
<path opacity="0.031" fill-rule="evenodd" clip-rule="evenodd" d="M766.397 669.473C763.035 679.75 758.728 689.541 753.466 698.836C757.216 688.731 761.523 678.94 766.397 669.473Z" fill="#E4B441"/>
<path opacity="0.957" fill-rule="evenodd" clip-rule="evenodd" d="M347.619 739.337C339.722 750.11 329.111 755.507 315.788 755.538C299.085 754.373 288.309 745.595 283.46 729.212C280.023 711.32 285.826 697.651 300.867 688.204C317.612 681.106 332.367 683.972 345.132 696.811C352.194 706.46 354.515 717.254 352.095 729.212C351.264 732.948 349.772 736.32 347.619 739.337Z" fill="#C39320"/>
<path opacity="0.231" fill-rule="evenodd" clip-rule="evenodd" d="M462.012 680.61C463.114 681.947 463.114 683.466 462.012 685.167C461.678 686.21 461.014 686.716 460.022 686.686C460.686 684.66 461.348 682.635 462.012 680.61Z" fill="#E4B441"/>
<path opacity="0.212" fill-rule="evenodd" clip-rule="evenodd" d="M559.495 683.648C561.536 684.205 561.868 685.218 560.49 686.686C560.433 685.562 560.102 684.55 559.495 683.648Z" fill="#E4B441"/>
<path opacity="0.075" fill-rule="evenodd" clip-rule="evenodd" d="M586.353 684.661C587.186 685.005 587.518 685.684 587.347 686.686C585.434 686.474 585.102 685.795 586.353 684.661Z" fill="#E4B441"/>
<path opacity="0.216" fill-rule="evenodd" clip-rule="evenodd" d="M560.489 687.698C562.53 688.255 562.862 689.268 561.484 690.736C561.427 689.612 561.096 688.599 560.489 687.698Z" fill="#E4B441"/>
<path opacity="0.925" fill-rule="evenodd" clip-rule="evenodd" d="M1652.46 683C1681.66 683.36 1696.16 698.03 1695.96 727C1695.13 727.83 1694.29 728.67 1693.46 729.5C1672.46 730 1651.46 730.17 1630.46 730C1634.53 745.87 1644.86 753.04 1661.46 751.5C1667.53 750.8 1672.87 748.46 1677.46 744.5C1684.45 742.49 1687.28 744.99 1685.96 752C1676.23 760.98 1664.73 764.48 1651.46 762.5C1629.66 758.52 1618.33 745.36 1617.46 723C1618.58 700.23 1630.24 686.89 1652.46 683ZM1650.46 695C1669.81 692.71 1681.14 701.04 1684.46 720C1666.13 720 1647.79 720 1629.46 720C1631.09 707.05 1638.09 698.71 1650.46 695Z" fill="#E4B441"/>
<path opacity="0.913" fill-rule="evenodd" clip-rule="evenodd" d="M1807.46 683C1825.37 680.67 1838.54 687.34 1846.96 703C1847.78 705.29 1848.45 707.62 1848.96 710C1849.63 726.67 1849.63 743.33 1848.96 760C1844.8 764.2 1841.14 763.87 1837.96 759C1837.92 742.27 1837.25 725.6 1835.96 709C1827.66 693.96 1815.83 690.46 1800.46 698.5C1794.24 702.43 1790.08 707.93 1787.96 715C1787.63 729.67 1787.29 744.33 1786.96 759C1784 763.2 1780.33 763.87 1775.96 761C1774.32 736.73 1773.99 712.4 1774.96 688C1777.49 683.71 1780.99 682.88 1785.46 685.5C1786.25 688.91 1786.75 692.41 1786.96 696C1792.29 689.25 1799.12 684.92 1807.46 683Z" fill="#E4B441"/>
<path opacity="0.506" fill-rule="evenodd" clip-rule="evenodd" d="M561.484 691.748C563.526 692.305 563.857 693.317 562.479 694.786C562.422 693.662 562.091 692.649 561.484 691.748Z" fill="#E4B441"/>
<path opacity="0.927" fill-rule="evenodd" clip-rule="evenodd" d="M2071.46 684C2080.1 683.22 2088.44 684.39 2096.46 687.5C2098.92 688.96 2101.09 690.79 2102.96 693C2103.89 684.48 2107.89 682.48 2114.96 687C2115.63 711.33 2115.63 735.67 2114.96 760C2107.24 764.62 2103.24 762.29 2102.96 753C2088.46 766.15 2072.96 767.32 2056.46 756.5C2041.15 742.52 2036.99 725.69 2043.96 706C2049.68 694.24 2058.85 686.91 2071.46 684ZM2075.46 695C2088.99 694 2098.16 699.66 2102.96 712C2104.1 721.5 2103.44 730.84 2100.96 740C2091.91 752.46 2080.41 755.29 2066.46 748.5C2057.36 742.3 2052.69 733.64 2052.46 722.5C2053.72 707.74 2061.38 698.58 2075.46 695Z" fill="#E4B441"/>
<path opacity="0.931" fill-rule="evenodd" clip-rule="evenodd" d="M2559.46 684C2568.92 682.98 2577.92 684.48 2586.46 688.5C2587.96 690 2589.46 691.5 2590.96 693C2590.84 687.91 2593.17 684.91 2597.96 684C2599.94 684.49 2601.61 685.49 2602.96 687C2603.63 711.33 2603.63 735.67 2602.96 760C2600.08 762.94 2596.91 763.44 2593.46 761.5C2592.13 758.84 2591.29 756.01 2590.96 753C2582.04 762.57 2571.2 765.74 2558.46 762.5C2543.22 758.26 2533.72 748.43 2529.96 733C2525.7 707.84 2535.53 691.5 2559.46 684ZM2563.46 695C2576.78 693.57 2585.95 698.9 2590.96 711C2591.87 720.08 2591.54 729.08 2589.96 738C2582.12 751.17 2570.95 755 2556.46 749.5C2543.85 741.42 2539.01 729.92 2541.96 715C2545.51 704.28 2552.68 697.61 2563.46 695Z" fill="#E4B441"/>
<path opacity="0.357" fill-rule="evenodd" clip-rule="evenodd" d="M562.479 695.799C564.52 696.356 564.851 697.368 563.473 698.836C562.866 697.935 562.535 696.923 562.479 695.799Z" fill="#E4B441"/>
<path opacity="0.082" fill-rule="evenodd" clip-rule="evenodd" d="M589.336 695.799C590.17 696.143 590.502 696.821 590.331 697.824C588.417 697.611 588.086 696.933 589.336 695.799Z" fill="#E4B441"/>
<path fill-rule="evenodd" clip-rule="evenodd" d="M311.809 698.837C330.066 698.017 338.853 706.785 338.169 725.163C333.938 738.042 325.152 743.611 311.809 741.87C299.907 737.05 294.767 728.109 296.391 715.037C299.062 707.089 304.202 701.692 311.809 698.837Z" fill="white"/>
<path opacity="0.463" fill-rule="evenodd" clip-rule="evenodd" d="M563.474 699.849C564.554 699.97 565.217 700.649 565.463 701.874C565.42 702.805 565.089 703.474 564.468 703.899C564.137 702.552 563.805 701.195 563.474 699.849Z" fill="#E4B441"/>
<path opacity="0.165" fill-rule="evenodd" clip-rule="evenodd" d="M729.592 690.736C727.229 698.583 723.582 705.671 718.65 712C721.541 704.426 725.188 697.338 729.592 690.736Z" fill="#E4B441"/>
<path opacity="0.38" fill-rule="evenodd" clip-rule="evenodd" d="M565.463 708.962C567.376 709.175 567.708 709.853 566.457 710.987C565.624 710.643 565.291 709.964 565.463 708.962Z" fill="#E4B441" fill-opacity="0.486275"/>
<path opacity="0.455" fill-rule="evenodd" clip-rule="evenodd" d="M590.331 698.836C591.811 703.18 593.138 707.564 594.31 711.999C592.886 711.614 592.057 710.602 591.823 708.961C591.195 706.035 590.366 703.159 589.336 700.355C589.406 699.585 589.737 699.079 590.331 698.836Z" fill="#E4B441"/>
<path opacity="0.388" fill-rule="evenodd" clip-rule="evenodd" d="M566.458 713.012C568.372 713.224 568.703 713.903 567.452 715.037C566.619 714.693 566.287 714.014 566.458 713.012Z" fill="#E4B441"/>
<path opacity="0.067" fill-rule="evenodd" clip-rule="evenodd" d="M594.31 714.024C595.115 715.574 595.778 717.254 596.299 719.087C595.308 719.117 594.644 718.611 594.31 717.568C593.3 716.181 593.3 714.996 594.31 714.024Z" fill="#E4B441"/>
<path opacity="0.031" fill-rule="evenodd" clip-rule="evenodd" d="M746.502 713.012C744.573 717.659 742.252 722.044 739.539 726.175C740.58 721.011 742.9 716.626 746.502 713.012Z" fill="#636363"/>
<path opacity="0.392" fill-rule="evenodd" clip-rule="evenodd" d="M567.453 717.062C569.367 717.274 569.698 717.953 568.448 719.087C567.614 718.742 567.282 718.064 567.453 717.062Z" fill="#E4B441"/>
<path opacity="0.051" fill-rule="evenodd" clip-rule="evenodd" d="M596.299 721.112C597.104 722.661 597.767 724.342 598.289 726.175C597.297 726.205 596.633 725.699 596.299 724.656C595.29 723.269 595.29 722.084 596.299 721.112Z" fill="#E4B441"/>
<path opacity="0.145" fill-rule="evenodd" clip-rule="evenodd" d="M568.447 721.112C570.24 721.943 571.234 723.461 571.431 725.669C571.362 726.438 571.031 726.945 570.437 727.188C569.773 725.162 569.111 723.137 568.447 721.112Z" fill="#E4B441"/>
<path opacity="0.043" fill-rule="evenodd" clip-rule="evenodd" d="M598.289 727.188C598.346 728.311 598.677 729.324 599.284 730.225C597.243 729.668 596.911 728.656 598.289 727.188Z" fill="#E4B441"/>
<path opacity="0.255" fill-rule="evenodd" clip-rule="evenodd" d="M739.539 726.175C738.461 728.706 737.135 731.075 735.561 733.263C735.644 730.043 736.97 727.673 739.539 726.175Z" fill="#E4B441"/>
<path opacity="0.831" fill-rule="evenodd" clip-rule="evenodd" d="M571.432 732.25C574.084 733.273 574.747 734.964 573.421 737.313C572.758 735.622 572.095 733.941 571.432 732.25Z" fill="#E4B441"/>
<path opacity="0.035" fill-rule="evenodd" clip-rule="evenodd" d="M599.284 731.237C599.947 733.262 600.61 735.287 601.273 737.313C599.481 736.482 598.486 734.963 598.289 732.756C598.359 731.987 598.69 731.48 599.284 731.237Z" fill="#E4B441"/>
<path opacity="0.184" fill-rule="evenodd" clip-rule="evenodd" d="M734.566 735.287C733.807 737.181 732.812 738.871 731.582 740.35C731.342 737.788 732.337 736.097 734.566 735.287Z" fill="#E4B441"/>
<path opacity="0.435" fill-rule="evenodd" clip-rule="evenodd" d="M705.719 736.3C705.47 738.497 704.475 740.188 702.734 741.362C702.983 739.165 703.978 737.474 705.719 736.3Z" fill="#E4B441"/>
<path opacity="0.167" fill-rule="evenodd" clip-rule="evenodd" d="M731.581 740.351C731.152 741.576 730.488 742.588 729.592 743.388C729.378 741.687 730.041 740.675 731.581 740.351Z" fill="#E4B441"/>
<path opacity="0.035" fill-rule="evenodd" clip-rule="evenodd" d="M601.273 738.325C601.937 740.35 602.599 742.375 603.262 744.4C601.47 743.57 600.475 742.051 600.278 739.844C600.348 739.074 600.679 738.568 601.273 738.325Z" fill="#E4B441"/>
<path opacity="0.451" fill-rule="evenodd" clip-rule="evenodd" d="M702.734 741.362C702.485 743.56 701.491 745.25 699.75 746.425C699.999 744.228 700.993 742.537 702.734 741.362Z" fill="#E4B441"/>
<path opacity="0.251" fill-rule="evenodd" clip-rule="evenodd" d="M728.598 745.413C728.168 746.638 727.505 747.651 726.608 748.451C726.395 746.75 727.058 745.737 728.598 745.413Z" fill="#878787"/>
<path opacity="0.416" fill-rule="evenodd" clip-rule="evenodd" d="M348.614 743.388C349.667 746.547 350.993 749.584 352.593 752.501C349.978 750.587 348.32 747.883 347.619 744.4C347.742 743.783 348.074 743.448 348.614 743.388Z" fill="#E4B441"/>
<path opacity="0.494" fill-rule="evenodd" clip-rule="evenodd" d="M699.751 746.426C699.502 748.623 698.507 750.314 696.767 751.488C697.015 749.291 698.01 747.6 699.751 746.426Z" fill="#E4B441"/>
<path opacity="0.031" fill-rule="evenodd" clip-rule="evenodd" d="M603.262 745.413C603.926 747.438 604.588 749.463 605.252 751.488C603.459 750.658 602.465 749.139 602.268 746.932C602.337 746.162 602.668 745.656 603.262 745.413Z" fill="#E4B441"/>
<path opacity="0.092" fill-rule="evenodd" clip-rule="evenodd" d="M352.593 752.501C353.489 753.301 354.153 754.313 354.582 755.539C353.042 755.215 352.379 754.202 352.593 752.501Z" fill="#E4B441"/>
<path opacity="0.753" fill-rule="evenodd" clip-rule="evenodd" d="M442.118 753.513C442.45 756.54 441.455 758.899 439.134 760.6C439.566 757.907 440.561 755.548 442.118 753.513Z" fill="#545454"/>
<path opacity="0.027" fill-rule="evenodd" clip-rule="evenodd" d="M605.252 752.501C605.915 754.526 606.578 756.551 607.241 758.576C605.449 757.746 604.454 756.227 604.257 754.02C604.326 753.25 604.658 752.744 605.252 752.501Z" fill="#E4B441"/>
<path opacity="0.376" fill-rule="evenodd" clip-rule="evenodd" d="M354.583 755.538C355.566 756.854 356.56 758.201 357.567 759.588C355.168 759.396 354.173 758.039 354.583 755.538Z" fill="#8A8A8A"/>
<path opacity="0.069" fill-rule="evenodd" clip-rule="evenodd" d="M357.566 759.588C359.121 761.046 360.447 762.737 361.545 764.651C358.763 764.175 357.436 762.494 357.566 759.588Z" fill="#727272"/>
<path opacity="0.039" fill-rule="evenodd" clip-rule="evenodd" d="M607.242 759.588C608.1 761.532 608.763 763.557 609.231 765.663C607.439 764.833 606.444 763.314 606.247 761.107C606.317 760.337 606.648 759.831 607.242 759.588Z" fill="#E4B441"/>
<path opacity="0.141" fill-rule="evenodd" clip-rule="evenodd" d="M580.384 756.551C582.141 758.869 583.136 761.573 583.368 764.651C581.61 762.332 580.616 759.629 580.384 756.551Z" fill="#E4B441"/>
<path opacity="0.01" fill-rule="evenodd" clip-rule="evenodd" d="M609.231 766.676C610.072 767.86 610.734 769.207 611.22 770.726C609.608 770.432 608.613 769.42 608.236 767.688C608.36 767.071 608.691 766.737 609.231 766.676Z" fill="#E4B441" fill-opacity="0.933333"/>
<path opacity="0.431" fill-rule="evenodd" clip-rule="evenodd" d="M362.54 765.664C363.523 766.98 364.517 768.327 365.524 769.714C363.125 769.522 362.13 768.165 362.54 765.664Z" fill="#848484"/>
<path opacity="0.557" fill-rule="evenodd" clip-rule="evenodd" d="M583.368 766.676C585.193 767.304 586.354 768.66 586.85 770.726C588.309 774.027 589.469 777.399 590.331 780.851C587.642 776.376 585.321 771.657 583.368 766.676Z" fill="#E4B441"/>
<path opacity="0.041" fill-rule="evenodd" clip-rule="evenodd" d="M611.22 771.739C612.149 772.823 612.481 774.169 612.215 775.789C610.585 774.574 610.254 773.218 611.22 771.739Z" fill="#E4B441"/>
<path opacity="0.494" fill-rule="evenodd" clip-rule="evenodd" d="M366.519 770.727C367.901 772.144 368.896 773.835 369.503 775.789C367.288 774.878 366.293 773.187 366.519 770.727Z" fill="#E4B441"/>
<path opacity="0.082" fill-rule="evenodd" clip-rule="evenodd" d="M341.65 777.814C343.048 778.29 343.712 779.303 343.639 780.852C342.241 780.376 341.577 779.364 341.65 777.814Z" fill="#E4B441"/>
<path opacity="0.51" fill-rule="evenodd" clip-rule="evenodd" d="M370.498 776.802C372.574 777.895 373.9 779.586 374.477 781.864C372.401 780.771 371.075 779.08 370.498 776.802Z" fill="#E4B441"/>
<path opacity="0.208" fill-rule="evenodd" clip-rule="evenodd" d="M453.059 788.952C453.273 790.653 452.61 791.666 451.07 791.99C450.997 790.441 451.661 789.428 453.059 788.952Z" fill="#717171"/>
<path opacity="0.059" fill-rule="evenodd" clip-rule="evenodd" d="M353.588 794.015C357.236 797.052 360.551 800.424 363.535 804.14C359.225 801.781 355.909 798.399 353.588 794.015Z" fill="#6A6A6A"/>
<path opacity="0.184" fill-rule="evenodd" clip-rule="evenodd" d="M449.081 795.027C448.922 796.698 448.259 798.055 447.092 799.077C446.822 797.174 447.486 795.827 449.081 795.027Z" fill="#E4B441"/>
<path opacity="0.175" fill-rule="evenodd" clip-rule="evenodd" d="M446.097 799.077C442.52 805.76 437.546 811.157 431.176 815.278C431.045 814.528 431.212 813.85 431.673 813.253C436.705 808.635 441.513 803.907 446.097 799.077Z" fill="#E4B441"/>
<path opacity="0.106" fill-rule="evenodd" clip-rule="evenodd" d="M683.835 806.165C681.248 810.489 677.932 814.205 673.888 817.303C676.475 812.979 679.79 809.263 683.835 806.165Z" fill="#E4B441"/>
<path opacity="0.239" fill-rule="evenodd" clip-rule="evenodd" d="M609.23 810.215C611.551 811.906 613.541 813.931 615.199 816.29C612.215 815.278 610.225 813.252 609.23 810.215Z" fill="#A2A2A2"/>
<path opacity="0.078" fill-rule="evenodd" clip-rule="evenodd" d="M424.213 820.341C421.56 821.687 418.908 823.044 416.255 824.391C417.914 822.001 420.235 820.32 423.218 819.328C423.822 819.45 424.153 819.794 424.213 820.341Z" fill="#5E5E5E"/>
<path opacity="0.016" fill-rule="evenodd" clip-rule="evenodd" d="M671.898 818.315C668.793 821.424 665.145 823.783 660.956 825.403C660.826 824.512 661.157 823.844 661.951 823.378C665.3 821.626 668.616 819.946 671.898 818.315Z" fill="#E4B441"/>
<path opacity="0.01" fill-rule="evenodd" clip-rule="evenodd" d="M397.355 826.415C401.003 825.069 404.65 825.069 408.297 826.415C404.617 827.691 400.97 827.691 397.355 826.415Z" fill="#E4B441"/>
</svg>
